<svg width="11" height="13" viewBox="0 0 11 13" fill="none" xmlns="http://www.w3.org/2000/svg">
    <path d="M0 1.08136V8.65084L2.59525 6.7044C2.78233 6.56383 3.00995 6.48813 3.24407 6.48813H7.56949C7.85628 6.48813 8.13133 6.3742 8.33412 6.17141C8.53691 5.96862 8.65084 5.69357 8.65084 5.40678V1.08136C8.65084 0.794562 8.53691 0.519515 8.33412 0.316722C8.13133 0.113928 7.85628 0 7.56949 0H1.08136C0.794562 0 0.519515 0.113928 0.316722 0.316722C0.113928 0.519515 0 0.794562 0 1.08136ZM1.08136 6.48813V1.08136H7.56949V5.40678H2.88397C2.6499 5.40615 2.42204 5.4821 2.23516 5.62305L1.08136 6.48813Z"
          fill="#09101D"/>
    <path d="M11.0001 12.3423V5.31353C11.0001 5.02674 10.8861 4.75169 10.6833 4.5489C10.4805 4.34611 10.2055 4.23218 9.9187 4.23218V10.1796L8.7649 9.31455C8.57801 9.1736 8.35016 9.09765 8.11608 9.09828H2.88989C2.88989 9.24028 2.91786 9.3809 2.97221 9.51209C3.02655 9.64329 3.1062 9.7625 3.20661 9.86291C3.30703 9.96332 3.42624 10.043 3.55743 10.0973C3.68863 10.1517 3.82924 10.1796 3.97125 10.1796H7.75599C7.99011 10.1796 8.21773 10.2553 8.40481 10.3959L11.0001 12.3423Z"
          fill="#09101D"/>
</svg>
