<svg width="6" height="3" viewBox="0 0 6 3" fill="none" xmlns="http://www.w3.org/2000/svg">
<path d="M2.99529 2.99899C2.89533 2.99918 2.79846 2.96432 2.72149 2.90047L0.154552 0.758716C0.0671834 0.686009 0.0122405 0.581529 0.00181033 0.468262C-0.00861987 0.354995 0.0263169 0.242218 0.0989349 0.154742C0.171553 0.067266 0.275904 0.0122556 0.389031 0.00181257C0.502159 -0.00863049 0.614796 0.0263492 0.702165 0.0990567L2.99529 2.01806L5.28842 0.167593C5.33219 0.132012 5.38254 0.10544 5.43659 0.0894066C5.49064 0.0733727 5.54732 0.0681923 5.60338 0.0741631C5.65944 0.080134 5.71376 0.0971381 5.76323 0.124199C5.81271 0.151259 5.85635 0.187842 5.89165 0.231845C5.93083 0.275889 5.96051 0.327559 5.97881 0.383619C5.99712 0.439679 6.00367 0.49892 5.99805 0.557631C5.99242 0.616342 5.97475 0.673258 5.94614 0.724813C5.91752 0.776367 5.87858 0.82145 5.83176 0.857236L3.26482 2.92617C3.18564 2.97993 3.09074 3.00557 2.99529 2.99899Z" fill="#72767C"/>
</svg>
