<svg width="16" height="18" viewBox="0 0 16 18" fill="none" xmlns="http://www.w3.org/2000/svg">
    <path d="M13.5394 3.3158H1.93415C1.67765 3.3158 1.43167 3.43224 1.2503 3.63952C1.06893 3.8468 0.967041 4.12792 0.967041 4.42106V13.2632C0.967041 13.5563 1.06893 13.8374 1.2503 14.0447C1.43167 14.252 1.67765 14.3684 1.93415 14.3684H13.5394C13.7959 14.3684 14.0419 14.252 14.2233 14.0447C14.4046 13.8374 14.5065 13.5563 14.5065 13.2632V4.42106C14.5065 4.12792 14.4046 3.8468 14.2233 3.63952C14.0419 3.43224 13.7959 3.3158 13.5394 3.3158ZM12.4756 4.42106L7.73678 8.1679L2.99796 4.42106H12.4756ZM1.93415 13.2632V4.92395L7.46115 9.29527C7.5421 9.35944 7.63826 9.39383 7.73678 9.39383C7.83529 9.39383 7.93146 9.35944 8.0124 9.29527L13.5394 4.92395V13.2632H1.93415Z"
          fill="#09101D"/>
</svg>
