<svg width="9" height="9" viewBox="0 0 9 9" fill="none" xmlns="http://www.w3.org/2000/svg">
<path d="M4.5 5.0625C4.22187 5.0625 3.94999 4.98003 3.71873 4.82551C3.48747 4.67098 3.30723 4.45136 3.2008 4.1944C3.09436 3.93744 3.06651 3.65469 3.12077 3.38191C3.17503 3.10912 3.30896 2.85855 3.50563 2.66188C3.7023 2.46521 3.95287 2.33128 4.22566 2.27702C4.49844 2.22276 4.78119 2.25061 5.03815 2.35705C5.29511 2.46348 5.51473 2.64372 5.66926 2.87498C5.82378 3.10624 5.90625 3.37812 5.90625 3.65625C5.9058 4.02907 5.7575 4.3865 5.49388 4.65013C5.23025 4.91375 4.87282 5.06205 4.5 5.0625ZM4.5 2.8125C4.33312 2.8125 4.16999 2.86199 4.03124 2.9547C3.89248 3.04741 3.78434 3.17919 3.72048 3.33336C3.65662 3.48754 3.63991 3.65719 3.67246 3.82086C3.70502 3.98453 3.78538 4.13487 3.90338 4.25287C4.02138 4.37087 4.17172 4.45123 4.33539 4.48379C4.49906 4.51634 4.66871 4.49964 4.82289 4.43577C4.97707 4.37191 5.10884 4.26377 5.20155 4.12501C5.29427 3.98626 5.34375 3.82313 5.34375 3.65625C5.34353 3.43254 5.25456 3.21806 5.09638 3.05988C4.93819 2.90169 4.72371 2.81272 4.5 2.8125Z" fill="#0052CC"/>
<path d="M4.5 8.4375L2.12738 5.63934C2.09441 5.59733 2.06178 5.55505 2.0295 5.5125C1.62422 4.97863 1.40527 4.32653 1.40625 3.65625C1.40625 2.83574 1.7322 2.04883 2.31239 1.46864C2.89258 0.888448 3.67949 0.5625 4.5 0.5625C5.32052 0.5625 6.10742 0.888448 6.68761 1.46864C7.26781 2.04883 7.59375 2.83574 7.59375 3.65625C7.59474 4.32623 7.37589 4.97803 6.97078 5.51166L6.9705 5.5125C6.9705 5.5125 6.88613 5.62331 6.87347 5.63822L4.5 8.4375ZM2.47838 5.17359C2.47894 5.17359 2.54419 5.26022 2.5591 5.27878L4.5 7.56788L6.44344 5.27569C6.45582 5.26022 6.52163 5.17303 6.52191 5.17275C6.85298 4.73656 7.0319 4.20385 7.03125 3.65625C7.03125 2.98492 6.76457 2.34109 6.28987 1.86639C5.81517 1.39168 5.17133 1.125 4.5 1.125C3.82867 1.125 3.18484 1.39168 2.71014 1.86639C2.23544 2.34109 1.96875 2.98492 1.96875 3.65625C1.96816 4.20419 2.14728 4.73721 2.47866 5.17359H2.47838Z" fill="#0052CC"/>
</svg>
