<svg width="2395" height="1531" viewBox="0 0 2395 1531" fill="none" xmlns="http://www.w3.org/2000/svg">
<path d="M714.482 435.931H246.826V116.024H714.482V435.931ZM250.519 432.238H710.789V119.717H250.519V432.238Z" fill="#EBEBEB"/>
<path d="M283.386 136.629C283.386 138.47 282.84 140.269 281.817 141.799C280.795 143.329 279.341 144.522 277.641 145.227C275.941 145.931 274.069 146.115 272.264 145.756C270.459 145.397 268.801 144.511 267.5 143.209C266.198 141.908 265.312 140.25 264.953 138.445C264.594 136.639 264.778 134.768 265.482 133.068C266.187 131.367 267.379 129.914 268.91 128.892C270.44 127.869 272.239 127.323 274.08 127.323C276.548 127.323 278.915 128.304 280.66 130.049C282.405 131.794 283.386 134.161 283.386 136.629V136.629Z" fill="#A6A6A6"/>
<path d="M321.384 136.629C321.384 138.47 320.838 140.269 319.816 141.799C318.793 143.329 317.34 144.522 315.64 145.227C313.939 145.931 312.068 146.115 310.263 145.756C308.458 145.397 306.8 144.511 305.498 143.209C304.197 141.908 303.31 140.25 302.951 138.445C302.592 136.639 302.776 134.768 303.481 133.068C304.185 131.367 305.378 129.914 306.908 128.892C308.439 127.869 310.238 127.323 312.078 127.323C314.546 127.323 316.913 128.304 318.659 130.049C320.404 131.794 321.384 134.161 321.384 136.629V136.629Z" fill="#EBEBEB"/>
<path d="M359.42 136.629C359.427 138.48 358.885 140.291 357.861 141.834C356.837 143.376 355.378 144.579 353.669 145.291C351.961 146.002 350.079 146.19 348.263 145.831C346.448 145.472 344.78 144.581 343.471 143.272C342.162 141.963 341.271 140.295 340.912 138.48C340.553 136.664 340.741 134.782 341.453 133.074C342.164 131.365 343.368 129.906 344.91 128.882C346.452 127.859 348.263 127.316 350.114 127.323C352.582 127.323 354.949 128.304 356.694 130.049C358.439 131.794 359.42 134.161 359.42 136.629V136.629Z" fill="#2588FD"/>
<path d="M712.637 152.989H248.674V156.682H712.637V152.989Z" fill="#EBEBEB"/>
<path d="M2244.44 1273.86H2240.75V809.235L2339.46 674.522V422.747H2343.15V675.703L2244.44 810.454V1273.86Z" fill="#EBEBEB"/>
<path d="M2341.31 424.741C2339.2 424.741 2337.14 424.117 2335.39 422.946C2333.64 421.776 2332.28 420.113 2331.48 418.167C2330.67 416.222 2330.47 414.082 2330.88 412.018C2331.29 409.953 2332.31 408.059 2333.8 406.573C2335.29 405.087 2337.19 404.077 2339.25 403.671C2341.32 403.264 2343.46 403.48 2345.4 404.291C2347.35 405.102 2349 406.47 2350.17 408.224C2351.33 409.978 2351.95 412.038 2351.94 414.143C2351.94 415.538 2351.67 416.919 2351.13 418.207C2350.6 419.495 2349.81 420.665 2348.83 421.65C2347.84 422.635 2346.66 423.415 2345.37 423.945C2344.08 424.476 2342.7 424.746 2341.31 424.741V424.741ZM2341.31 407.2C2339.93 407.2 2338.59 407.608 2337.45 408.37C2336.31 409.133 2335.42 410.218 2334.89 411.486C2334.37 412.755 2334.23 414.151 2334.5 415.497C2334.77 416.844 2335.43 418.081 2336.4 419.052C2337.37 420.023 2338.61 420.684 2339.95 420.952C2341.3 421.22 2342.7 421.082 2343.96 420.557C2345.23 420.031 2346.32 419.142 2347.08 418C2347.84 416.858 2348.25 415.516 2348.25 414.143C2348.25 412.302 2347.52 410.536 2346.22 409.234C2344.91 407.932 2343.15 407.2 2341.31 407.2V407.2Z" fill="#EBEBEB"/>
<path d="M2269.89 1273.86H2266.2V825.521L2266.53 825.004L2364.9 690.771V515.067H2368.6V691.989L2269.89 826.702V1273.86Z" fill="#EBEBEB"/>
<path d="M2366.75 517.062C2364.64 517.07 2362.58 516.451 2360.83 515.285C2359.07 514.12 2357.7 512.459 2356.89 510.514C2356.09 508.569 2355.87 506.428 2356.28 504.361C2356.69 502.295 2357.7 500.397 2359.19 498.907C2360.68 497.417 2362.58 496.404 2364.65 495.995C2366.71 495.585 2368.86 495.799 2370.8 496.609C2372.75 497.418 2374.41 498.787 2375.57 500.542C2376.74 502.296 2377.36 504.358 2377.35 506.464C2377.34 509.272 2376.22 511.962 2374.23 513.948C2372.25 515.933 2369.56 517.053 2366.75 517.062V517.062ZM2366.75 499.522C2365.38 499.514 2364.03 499.915 2362.88 500.674C2361.74 501.432 2360.84 502.514 2360.31 503.782C2359.78 505.05 2359.64 506.447 2359.9 507.796C2360.16 509.145 2360.82 510.385 2361.79 511.36C2362.76 512.335 2364 512.999 2365.35 513.27C2366.69 513.541 2368.09 513.406 2369.36 512.882C2370.63 512.357 2371.72 511.467 2372.48 510.325C2373.25 509.183 2373.66 507.839 2373.66 506.464C2373.66 504.629 2372.93 502.869 2371.64 501.568C2370.34 500.267 2368.59 499.531 2366.75 499.522V499.522Z" fill="#EBEBEB"/>
<path d="M2219.96 659.346H2216.27V1273.86H2219.96V659.346Z" fill="#EBEBEB"/>
<path d="M2218.11 661.191C2216.01 661.199 2213.95 660.58 2212.19 659.414C2210.44 658.249 2209.07 656.588 2208.26 654.643C2207.45 652.698 2207.24 650.557 2207.64 648.49C2208.05 646.424 2209.07 644.525 2210.56 643.036C2212.05 641.546 2213.95 640.533 2216.01 640.123C2218.08 639.714 2220.22 639.928 2222.16 640.738C2224.11 641.547 2225.77 642.916 2226.94 644.671C2228.1 646.425 2228.72 648.486 2228.71 650.593C2228.7 653.401 2227.58 656.091 2225.6 658.076C2223.61 660.062 2220.92 661.182 2218.11 661.191V661.191ZM2218.11 643.651C2216.74 643.643 2215.39 644.044 2214.25 644.803C2213.1 645.561 2212.21 646.643 2211.67 647.911C2211.14 649.178 2211 650.576 2211.26 651.925C2211.53 653.274 2212.19 654.514 2213.16 655.489C2214.12 656.463 2215.36 657.128 2216.71 657.399C2218.06 657.67 2219.45 657.535 2220.73 657.01C2222 656.486 2223.08 655.596 2223.85 654.454C2224.61 653.311 2225.02 651.968 2225.02 650.593C2225.02 648.758 2224.29 646.998 2223 645.697C2221.71 644.396 2219.95 643.66 2218.11 643.651V643.651Z" fill="#EBEBEB"/>
<path d="M2196.36 1273.86H2192.67V962.007L2125.68 835.602V608.569H2129.38V834.716L2196.36 961.12V1273.86Z" fill="#EBEBEB"/>
<path d="M2127.49 610.416C2125.39 610.416 2123.33 609.792 2121.59 608.624C2119.84 607.455 2118.47 605.794 2117.67 603.851C2116.86 601.907 2116.65 599.769 2117.06 597.706C2117.47 595.643 2118.49 593.748 2119.97 592.26C2121.46 590.773 2123.36 589.76 2125.42 589.35C2127.48 588.939 2129.62 589.15 2131.56 589.955C2133.51 590.76 2135.17 592.123 2136.34 593.872C2137.51 595.621 2138.13 597.677 2138.13 599.781C2138.13 602.601 2137.01 605.307 2135.01 607.301C2133.02 609.296 2130.32 610.416 2127.49 610.416V610.416ZM2127.49 592.875C2126.12 592.875 2124.78 593.283 2123.63 594.048C2122.49 594.812 2121.6 595.899 2121.08 597.17C2120.55 598.44 2120.42 599.838 2120.69 601.186C2120.96 602.533 2121.62 603.77 2122.6 604.74C2123.57 605.709 2124.81 606.368 2126.16 606.631C2127.51 606.895 2128.91 606.752 2130.18 606.221C2131.45 605.69 2132.53 604.794 2133.29 603.648C2134.04 602.501 2134.44 601.155 2134.44 599.781C2134.44 598.871 2134.26 597.97 2133.91 597.13C2133.56 596.289 2133.05 595.526 2132.4 594.885C2131.76 594.243 2130.99 593.735 2130.15 593.39C2129.31 593.045 2128.4 592.87 2127.49 592.875V592.875Z" fill="#EBEBEB"/>
<path d="M2172.92 1273.86H2169.22V975.559L2090.23 835.824V686.081H2093.93V834.827L2172.92 974.599V1273.86Z" fill="#EBEBEB"/>
<path d="M2092.08 687.927C2089.97 687.934 2087.91 687.316 2086.16 686.15C2084.4 684.984 2083.03 683.323 2082.22 681.378C2081.42 679.434 2081.2 677.292 2081.61 675.226C2082.02 673.159 2083.03 671.261 2084.52 669.771C2086.01 668.282 2087.91 667.268 2089.98 666.859C2092.04 666.45 2094.19 666.663 2096.13 667.473C2098.08 668.282 2099.74 669.651 2100.9 671.406C2102.07 673.16 2102.69 675.222 2102.68 677.328C2102.67 680.136 2101.55 682.826 2099.56 684.812C2097.58 686.797 2094.89 687.917 2092.08 687.927V687.927ZM2092.08 670.386C2090.71 670.379 2089.36 670.78 2088.21 671.538C2087.07 672.296 2086.17 673.378 2085.64 674.646C2085.11 675.914 2084.97 677.311 2085.23 678.66C2085.49 680.009 2086.15 681.25 2087.12 682.224C2088.09 683.199 2089.33 683.864 2090.68 684.135C2092.02 684.405 2093.42 684.27 2094.69 683.746C2095.96 683.221 2097.05 682.332 2097.81 681.189C2098.58 680.047 2098.99 678.703 2098.99 677.328C2098.99 675.493 2098.26 673.733 2096.97 672.432C2095.67 671.131 2093.92 670.396 2092.08 670.386V670.386Z" fill="#EBEBEB"/>
<path d="M167.579 1273.86H163.887V1031.99L65.1782 897.272V755.1H68.871V896.054L167.579 1030.8V1273.86Z" fill="#EBEBEB"/>
<path d="M67.0247 757.094C64.9181 757.101 62.8568 756.483 61.1022 755.317C59.3476 754.151 57.9787 752.49 57.1692 750.545C56.3596 748.601 56.1459 746.459 56.5551 744.393C56.9643 742.326 57.978 740.428 59.4675 738.938C60.9571 737.449 62.8555 736.435 64.922 736.026C66.9885 735.617 69.1299 735.83 71.0748 736.64C73.0196 737.449 74.6802 738.818 75.846 740.573C77.0118 742.327 77.6303 744.389 77.623 746.495C77.623 749.306 76.5064 752.002 74.5188 753.99C72.5313 755.977 69.8355 757.094 67.0247 757.094V757.094ZM67.0247 739.553C65.65 739.546 64.3042 739.947 63.1576 740.705C62.0111 741.463 61.1155 742.545 60.5844 743.813C60.0533 745.081 59.9105 746.478 60.1742 747.827C60.4379 749.176 61.0962 750.417 62.0656 751.391C63.035 752.366 64.272 753.031 65.6197 753.302C66.9674 753.573 68.3652 753.437 69.6359 752.913C70.9066 752.388 71.9931 751.499 72.7576 750.356C73.5221 749.214 73.9302 747.87 73.9302 746.495C73.9302 744.66 73.2039 742.9 71.9099 741.599C70.6159 740.298 68.8595 739.563 67.0247 739.553V739.553Z" fill="#EBEBEB"/>
<path d="M142.137 1273.86H138.444V1048.27L39.7354 913.557V847.419H43.4281V912.338L142.137 1047.09V1273.86Z" fill="#EBEBEB"/>
<path d="M41.6552 849.413C39.5502 849.413 37.4925 848.788 35.7428 847.618C33.993 846.448 32.6299 844.785 31.826 842.839C31.0222 840.894 30.8137 838.753 31.2271 836.689C31.6405 834.625 32.657 832.73 34.1481 831.245C35.6392 829.759 37.5376 828.749 39.6031 828.342C41.6686 827.936 43.8081 828.152 45.7508 828.963C47.6935 829.773 49.3519 831.142 50.5161 832.896C51.6802 834.65 52.2978 836.71 52.2905 838.815C52.2807 841.629 51.1559 844.325 49.1625 846.311C47.169 848.298 44.4695 849.413 41.6552 849.413V849.413ZM41.6552 831.872C40.2821 831.872 38.9399 832.28 37.7982 833.042C36.6565 833.805 35.7667 834.889 35.2412 836.158C34.7158 837.427 34.5783 838.823 34.8462 840.169C35.114 841.516 35.7752 842.753 36.7462 843.724C37.7171 844.695 38.9541 845.356 40.3008 845.624C41.6475 845.892 43.0434 845.754 44.312 845.229C45.5805 844.703 46.6648 843.813 47.4277 842.672C48.1905 841.53 48.5977 840.188 48.5977 838.815C48.5977 836.974 47.8662 835.208 46.5643 833.906C45.2623 832.604 43.4965 831.872 41.6552 831.872V831.872Z" fill="#EBEBEB"/>
<path d="M192.062 880.912H188.369V1273.86H192.062V880.912Z" fill="#EBEBEB"/>
<path d="M190.217 882.759C188.112 882.759 186.054 882.134 184.304 880.964C182.555 879.794 181.191 878.13 180.388 876.185C179.584 874.239 179.375 872.099 179.789 870.035C180.202 867.971 181.219 866.076 182.71 864.59C184.201 863.104 186.099 862.094 188.165 861.688C190.23 861.282 192.37 861.498 194.312 862.309C196.255 863.119 197.913 864.488 199.078 866.242C200.242 867.996 200.859 870.055 200.852 872.16C200.842 874.975 199.717 877.67 197.724 879.657C195.731 881.643 193.031 882.759 190.217 882.759ZM190.217 865.218C188.844 865.218 187.501 865.625 186.36 866.388C185.218 867.151 184.328 868.235 183.803 869.504C183.277 870.772 183.14 872.168 183.408 873.515C183.676 874.862 184.337 876.099 185.308 877.07C186.279 878.04 187.516 878.702 188.862 878.969C190.209 879.237 191.605 879.1 192.874 878.574C194.142 878.049 195.226 877.159 195.989 876.017C196.752 874.876 197.159 873.534 197.159 872.16C197.159 870.319 196.428 868.553 195.126 867.251C193.824 865.949 192.058 865.218 190.217 865.218V865.218Z" fill="#EBEBEB"/>
<path d="M215.659 1273.86H211.966V1071.9L212.151 1071.46L278.954 945.5V719.354H282.646V946.386L282.462 946.793L215.659 1072.79V1273.86Z" fill="#EBEBEB"/>
<path d="M280.801 721.2C278.698 721.2 276.642 720.576 274.893 719.408C273.144 718.239 271.781 716.578 270.976 714.635C270.171 712.692 269.96 710.553 270.37 708.49C270.781 706.427 271.794 704.532 273.281 703.045C274.768 701.557 276.663 700.544 278.726 700.134C280.789 699.724 282.928 699.934 284.871 700.739C286.815 701.544 288.476 702.907 289.644 704.656C290.813 706.405 291.437 708.461 291.437 710.565C291.437 713.386 290.316 716.091 288.322 718.085C286.327 720.08 283.622 721.2 280.801 721.2V721.2ZM280.801 703.659C279.427 703.659 278.083 704.068 276.94 704.832C275.798 705.597 274.908 706.683 274.384 707.954C273.859 709.224 273.724 710.622 273.995 711.97C274.266 713.318 274.931 714.555 275.905 715.524C276.88 716.493 278.121 717.152 279.47 717.415C280.819 717.679 282.216 717.536 283.484 717.005C284.752 716.474 285.833 715.578 286.592 714.432C287.35 713.285 287.751 711.94 287.744 710.565C287.744 709.655 287.564 708.754 287.215 707.914C286.865 707.074 286.353 706.311 285.708 705.669C285.063 705.027 284.297 704.519 283.455 704.174C282.613 703.83 281.711 703.655 280.801 703.659V703.659Z" fill="#EBEBEB"/>
<path d="M239.11 1273.86H235.417V1085.38L235.639 1084.94L314.406 945.611V796.865H318.099V946.608L317.84 947.014L239.11 1086.34V1273.86Z" fill="#EBEBEB"/>
<path d="M316.251 798.711C314.145 798.718 312.083 798.1 310.329 796.934C308.574 795.768 307.205 794.107 306.396 792.163C305.586 790.218 305.372 788.076 305.782 786.01C306.191 783.943 307.205 782.045 308.694 780.555C310.184 779.066 312.082 778.052 314.149 777.643C316.215 777.234 318.356 777.448 320.301 778.257C322.246 779.067 323.907 780.435 325.073 782.19C326.238 783.945 326.857 786.006 326.85 788.113C326.84 790.92 325.72 793.61 323.735 795.596C321.749 797.581 319.059 798.701 316.251 798.711V798.711ZM316.251 781.17C314.877 781.163 313.531 781.564 312.384 782.322C311.238 783.08 310.342 784.162 309.811 785.43C309.28 786.698 309.137 788.095 309.401 789.444C309.664 790.793 310.323 792.034 311.292 793.008C312.262 793.983 313.499 794.648 314.846 794.919C316.194 795.19 317.592 795.054 318.862 794.53C320.133 794.006 321.22 793.116 321.984 791.973C322.749 790.831 323.157 789.487 323.157 788.113C323.157 786.278 322.43 784.517 321.136 783.216C319.842 781.916 318.086 781.18 316.251 781.17V781.17Z" fill="#EBEBEB"/>
<path d="M2345.96 360.043L2371.81 318.499L2359.11 310.634C2357.26 309.484 2355.77 307.833 2354.81 305.873C2353.86 303.913 2353.48 301.722 2353.72 299.555C2353.91 297.094 2353.99 294.632 2353.94 292.17C2353.87 290.026 2354.4 287.907 2355.47 286.048C2356.54 284.19 2358.11 282.665 2359.99 281.645L2373.18 274.555L2349.65 231.719L2336.47 238.809C2334.57 239.809 2332.43 240.263 2330.28 240.119C2328.14 239.976 2326.07 239.241 2324.32 237.997C2322.33 236.63 2320.26 235.338 2318.12 234.304C2316.22 233.294 2314.64 231.774 2313.55 229.914C2312.47 228.055 2311.93 225.93 2311.99 223.779L2312.47 208.787L2263.61 207.272L2263.13 222.302C2263.05 224.453 2262.37 226.539 2261.17 228.326C2259.97 230.113 2258.3 231.531 2256.34 232.42C2255.23 232.937 2254.16 233.454 2253.12 234.045C2252.09 234.636 2251.02 235.19 2249.99 235.818C2248.16 236.941 2246.06 237.536 2243.91 237.536C2241.77 237.536 2239.66 236.941 2237.84 235.818L2225.02 227.878L2199.17 269.422L2211.91 277.362C2213.77 278.509 2215.26 280.159 2216.21 282.12C2217.17 284.081 2217.55 286.273 2217.3 288.44C2217.1 290.896 2217.02 293.362 2217.08 295.826C2217.14 297.977 2216.6 300.102 2215.52 301.965C2214.45 303.829 2212.88 305.36 2210.99 306.387L2198.03 312.96L2221.14 356.055L2234.33 349.002C2236.23 347.996 2238.37 347.537 2240.51 347.673C2242.66 347.81 2244.72 348.539 2246.48 349.777C2248.48 351.119 2250.55 352.352 2252.68 353.47C2254.58 354.48 2256.16 356 2257.24 357.859C2258.33 359.719 2258.87 361.844 2258.81 363.995L2258.37 378.987L2307.22 380.501L2307.7 365.509C2307.78 363.362 2308.46 361.28 2309.66 359.499C2310.86 357.717 2312.54 356.307 2314.5 355.427L2317.71 353.803L2320.85 351.993C2322.68 350.87 2324.79 350.276 2326.94 350.276C2329.09 350.276 2331.2 350.87 2333.04 351.993L2345.96 360.043ZM2304.6 329.209C2297.62 332.95 2289.68 334.536 2281.79 333.767C2273.91 332.997 2266.42 329.906 2260.29 324.885C2254.16 319.864 2249.66 313.138 2247.35 305.557C2245.05 297.977 2245.04 289.882 2247.33 282.297C2249.62 274.712 2254.11 267.977 2260.23 262.944C2266.35 257.91 2273.83 254.805 2281.71 254.02C2289.6 253.234 2297.54 254.805 2304.53 258.532C2311.52 262.26 2317.25 267.977 2321 274.961C2323.48 279.611 2325.01 284.703 2325.52 289.948C2326.03 295.192 2325.5 300.485 2323.96 305.524C2322.42 310.563 2319.9 315.249 2316.55 319.313C2313.19 323.377 2309.07 326.74 2304.42 329.209H2304.6Z" fill="#EBEBEB"/>
<path d="M97.712 729.361L127.254 712.227L122.011 703.142C121.259 701.835 120.889 700.343 120.941 698.835C120.993 697.328 121.466 695.865 122.306 694.612C123.241 693.184 124.091 691.707 124.854 690.181C125.539 688.813 126.595 687.666 127.901 686.869C129.207 686.072 130.71 685.659 132.24 685.676H142.727V651.406H132.24C130.71 651.423 129.207 651.01 127.901 650.213C126.595 649.416 125.539 648.269 124.854 646.901C124.091 645.375 123.241 643.898 122.306 642.47C121.466 641.217 120.993 639.754 120.941 638.247C120.889 636.739 121.259 635.247 122.011 633.94L127.254 624.855L97.712 607.721L92.4682 616.842C91.7262 618.124 90.6431 619.176 89.3393 619.88C88.0355 620.584 86.562 620.913 85.0826 620.83H79.8757C78.4013 620.908 76.9335 620.582 75.6316 619.885C74.3296 619.189 73.2432 618.149 72.4902 616.879L67.2095 607.721L37.6671 624.855L42.9109 633.976C43.662 635.284 44.0324 636.776 43.9802 638.284C43.928 639.791 43.4553 641.254 42.6154 642.507C41.6874 643.925 40.8368 645.391 40.0674 646.901C39.3823 648.269 38.3266 649.416 37.0207 650.213C35.7148 651.01 34.2114 651.423 32.6818 651.406H22.0835V685.676H32.571C34.1006 685.659 35.604 686.072 36.9099 686.869C38.2158 687.666 39.2715 688.813 39.9566 690.181C40.726 691.69 41.5766 693.157 42.5047 694.575C43.3437 695.835 43.8156 697.304 43.8678 698.817C43.92 700.33 43.5503 701.828 42.8001 703.142L37.5563 712.227L67.0987 729.361L72.3794 720.24C73.1307 718.966 74.2157 717.921 75.5172 717.218C76.8188 716.516 78.2875 716.181 79.765 716.252C80.5774 716.252 81.4267 716.252 82.2761 716.252C83.1254 716.252 83.9748 716.252 84.8241 716.252C86.301 716.185 87.7681 716.521 89.0689 717.224C90.3697 717.926 91.4553 718.969 92.2097 720.24L97.712 729.361ZM82.2761 696.606C76.7269 696.599 71.3044 694.947 66.6939 691.858C62.0835 688.77 58.492 684.384 56.3735 679.256C54.255 674.127 53.7044 668.485 54.7915 663.043C55.8786 657.601 58.5545 652.604 62.4809 648.683C66.4074 644.762 71.4082 642.092 76.8513 641.012C82.2944 639.932 87.9355 640.49 93.0616 642.616C98.1877 644.741 102.569 648.338 105.651 652.953C108.733 657.567 110.378 662.992 110.378 668.541C110.383 672.231 109.659 675.886 108.248 679.295C106.837 682.705 104.767 685.803 102.156 688.41C99.5449 691.018 96.4448 693.084 93.0333 694.49C89.6218 695.897 85.9661 696.616 82.2761 696.606V696.606Z" fill="#EBEBEB"/>
<path d="M2194.85 390.103L2177.75 360.561L2168.71 365.694C2167.39 366.444 2165.89 366.814 2164.38 366.762C2162.87 366.71 2161.4 366.238 2160.14 365.399C2158.71 364.463 2157.23 363.612 2155.71 362.851C2154.34 362.166 2153.19 361.11 2152.39 359.804C2151.6 358.498 2151.18 356.995 2151.2 355.465V344.978H2117.01V355.465C2117.02 356.995 2116.61 358.498 2115.81 359.804C2115.02 361.11 2113.87 362.166 2112.5 362.851C2110.97 363.62 2109.48 364.47 2108.03 365.399C2106.78 366.239 2105.32 366.711 2103.81 366.763C2102.3 366.816 2100.81 366.445 2099.5 365.694L2090.42 360.45L2073.32 389.993L2082.44 395.236C2083.74 396.012 2084.79 397.128 2085.5 398.463C2086.2 399.798 2086.52 401.301 2086.43 402.807C2086.43 403.656 2086.43 404.505 2086.43 405.318C2086.43 406.13 2086.43 407.016 2086.43 407.866C2086.5 409.344 2086.17 410.814 2085.47 412.117C2084.77 413.419 2083.72 414.503 2082.44 415.251L2073.32 420.532L2090.42 450.074L2099.54 444.831C2100.85 444.08 2102.34 443.709 2103.85 443.761C2105.35 443.814 2106.82 444.286 2108.07 445.126C2109.52 446.062 2111 446.911 2112.5 447.674C2113.87 448.359 2115.02 449.415 2115.81 450.721C2116.61 452.027 2117.02 453.53 2117.01 455.06V465.547H2151.24V455.06C2151.22 453.53 2151.64 452.027 2152.43 450.721C2153.23 449.415 2154.38 448.359 2155.74 447.674C2157.27 446.886 2158.75 446.037 2160.17 445.126C2161.43 444.286 2162.89 443.814 2164.4 443.761C2165.91 443.709 2167.4 444.08 2168.71 444.831L2177.83 450.074L2194.92 420.532L2185.8 415.288C2184.54 414.532 2183.5 413.445 2182.8 412.144C2182.11 410.843 2181.78 409.377 2181.85 407.903C2181.85 407.053 2181.85 406.204 2181.85 405.355C2181.85 404.505 2181.85 403.693 2181.85 402.844C2181.75 401.337 2182.08 399.833 2182.78 398.497C2183.48 397.161 2184.54 396.046 2185.84 395.273L2194.85 390.103ZM2162.1 405.281C2162.1 410.833 2160.45 416.261 2157.36 420.877C2154.28 425.493 2149.89 429.09 2144.76 431.213C2139.63 433.336 2133.99 433.89 2128.54 432.804C2123.1 431.718 2118.1 429.042 2114.17 425.113C2110.25 421.184 2107.58 416.18 2106.5 410.733C2105.42 405.287 2105.98 399.643 2108.11 394.515C2110.24 389.388 2113.84 385.007 2118.46 381.928C2123.08 378.848 2128.51 377.208 2134.07 377.216C2137.75 377.216 2141.4 377.942 2144.8 379.353C2148.2 380.764 2151.3 382.831 2153.9 385.438C2156.5 388.045 2158.57 391.139 2159.97 394.544C2161.38 397.948 2162.1 401.597 2162.1 405.281V405.281Z" fill="#EBEBEB"/>
<path d="M176.442 992.694C152.845 944.208 111.56 919.318 65.0306 933.093C18.5014 946.867 11.3004 1011.71 46.0127 1028.11C80.725 1044.5 115.511 996.646 133.975 986.823C152.439 977 176.442 992.694 176.442 992.694Z" fill="#2588FD"/>
<path d="M199.264 1121.68C199.264 1115.85 198.931 1109.98 198.71 1104.14C198.316 1092.47 197.897 1080.8 197.454 1069.14C196.753 1047.83 194.389 1026.93 185.674 1007.21C177.867 989.37 164.821 974.327 148.266 964.076C142.09 960.305 135.415 957.421 128.436 955.508C122.174 949.15 114.19 944.761 105.467 942.879C94.693 940.689 83.6177 940.414 72.7485 942.067C72.6833 942.089 72.6268 942.132 72.5869 942.188C72.5469 942.244 72.5254 942.311 72.5254 942.38C72.5254 942.449 72.5469 942.517 72.5869 942.573C72.6268 942.629 72.6833 942.672 72.7485 942.694C83.1057 941.346 93.6281 942.087 103.694 944.873C108.01 946.069 112.192 947.702 116.176 949.748C118.749 951.087 121.218 952.618 123.561 954.327C110.742 951.489 97.3573 952.715 85.2671 957.835C82.7209 957.284 80.1149 957.061 77.5122 957.17C74.1091 957.279 70.7284 957.762 67.4309 958.61C60.6996 960.512 54.2627 963.333 48.3022 966.993C47.9699 967.178 48.3022 967.695 48.6346 967.51C54.4944 964.307 60.7706 961.933 67.2832 960.457C70.4445 959.752 73.6537 959.283 76.8845 959.053C78.683 959.009 80.4826 959.058 82.2759 959.201C69.0302 965.334 58.382 975.956 52.2166 989.187C52.2166 989.556 52.5859 989.851 52.7336 989.482C56.4046 981.811 61.7569 975.065 68.3929 969.746C75.0289 964.427 82.7781 960.671 91.0648 958.758C92.0988 958.5 93.1328 958.352 94.2037 958.167C93.8276 959.725 93.544 961.303 93.3543 962.894C93.0589 965.257 92.6527 967.584 92.1726 969.91C91.2368 974.721 90.0035 979.469 88.4798 984.127C86.8967 988.824 85.0094 993.413 82.8299 997.865C80.7458 1002.59 78.1052 1007.06 74.9642 1011.16C74.6688 1011.49 75.2227 1011.9 75.4443 1011.53C78.2508 1007.13 81.5005 1003.11 84.0485 998.566C86.526 994.234 88.662 989.715 90.437 985.051C92.2182 980.337 93.6017 975.483 94.573 970.538C95.0899 967.916 95.4962 965.294 95.7916 962.635C96.1105 961.056 96.2099 959.441 96.087 957.835C101.562 956.992 107.124 956.868 112.631 957.466C110.563 969.061 108.347 981.099 101.848 991.144C101.626 991.476 102.217 991.809 102.402 991.439C105.429 986.11 108.094 980.583 110.378 974.895C112.53 969.382 113.873 963.585 114.366 957.687C123.978 958.962 133.255 962.071 141.693 966.845C157.584 976.09 170.274 989.965 178.067 1006.62C186.251 1024.56 190.831 1043.93 191.546 1063.63C193.097 1088.45 193.429 1113.38 195.903 1138.08C195.903 1139.7 198.599 1140.26 198.931 1138.41C199.569 1132.86 199.681 1127.26 199.264 1121.68V1121.68Z" fill="#263238"/>
<path d="M144.757 960.236C143.188 958.354 141.375 956.69 139.366 955.287C137.446 953.7 135.451 952.149 133.384 950.745C129.305 947.896 124.772 945.761 119.979 944.431C119.609 944.431 119.462 944.948 119.979 945.022C124.77 946.33 129.227 948.647 133.051 951.816C135.045 953.256 136.744 954.807 138.775 956.432C140.41 958.155 142.23 959.69 144.203 961.011C144.306 961.085 144.434 961.114 144.559 961.094C144.683 961.073 144.795 961.003 144.868 960.9C144.942 960.798 144.971 960.67 144.95 960.545C144.93 960.421 144.86 960.309 144.757 960.236V960.236Z" fill="#263238"/>
<path d="M69.462 977.666C65.5526 982.206 61.9386 986.992 58.6421 991.994C55.3987 997.01 52.6999 1002.36 50.5918 1007.95C50.5918 1008.13 50.5918 1008.21 50.8503 1007.95C56.2462 997.387 62.6261 987.36 69.9051 977.998C70.1636 977.961 69.6836 977.666 69.462 977.666Z" fill="#263238"/>
<path d="M120.202 973.013C119.705 976.046 118.811 979.001 117.543 981.802C116.243 984.499 114.737 987.092 113.038 989.556C113.038 989.556 113.038 989.889 113.333 989.778C117.381 985.089 119.95 979.307 120.719 973.16C120.866 972.791 120.275 972.643 120.202 973.013Z" fill="#263238"/>
<path d="M195.977 993.913C195.977 993.913 229.212 951.926 293.873 966.808C355.136 980.952 383.423 1093.32 321.495 1106.76C259.567 1120.21 270.497 1016.22 247.934 998.566C231.354 985.641 207.535 988.411 195.977 993.913Z" fill="#2588FD"/>
<path d="M343.652 1028.18C339.46 1024.48 335.018 1021.08 330.358 1017.99C325.998 1014.99 321.237 1012.61 316.215 1010.94C313.704 1007.11 310.889 1003.49 307.795 1000.12C302.123 994 295.563 988.772 288.334 984.607H290.254C293.661 984.423 297.076 984.423 300.483 984.607C307.363 985.039 314.107 986.716 320.387 989.556C320.757 989.556 321.015 989.15 320.646 989.002C314.273 986.259 307.607 984.252 300.779 983.02C297.451 982.428 294.077 982.132 290.697 982.133C288.888 982.133 287.005 982.133 285.306 982.466H284.272C278.395 979.498 272.201 977.206 265.808 975.634L267.617 975.154C270.776 974.457 273.968 973.927 277.182 973.566C283.599 972.888 290.075 973.025 296.458 973.972C296.864 973.972 296.975 973.418 296.458 973.381C289.99 972.606 283.47 972.347 276.96 972.606C271.498 972.74 266.064 973.446 260.749 974.711C256.869 973.996 252.946 973.54 249.006 973.344C226.517 972.421 201.996 980.73 188.148 999.194C174.3 1017.66 171.605 1042.36 169.167 1064.7C165.391 1095.78 164.562 1127.15 166.693 1158.39C166.693 1160.24 169.426 1159.9 169.5 1158.17C170.349 1131.65 171.272 1105.18 173.82 1078.77C174.965 1066.51 176.295 1054.25 178.326 1042.14C179.802 1031.72 182.787 1021.57 187.188 1012.01C191.965 1002.21 199.55 994.063 208.976 988.596C218.418 983.204 228.934 979.963 239.774 979.105C249.51 978.306 259.311 979.231 268.725 981.838C268.432 983.722 268.432 985.64 268.725 987.525C268.95 989.918 269.42 992.281 270.129 994.578C270.843 996.733 271.745 998.821 272.824 1000.82C274.043 1003.03 275.52 1005.03 276.886 1007.13C276.886 1007.47 277.625 1007.13 277.366 1006.76C274.72 1002.99 273.011 998.631 272.381 994.061C271.973 991.89 271.714 989.694 271.606 987.488C271.606 985.826 271.606 984.164 271.606 982.502C281.839 985.619 291.397 990.63 299.782 997.274C301.333 998.529 302.847 999.859 304.324 1001.22C302.191 1003.18 300.35 1005.43 298.858 1007.91C296.509 1011.17 294.469 1014.64 292.765 1018.29C289.78 1025.46 287.768 1033 286.783 1040.7C286.806 1040.77 286.848 1040.82 286.904 1040.86C286.961 1040.9 287.028 1040.92 287.097 1040.92C287.166 1040.92 287.233 1040.9 287.289 1040.86C287.346 1040.82 287.388 1040.77 287.411 1040.7C288.622 1033.25 291.121 1026.06 294.796 1019.47C296.51 1016.2 298.422 1013.05 300.52 1010.01C301.628 1008.46 302.736 1006.91 303.918 1005.43C304.545 1004.66 305.247 1003.85 305.838 1002.96C313.42 1010.42 319.61 1019.17 324.117 1028.81V1028.81C321.057 1032.02 318.505 1035.68 316.547 1039.67C314.229 1043.82 312.217 1048.14 310.528 1052.59C307.398 1061.17 304.82 1069.94 302.81 1078.85C302.832 1078.91 302.875 1078.97 302.931 1079.01C302.987 1079.05 303.055 1079.07 303.124 1079.07C303.193 1079.07 303.26 1079.05 303.316 1079.01C303.372 1078.97 303.415 1078.91 303.438 1078.85C305.407 1069.89 308.47 1061.21 312.559 1053C314.479 1048.97 316.547 1044.98 318.689 1041.07C320.91 1037.43 322.931 1033.67 324.745 1029.81C329.047 1039.21 331.552 1049.33 332.131 1059.65C332.131 1060.05 332.758 1060.01 332.758 1059.65C331.568 1043.45 326.611 1027.76 318.283 1013.82C322.197 1015.48 326.148 1017.1 329.952 1019.14C334.789 1021.71 339.291 1024.87 343.357 1028.55C343.541 1028.92 343.947 1028.44 343.652 1028.18Z" fill="#263238"/>
<path d="M337.079 1014.78C334.54 1012.32 331.653 1010.26 328.512 1008.65C325.328 1007.22 322.03 1006.06 318.652 1005.18C318.283 1005.18 318.135 1005.69 318.652 1005.77C321.975 1006.64 325.167 1007.96 328.143 1009.68C331.202 1011.26 334.14 1013.06 336.931 1015.07C337.079 1015.22 337.411 1014.92 337.079 1014.78Z" fill="#263238"/>
<path d="M227.736 937.821C227.736 937.821 233.903 862.414 289.959 838.115C336.784 817.694 363.594 870.317 330.58 902.518C303.844 928.441 260.786 916.661 227.736 937.821Z" fill="#2588FD"/>
<path d="M320.128 852.553C311.596 856.004 303.274 859.95 295.202 864.37C288.474 868.24 281.999 872.532 275.814 877.221C276.738 875.338 277.55 873.307 278.51 871.461C279.953 868.538 281.543 865.691 283.274 862.93C286.71 857.224 290.854 851.976 295.608 847.31C295.903 847.014 295.608 846.608 295.165 846.867C290.44 851.564 286.094 856.626 282.166 862.007C280.226 864.742 278.45 867.591 276.848 870.537C275.207 873.238 273.963 876.16 273.156 879.215C272.934 879.4 272.712 879.511 272.528 879.696C262.741 887.495 253.771 896.267 245.755 905.877C245.755 905.139 246.051 904.4 246.235 903.736C247.306 900.043 248.451 896.35 249.633 892.657C252.031 884.858 255.445 877.409 259.788 870.501C260.009 870.168 259.455 869.873 259.234 870.205C254.824 877.074 250.9 884.243 247.491 891.66C246.007 895.264 244.773 898.965 243.798 902.739C243.001 905.212 242.396 907.743 241.988 910.309C239.551 913.411 237.151 916.55 234.861 919.762C210.821 954.031 198.709 995.465 195.828 1036.93C194.973 1049.31 194.763 1061.72 195.201 1074.12C195.278 1086.61 196.377 1099.07 198.487 1111.38C198.487 1112.16 199.854 1111.94 199.854 1111.16C199.558 1100.27 198.45 1089.41 198.229 1078.52C198.007 1067.62 198.229 1056.65 199.263 1045.76C201.033 1023.99 205.143 1002.47 211.523 981.58C218.04 960.198 227.644 939.883 240.031 921.276C242.395 920.796 244.721 920.169 247.048 919.541C249.374 918.913 252.661 918.101 255.43 917.325C260.82 915.96 266.055 914.042 271.051 911.601C271.085 911.582 271.114 911.556 271.138 911.525C271.162 911.494 271.18 911.459 271.19 911.421C271.201 911.383 271.203 911.344 271.198 911.305C271.193 911.266 271.181 911.229 271.162 911.195C271.142 911.161 271.116 911.131 271.085 911.107C271.054 911.083 271.019 911.066 270.981 911.056C270.944 911.045 270.904 911.043 270.865 911.047C270.827 911.052 270.789 911.065 270.755 911.084C265.799 913.766 260.434 915.613 254.876 916.55C250.519 917.436 245.94 917.99 241.545 918.987C245.607 913.078 249.928 907.355 254.581 901.852C265.274 902.826 276.054 902.027 286.487 899.489C292.031 898.143 297.483 896.441 302.809 894.393C308.422 892.251 313.887 889.445 319.279 887.007C319.722 886.823 319.279 886.195 319.057 886.416C309.014 891.9 298.049 895.493 286.708 897.015C276.704 898.605 266.594 899.444 256.464 899.526C260.452 894.947 264.551 890.479 268.946 886.306C283.717 872.273 301.147 859.385 320.645 852.664C320.682 853.034 320.497 852.406 320.128 852.553Z" fill="#263238"/>
<path d="M274.485 852.811C271.958 855.99 269.662 859.347 267.617 862.856C265.53 866.558 263.87 870.485 262.668 874.562H262.89C264.773 870.869 266.361 867.176 268.245 863.484C270.106 859.86 272.347 856.443 274.929 853.292C275.187 852.922 274.744 852.479 274.485 852.811Z" fill="#263238"/>
<path d="M184.123 924.268C183.791 927.517 175.667 896.867 128.251 869.688C85.1933 844.984 33.7896 780.692 75.9983 740.108C110.083 707.353 199.855 778.772 184.123 924.268Z" fill="#2588FD"/>
<path d="M216.767 1099.93C216.116 1068.04 213.65 1036.2 209.382 1004.59C205.643 975.543 198.937 946.959 189.367 919.283C185.674 909.313 181.981 899.49 177.439 889.741C177.736 885.98 177.736 882.202 177.439 878.441C177.181 873.603 176.737 868.803 176.294 864.002C175.851 859.201 175.371 854.364 174.817 849.563C174.263 844.763 173.192 839.962 173.008 835.161C173.008 834.755 172.306 834.829 172.417 835.161C173.353 840.197 173.921 845.294 174.116 850.413C174.485 855.065 174.743 859.718 174.891 864.408C175.039 869.098 174.891 873.714 174.891 878.404C174.891 880.066 174.891 881.875 174.891 883.648C170.423 874.231 165.659 864.962 160.489 855.915C163.702 836.269 159.529 815.737 155.504 796.498C155.504 796.128 154.839 796.313 154.913 796.682C156.882 806.721 157.933 816.918 158.052 827.148C158.052 835.235 157.83 843.285 157.83 851.373C156.686 849.415 155.541 847.495 154.359 845.575C148.229 835.531 141.668 825.683 134.677 816.033C135.25 811.372 135.1 806.652 134.233 802.037C133.444 796.868 132.296 791.759 130.799 786.749C129.299 781.74 127.549 776.811 125.555 771.978C123.487 766.992 120.755 762.266 118.761 757.206C118.761 756.8 117.985 757.206 118.207 757.465C120.735 762.151 122.729 767.105 124.152 772.236C125.718 777.084 127.012 782.015 128.03 787.007C129.027 792.029 129.839 797.015 130.541 802.074C131.021 805.397 131.316 808.869 131.87 812.229C121.717 798.585 110.611 785.677 98.6349 773.602C98.3764 773.307 97.9702 773.602 98.2286 774.046C116.226 794.361 132.297 816.304 146.235 839.593C146.752 840.479 147.269 841.365 147.749 842.251C145.164 840.627 142.173 839.297 139.699 837.931C135.12 835.383 130.504 832.872 125.888 830.545L112.446 823.16C110.156 821.867 107.867 820.538 105.54 819.467C102.693 818.27 99.9508 816.837 97.3424 815.183C97.01 814.925 96.6038 815.479 96.9731 815.7C101.552 818.211 105.577 821.941 110.009 824.748C114.44 827.554 118.945 830.287 123.524 832.835C131.944 837.562 141.102 840.922 149.374 845.797C155.135 855.878 160.452 866.218 165.327 876.742C160.305 873.492 155.135 870.464 149.928 867.51C146.567 865.627 143.207 863.817 139.81 862.008C136.423 860.431 133.226 858.473 130.282 856.173C129.987 855.915 129.58 856.173 129.839 856.616C135.366 861.595 141.495 865.863 148.081 869.32C154.175 873.012 160.305 876.299 166.545 879.401C171.617 890.504 176.184 901.816 180.246 913.338C200.224 969.837 207.535 1029.81 211.044 1089.41C212.114 1107.17 212.631 1124.9 212.853 1142.7C213.075 1160.5 212.151 1178.22 212.188 1195.95C212.188 1196.5 213.038 1196.61 213.112 1195.95C215.253 1180.22 215.623 1164.19 216.324 1148.31C217.026 1132.43 217.137 1116.07 216.767 1099.93Z" fill="#263238"/>
<path d="M130.614 844.134C121.965 840.298 113.555 835.945 105.429 831.098C97.1919 826.462 89.2045 821.396 81.4997 815.921C81.4997 815.921 81.2412 815.921 81.4997 816.142C88.7712 822.01 96.433 827.377 104.432 832.206C112.775 836.921 121.409 841.102 130.281 844.725C130.688 844.725 130.983 844.282 130.614 844.134Z" fill="#263238"/>
<path d="M144.352 780.25C143.651 777.48 142.802 774.784 141.878 772.089C141.904 772.044 141.918 771.993 141.918 771.941C141.918 771.889 141.904 771.838 141.878 771.793C141.287 770.242 140.66 768.728 140.032 767.214L139.81 766.66C139.81 766.365 139.552 766.106 139.441 765.811C139.33 765.516 139.256 765.811 139.441 765.811C139.626 765.811 139.736 766.845 139.921 767.399C139.978 767.686 140.052 767.97 140.143 768.248C143.273 778.782 145.618 789.532 147.159 800.412C147.159 800.745 147.713 800.745 147.713 800.412C147.238 793.6 146.113 786.848 144.352 780.25V780.25Z" fill="#263238"/>
<path d="M266.879 1111.38L263.482 1151.49L253.142 1273.79H142.173L131.833 1151.49L128.436 1111.38H266.879Z" fill="#37474F"/>
<path d="M266.879 1111.38L263.482 1151.49H131.833L128.436 1111.38H266.879Z" fill="#263238"/>
<path d="M277.773 1095.32H117.579V1133.8H277.773V1095.32Z" fill="#37474F"/>
<path d="M0 1273.79L299.375 1272.9L598.75 1272.57L1197.5 1271.94L1796.25 1272.57L2095.62 1272.9L2395 1273.79L2095.62 1274.71L1796.25 1275.01L1197.5 1275.64L598.75 1275.01L299.375 1274.68L0 1273.79Z" fill="#263238"/>
<path d="M2065.12 198.78H323.637V1363.71H2065.12V198.78Z" fill="#EBEBEB"/>
<path d="M2052.46 212.998H336.303V1349.49H2052.46V212.998Z" fill="#263238"/>
<path d="M2291.93 1451.04H96.8252V1530.99H2291.93V1451.04Z" fill="#DBDBDB"/>
<path d="M96.8252 1451.04L323.674 1363.71H2065.12L2291.97 1451.04H96.8252Z" fill="#EBEBEB"/>
<path d="M343.911 1420.06L490.294 1363.71H1898.5L2044.89 1420.06H343.911Z" fill="#263238"/>
<path d="M1955.52 299.335H433.313V1263.15H1955.52V299.335Z" fill="white"/>
<path d="M1955.52 299.335H432.021V336.411H1955.52V299.335Z" fill="#455A64"/>
<path d="M461.489 317.873C461.489 319.691 460.949 321.469 459.939 322.981C458.929 324.493 457.493 325.672 455.812 326.368C454.132 327.064 452.283 327.246 450.5 326.891C448.716 326.536 447.078 325.661 445.792 324.375C444.506 323.089 443.63 321.45 443.275 319.667C442.921 317.883 443.103 316.034 443.799 314.354C444.495 312.674 445.673 311.238 447.185 310.227C448.697 309.217 450.475 308.678 452.294 308.678C454.732 308.678 457.071 309.647 458.796 311.371C460.52 313.095 461.489 315.434 461.489 317.873Z" fill="#C7C7C7"/>
<path d="M499.044 317.873C499.044 319.691 498.505 321.469 497.495 322.981C496.484 324.494 495.048 325.672 493.368 326.368C491.688 327.064 489.839 327.246 488.056 326.891C486.272 326.536 484.633 325.661 483.347 324.375C482.062 323.089 481.186 321.45 480.831 319.667C480.476 317.883 480.658 316.034 481.354 314.354C482.05 312.674 483.229 311.238 484.741 310.227C486.253 309.217 488.031 308.678 489.849 308.678C491.058 308.673 492.256 308.907 493.374 309.368C494.492 309.828 495.507 310.505 496.362 311.36C497.217 312.215 497.894 313.231 498.354 314.348C498.815 315.466 499.049 316.664 499.044 317.873V317.873Z" fill="white"/>
<path d="M536.49 317.873C536.49 319.691 535.95 321.469 534.94 322.981C533.93 324.494 532.494 325.672 530.813 326.368C529.133 327.064 527.285 327.246 525.501 326.891C523.717 326.536 522.079 325.661 520.793 324.375C519.507 323.089 518.631 321.45 518.276 319.667C517.922 317.883 518.104 316.034 518.8 314.354C519.495 312.674 520.674 311.238 522.186 310.227C523.698 309.217 525.476 308.678 527.295 308.678C528.504 308.673 529.701 308.907 530.819 309.368C531.937 309.828 532.953 310.505 533.807 311.36C534.662 312.215 535.339 313.231 535.8 314.348C536.26 315.466 536.495 316.664 536.49 317.873V317.873Z" fill="#2588FD"/>
<path d="M1955.52 336.41H1928.49V1263.12H1955.52V336.41Z" fill="#DBDBDB"/>
<path d="M1941.97 657.684C1940.12 657.684 1938.34 656.948 1937.03 655.639C1935.72 654.33 1934.99 652.555 1934.99 650.704V348.818C1934.99 346.967 1935.72 345.192 1937.03 343.883C1938.34 342.574 1940.12 341.839 1941.97 341.839V341.839C1943.82 341.839 1945.59 342.574 1946.9 343.883C1948.21 345.192 1948.95 346.967 1948.95 348.818V650.704C1948.95 652.555 1948.21 654.33 1946.9 655.639C1945.59 656.948 1943.82 657.684 1941.97 657.684V657.684Z" fill="#A6A6A6"/>
<path d="M1742.48 576.774H652.518V741.99H1742.48V576.774Z" fill="white"/>
<path d="M1744.33 743.8H650.672V574.929H1744.33V743.8ZM654.365 740.107H1740.64V578.622H654.365V740.107Z" fill="#DBDBDB"/>
<path d="M748.753 621.532C750.873 627.66 752.322 633.999 753.073 640.439C754.674 653.006 754.674 665.724 753.073 678.29C752.305 684.731 750.844 691.07 748.716 697.198C746.57 691.075 745.109 684.734 744.358 678.29C742.783 665.723 742.783 653.007 744.358 640.439C745.153 634 746.626 627.662 748.753 621.532V621.532Z" fill="#37474F"/>
<path d="M786.568 659.346C780.451 661.525 774.109 663.011 767.661 663.778C761.39 664.576 755.075 664.971 748.754 664.96C742.432 664.99 736.115 664.595 729.846 663.778C723.39 663.031 717.036 661.57 710.902 659.42C717.046 657.305 723.396 655.845 729.846 655.063C736.117 654.264 742.432 653.869 748.754 653.881C755.075 653.901 761.389 654.308 767.661 655.1C774.099 655.823 780.439 657.247 786.568 659.346V659.346Z" fill="#37474F"/>
<path d="M775.489 632.609C772.655 638.441 769.201 643.951 765.186 649.042C761.33 654.051 757.148 658.8 752.668 663.26C748.201 667.744 743.453 671.938 738.45 675.815C733.346 679.83 727.824 683.285 721.98 686.118C724.814 680.274 728.268 674.753 732.283 669.648C736.161 664.646 740.355 659.897 744.839 655.431C749.315 650.969 754.063 646.788 759.056 642.912C764.153 638.905 769.662 635.452 775.489 632.609V632.609Z" fill="#37474F"/>
<path d="M775.488 686.118C769.66 683.275 764.152 679.822 759.055 675.815C754.053 671.937 749.304 667.743 744.838 663.259C740.317 658.793 736.098 654.031 732.208 649.005C728.193 643.901 724.739 638.379 721.905 632.535C727.756 635.356 733.279 638.811 738.375 642.838C748.396 650.581 757.381 659.579 765.111 669.611C769.156 674.722 772.635 680.257 775.488 686.118V686.118Z" fill="#37474F"/>
<path d="M896.243 621.532C898.363 627.66 899.812 633.999 900.563 640.439C901.355 646.711 901.762 653.025 901.782 659.346C901.793 665.68 901.398 672.007 900.6 678.29C899.814 684.728 898.354 691.065 896.243 697.198C894.097 691.075 892.636 684.734 891.885 678.29C891.069 672.009 890.674 665.68 890.704 659.346C890.694 653.025 891.088 646.71 891.885 640.439C892.65 633.998 894.111 627.658 896.243 621.532V621.532Z" fill="#37474F"/>
<path d="M934.057 659.346C927.936 661.495 921.594 662.957 915.15 663.704C908.879 664.5 902.564 664.895 896.243 664.885C889.909 664.915 883.58 664.52 877.299 663.704C870.855 662.953 864.514 661.492 858.392 659.346C864.524 657.235 870.861 655.775 877.299 654.989C883.582 654.19 889.909 653.796 896.243 653.807C902.564 653.827 908.878 654.234 915.15 655.025C921.59 655.777 927.93 657.226 934.057 659.346V659.346Z" fill="#37474F"/>
<path d="M922.978 632.609C920.145 638.441 916.69 643.951 912.675 649.042C908.819 654.051 904.637 658.8 900.157 663.26C895.691 667.744 890.942 671.938 885.94 675.815C880.835 679.83 875.313 683.285 869.47 686.118C872.303 680.274 875.757 674.753 879.773 669.648C883.65 664.646 887.844 659.897 892.328 655.431C896.787 650.951 901.537 646.769 906.545 642.912C911.637 638.897 917.146 635.443 922.978 632.609Z" fill="#37474F"/>
<path d="M922.979 686.118C917.147 683.284 911.638 679.83 906.546 675.815C901.528 671.956 896.778 667.761 892.329 663.259C887.884 658.786 883.739 654.024 879.921 649.005C875.906 643.901 872.452 638.379 869.618 632.535C875.469 635.356 880.992 638.811 886.088 642.838C896.109 650.581 905.094 659.579 912.824 669.611C916.792 674.732 920.197 680.267 922.979 686.118V686.118Z" fill="#37474F"/>
<path d="M1043.7 621.532C1045.84 627.653 1047.31 633.995 1048.05 640.439C1048.85 646.71 1049.24 653.025 1049.23 659.346C1049.26 665.68 1048.87 672.009 1048.05 678.29C1047.3 684.734 1045.84 691.075 1043.7 697.198C1041.58 691.069 1040.13 684.73 1039.37 678.29C1038.56 672.008 1038.16 665.681 1038.16 659.346C1038.18 653.025 1038.58 646.711 1039.37 640.439C1040.13 633.999 1041.58 627.66 1043.7 621.532V621.532Z" fill="#37474F"/>
<path d="M1081.55 659.346C1075.42 661.492 1069.08 662.953 1062.64 663.703C1056.36 664.502 1050.03 664.896 1043.7 664.885C1037.37 664.914 1031.06 664.519 1024.79 663.703C1018.34 662.957 1012 661.495 1005.88 659.346C1012.01 657.231 1018.35 655.771 1024.79 654.988C1031.06 654.192 1037.38 653.797 1043.7 653.807C1050.03 653.826 1056.36 654.233 1062.64 655.025C1069.08 655.781 1075.42 657.229 1081.55 659.346V659.346Z" fill="#37474F"/>
<path d="M1070.47 632.609C1067.63 638.441 1064.18 643.951 1060.16 649.042C1056.31 654.051 1052.13 658.8 1047.65 663.26C1043.18 667.744 1038.43 671.938 1033.43 675.815C1028.32 679.83 1022.8 683.285 1016.96 686.118C1019.78 680.267 1023.23 674.744 1027.26 669.648C1031.14 664.655 1035.32 659.907 1039.78 655.431C1044.26 650.959 1049.02 646.778 1054.03 642.912C1059.13 638.897 1064.64 635.443 1070.47 632.609Z" fill="#37474F"/>
<path d="M1070.47 686.118C1064.64 683.284 1059.13 679.83 1054.03 675.815C1049.01 671.947 1044.25 667.753 1039.78 663.259C1035.31 658.78 1031.13 654.019 1027.26 649.005C1023.23 643.909 1019.78 638.386 1016.96 632.535C1022.81 635.356 1028.33 638.811 1033.43 642.838C1043.45 650.581 1052.44 659.579 1060.16 669.611C1064.18 674.726 1067.64 680.26 1070.47 686.118V686.118Z" fill="#37474F"/>
<path d="M1191.19 621.532C1193.32 627.658 1194.78 633.998 1195.54 640.439C1197.12 653.007 1197.12 665.723 1195.54 678.29C1194.79 684.734 1193.33 691.075 1191.19 697.198C1189.06 691.07 1187.6 684.731 1186.83 678.29C1186.03 672.007 1185.64 665.68 1185.65 659.346C1185.67 653.025 1186.08 646.711 1186.87 640.439C1187.62 633.999 1189.07 627.66 1191.19 621.532V621.532Z" fill="#37474F"/>
<path d="M1229.04 659.346C1222.91 661.492 1216.57 662.953 1210.13 663.703C1203.85 664.502 1197.52 664.896 1191.19 664.885C1184.86 664.914 1178.55 664.519 1172.28 663.703C1165.83 662.957 1159.49 661.495 1153.37 659.346C1159.5 657.231 1165.84 655.771 1172.28 654.988C1178.55 654.192 1184.86 653.797 1191.19 653.807C1197.52 653.826 1203.85 654.233 1210.13 655.025C1216.57 655.781 1222.91 657.229 1229.04 659.346V659.346Z" fill="#37474F"/>
<path d="M1217.96 632.609C1215.13 638.441 1211.67 643.951 1207.66 649.042C1203.79 654.051 1199.59 658.801 1195.1 663.26C1190.65 667.762 1185.9 671.956 1180.88 675.815C1175.79 679.83 1170.28 683.284 1164.45 686.118C1167.26 680.259 1170.71 674.734 1174.75 669.648C1178.62 664.646 1182.8 659.898 1187.27 655.431C1191.75 650.969 1196.5 646.788 1201.49 642.912C1206.6 638.905 1212.12 635.451 1217.96 632.609V632.609Z" fill="#37474F"/>
<path d="M1217.96 686.118C1212.12 683.276 1206.6 679.822 1201.49 675.815C1196.49 671.938 1191.74 667.744 1187.27 663.26C1182.79 658.814 1178.61 654.077 1174.75 649.079C1170.71 643.993 1167.26 638.468 1164.45 632.609C1170.29 635.429 1175.8 638.884 1180.88 642.912C1185.9 646.758 1190.65 650.941 1195.1 655.431C1199.58 659.911 1203.78 664.672 1207.66 669.685C1211.67 674.777 1215.13 680.286 1217.96 686.118V686.118Z" fill="#37474F"/>
<path d="M1338.68 621.532C1340.79 627.663 1342.25 634.001 1343.03 640.439C1344.61 653.007 1344.61 665.723 1343.03 678.29C1342.28 684.734 1340.82 691.075 1338.68 697.198C1336.55 691.07 1335.09 684.731 1334.32 678.29C1332.72 665.724 1332.72 653.006 1334.32 640.439C1335.08 633.998 1336.54 627.658 1338.68 621.532V621.532Z" fill="#37474F"/>
<path d="M1376.53 659.346C1370.39 661.496 1364.04 662.957 1357.58 663.704C1351.31 664.503 1345 664.898 1338.68 664.885C1332.36 664.915 1326.04 664.52 1319.77 663.704C1313.34 662.958 1307.01 661.497 1300.9 659.346C1307.03 657.227 1313.37 655.767 1319.81 654.989C1326.08 654.19 1332.39 653.796 1338.71 653.807C1345.03 653.825 1351.35 654.232 1357.62 655.025C1364.06 655.78 1370.4 657.228 1376.53 659.346V659.346Z" fill="#37474F"/>
<path d="M1365.45 632.609C1362.62 638.45 1359.15 643.961 1355.11 649.042C1347.35 659.051 1338.37 668.045 1328.37 675.815C1323.28 679.83 1317.77 683.284 1311.94 686.118C1314.75 680.259 1318.2 674.734 1322.24 669.648C1326.11 664.646 1330.29 659.898 1334.76 655.431C1339.24 650.969 1343.99 646.788 1348.98 642.912C1354.08 638.897 1359.61 635.443 1365.45 632.609V632.609Z" fill="#37474F"/>
<path d="M1365.45 686.118C1359.61 683.285 1354.08 679.83 1348.98 675.815C1343.98 671.938 1339.23 667.744 1334.76 663.26C1330.28 658.814 1326.1 654.077 1322.24 649.079C1318.2 643.993 1314.75 638.468 1311.94 632.609C1317.78 635.429 1323.29 638.884 1328.37 642.912C1333.39 646.758 1338.14 650.941 1342.59 655.431C1347.07 659.902 1351.25 664.664 1355.11 669.685C1359.15 674.766 1362.62 680.277 1365.45 686.118V686.118Z" fill="#37474F"/>
<path d="M1486.17 621.532C1488.29 627.66 1489.74 633.999 1490.49 640.439C1492.09 653.006 1492.09 665.724 1490.49 678.29C1489.72 684.731 1488.26 691.07 1486.13 697.198C1483.98 691.075 1482.52 684.734 1481.77 678.29C1480.2 665.723 1480.2 653.007 1481.77 640.439C1482.57 634 1484.04 627.662 1486.17 621.532V621.532Z" fill="#37474F"/>
<path d="M1523.98 659.346C1517.86 661.5 1511.52 662.961 1505.07 663.704C1498.8 664.502 1492.49 664.896 1486.17 664.885C1479.85 664.916 1473.53 664.521 1467.26 663.704C1460.8 662.957 1454.45 661.496 1448.32 659.346C1454.46 657.231 1460.81 655.77 1467.26 654.989C1473.53 654.189 1479.85 653.795 1486.17 653.807C1492.49 653.827 1498.8 654.234 1505.07 655.026C1511.52 655.773 1517.86 657.222 1523.98 659.346V659.346Z" fill="#37474F"/>
<path d="M1512.9 632.609C1510.1 638.457 1506.64 643.969 1502.6 649.042C1498.75 654.06 1494.57 658.81 1490.08 663.26C1485.61 667.744 1480.87 671.938 1475.86 675.815C1470.77 679.822 1465.26 683.276 1459.43 686.118C1462.24 680.268 1465.68 674.745 1469.7 669.648C1477.47 659.65 1486.46 650.668 1496.47 642.912C1501.57 638.905 1507.08 635.452 1512.9 632.609V632.609Z" fill="#37474F"/>
<path d="M1512.9 686.118C1507.08 683.276 1501.57 679.822 1496.47 675.815C1486.48 668.033 1477.49 659.054 1469.7 649.079C1465.68 643.983 1462.24 638.459 1459.43 632.609C1465.27 635.438 1470.78 638.893 1475.86 642.912C1480.87 646.777 1485.61 650.959 1490.08 655.431C1494.56 659.902 1498.74 664.664 1502.6 669.685C1506.64 674.758 1510.1 680.271 1512.9 686.118V686.118Z" fill="#37474F"/>
<path d="M1383.88 625.963V827.073H1327.04V625.963C1327.04 549.485 1268.96 487.299 1197.5 487.299C1126.04 487.299 1067.96 549.485 1067.96 625.963V827.073H1011.12V625.963C1011.12 516.435 1094.73 427.438 1197.5 427.438C1300.27 427.438 1383.88 516.435 1383.88 625.963Z" fill="#455A64"/>
<path d="M1011.12 678.253L1067.96 680.542V827.073H1011.12V678.253Z" fill="#263238"/>
<path d="M1383.88 693.431V827.073H1327.04V691.104L1383.88 693.431Z" fill="#263238"/>
<path d="M1456.73 712.559H938.303V1182.91H1456.73V712.559Z" fill="#2588FD"/>
<path opacity="0.1" d="M1456.7 712.559H1197.5V1182.91H1456.7V712.559Z" fill="black"/>
<path d="M1219.44 964.961L1241.11 1067.88H1149.01L1170.73 964.961C1162.24 959.67 1155.7 951.758 1152.11 942.422C1148.51 933.085 1148.06 922.832 1150.81 913.214C1153.56 903.595 1159.37 895.135 1167.36 889.111C1175.35 883.088 1185.08 879.83 1195.08 879.83C1205.09 879.83 1214.82 883.088 1222.81 889.111C1230.79 895.135 1236.6 903.595 1239.36 913.214C1242.11 922.832 1241.65 933.085 1238.06 942.422C1234.46 951.758 1227.93 959.67 1219.44 964.961Z" fill="#263238"/>
<path d="M1046.91 964.775C1046.91 964.775 1019.8 1181.76 975.266 1230.66C921.795 1289.22 882.947 1280.66 861.381 1310.86C839.815 1280.62 801.003 1289.22 747.458 1230.62C702.923 1181.76 675.854 964.739 675.854 964.739C793.212 907.796 861.454 843.947 861.454 843.947C863.485 845.941 931.359 908.719 1046.91 964.775Z" fill="#EBEBEB"/>
<path d="M861.455 843.984V1310.83C839.889 1280.58 801.078 1289.19 747.532 1230.58C702.997 1181.73 675.929 964.702 675.929 964.702C793.212 907.796 861.455 843.947 861.455 843.947V843.984Z" fill="#DBDBDB"/>
<path d="M1018.14 982.28C1018.14 982.28 995.244 1165.55 957.615 1206.84C912.378 1256.4 879.586 1249.12 861.343 1274.64C843.101 1249.12 810.309 1256.4 765.109 1206.84C727.48 1165.55 704.621 982.28 704.621 982.28C803.773 934.273 861.343 880.174 861.343 880.174C861.343 880.174 918.988 934.126 1018.14 982.28Z" fill="#DBDBDB"/>
<path d="M704.659 982.279C704.659 982.279 727.555 1165.55 765.184 1206.84C810.347 1256.36 842.991 1249.12 861.455 1274.56V880.247C859.646 881.872 802.371 934.864 704.659 982.279Z" fill="#C7C7C7"/>
<path d="M912.768 1128.8C941.149 1100.42 941.149 1054.4 912.768 1026.02C884.387 997.64 838.372 997.64 809.991 1026.02C781.61 1054.4 781.61 1100.42 809.991 1128.8C838.372 1157.18 884.387 1157.18 912.768 1128.8Z" fill="#2588FD"/>
<path d="M853.108 1124.64L820.723 1090.96L832.724 1079.4L850.56 1097.97L889.039 1038.96L902.998 1048.05L853.108 1124.64Z" fill="white"/>
<path d="M610.666 1328.3L619.287 1284.16L1134.96 1384.86C1139.67 1385.78 1143.82 1388.53 1146.5 1392.51C1149.18 1396.49 1150.17 1401.38 1149.25 1406.09L1147.56 1414.71C1146.64 1419.42 1143.89 1423.57 1139.91 1426.25C1135.93 1428.93 1131.05 1429.92 1126.34 1429L610.666 1328.3V1328.3Z" fill="#2588FD"/>
<path opacity="0.1" d="M619.248 1284.11L610.62 1328.29L672.886 1340.45L681.514 1296.27L619.248 1284.11Z" fill="black"/>
<path d="M422.013 1227.81L406.836 1306.32C404.268 1319.48 404.318 1333.02 406.982 1346.16C409.646 1359.31 414.873 1371.8 422.364 1382.92C429.855 1394.04 439.463 1403.58 450.64 1410.99C461.817 1418.4 474.344 1423.53 487.505 1426.1C500.666 1428.67 514.205 1428.62 527.347 1425.95C540.489 1423.29 552.978 1418.06 564.1 1410.57C575.222 1403.08 584.76 1393.47 592.169 1382.29C599.578 1371.12 604.713 1358.59 607.281 1345.43L622.569 1267.11C627.779 1240.51 622.211 1212.93 607.09 1190.44C591.968 1167.95 568.532 1152.39 541.937 1147.18C515.342 1141.97 487.766 1147.54 465.276 1162.66C442.786 1177.78 427.224 1201.22 422.013 1227.81ZM590.368 1247.42C585.826 1270.72 565.478 1287.53 540.33 1291.55C562.118 1304.81 574.674 1327.96 570.094 1351.26C564.038 1382.43 529.658 1402 493.358 1394.91C457.058 1387.82 432.649 1356.77 438.742 1325.64C443.284 1302.33 463.631 1285.53 488.816 1281.32C466.992 1268.14 454.473 1244.91 459.015 1221.61C465.108 1190.41 499.414 1170.91 535.678 1178C571.941 1185.09 596.609 1216.26 590.516 1247.42H590.368Z" fill="#2588FD"/>
<path d="M623.122 1264.21L606.723 1348.19C605.839 1352.71 608.79 1357.09 613.314 1357.98L617.301 1358.76C621.825 1359.64 626.208 1356.69 627.091 1352.16L643.491 1268.19C644.374 1263.67 641.423 1259.28 636.899 1258.4L632.912 1257.62C628.389 1256.74 624.005 1259.69 623.122 1264.21Z" fill="#2588FD"/>
<path d="M643.491 1268.2L627.092 1352.17C626.208 1356.7 629.159 1361.08 633.683 1361.96L637.67 1362.74C642.194 1363.62 646.577 1360.67 647.461 1356.15L663.86 1272.17C664.743 1267.65 661.792 1263.27 657.268 1262.38L653.282 1261.61C648.758 1260.72 644.375 1263.67 643.491 1268.2Z" fill="#2588FD"/>
<path d="M1011.72 1341.85L1027.08 1344.84L1035.76 1300.23L1048.9 1302.78L1044.36 1326.04L1059.68 1329.03L1064.23 1305.77L1075.86 1308.02L1068.66 1344.8L1084.02 1347.83L1091.22 1311.05L1107.69 1314.26L1098.13 1363.38L1113.49 1366.37L1123.09 1317.25L1138.67 1320.32L1126.41 1383.1L989.189 1356.29L1001.41 1293.51L1020.39 1297.2L1011.72 1341.85Z" fill="#2588FD"/>
<path d="M1540.93 1111.9L1440.3 1193.14C1420.99 1208.58 1404.33 1222.46 1396.39 1230.47C1394.34 1232.16 1392.69 1234.28 1391.56 1236.68C1391.56 1236.68 1391.56 1236.68 1391.56 1236.9C1392.26 1245.73 1511.17 1403.67 1517.11 1407.77C1523.06 1411.86 1535.32 1395.1 1535.57 1385.31C1535.83 1375.53 1517.37 1294.65 1517.37 1294.65L1617.07 1212.45L1540.93 1111.9Z" fill="#C95F50"/>
<path d="M1460.83 1176.56L1440.19 1193.21C1420.88 1208.65 1404.22 1222.53 1396.28 1230.55C1394.43 1232.42 1392.81 1234.5 1391.45 1236.75C1391.45 1236.75 1391.45 1236.75 1391.45 1236.97C1392.15 1245.8 1511.05 1403.74 1517 1407.84C1522.95 1411.94 1535.21 1395.17 1535.46 1385.39C1535.72 1375.6 1517.26 1294.73 1517.26 1294.73L1538.46 1278.07L1460.83 1176.56Z" fill="#EBEBEB"/>
<path d="M1516.89 1407.95C1510.87 1403.85 1392 1245.95 1391.33 1237.05C1391 1233.69 1413.01 1214.89 1440.23 1193.25L1441.11 1192.55L1518.77 1293.58L1517.04 1294.84C1517.04 1294.84 1535.5 1375.64 1535.24 1385.5C1534.98 1395.36 1522.87 1412.09 1516.89 1407.95Z" fill="#2588FD"/>
<path d="M1521.65 1401.56C1502.27 1374.46 1421.54 1266.96 1400.31 1241.63C1400.31 1241.41 1400.01 1241.63 1400.31 1241.63C1418.77 1268.92 1500.53 1375.79 1521.39 1401.78C1521.69 1402.34 1522.1 1402.34 1521.65 1401.56Z" fill="#263238"/>
<path d="M1523.28 1303.63C1517.33 1291.7 1506.11 1280.07 1492.59 1277.78C1492.07 1277.78 1491.96 1278.41 1492.33 1278.7C1503.08 1286.23 1512.98 1294.9 1521.87 1304.55C1522.01 1304.7 1522.2 1304.8 1522.4 1304.83C1522.6 1304.85 1522.8 1304.81 1522.97 1304.69C1523.14 1304.58 1523.27 1304.41 1523.32 1304.22C1523.38 1304.02 1523.36 1303.81 1523.28 1303.63V1303.63Z" fill="#263238"/>
<path d="M1524.42 1314.63C1518.48 1302.67 1507.21 1291.07 1493.74 1288.78C1493.22 1288.78 1493.11 1289.45 1493.44 1289.71C1504.18 1297.24 1514.09 1305.91 1522.98 1315.56C1523.04 1315.65 1523.12 1315.73 1523.21 1315.8C1523.31 1315.86 1523.41 1315.91 1523.52 1315.93C1523.63 1315.95 1523.74 1315.96 1523.85 1315.94C1523.96 1315.92 1524.07 1315.88 1524.16 1315.82C1524.26 1315.75 1524.34 1315.68 1524.4 1315.58C1524.47 1315.49 1524.51 1315.39 1524.54 1315.28C1524.56 1315.17 1524.56 1315.06 1524.54 1314.94C1524.52 1314.83 1524.48 1314.73 1524.42 1314.63Z" fill="#263238"/>
<path d="M1525.53 1325.6C1519.62 1313.67 1508.36 1302.08 1494.88 1299.75C1494.36 1299.75 1494.22 1300.42 1494.59 1300.67C1505.32 1308.22 1515.22 1316.88 1524.13 1326.52C1524.19 1326.62 1524.27 1326.7 1524.36 1326.76C1524.45 1326.82 1524.55 1326.86 1524.66 1326.88C1524.77 1326.91 1524.88 1326.91 1524.99 1326.89C1525.1 1326.87 1525.2 1326.82 1525.29 1326.76C1525.38 1326.7 1525.46 1326.62 1525.52 1326.53C1525.59 1326.44 1525.63 1326.34 1525.65 1326.23C1525.67 1326.12 1525.67 1326.01 1525.65 1325.9C1525.63 1325.8 1525.59 1325.69 1525.53 1325.6V1325.6Z" fill="#263238"/>
<path d="M1595.21 1015.07C1588.09 1050.27 1442.11 1190.63 1442.11 1190.63L1543.88 1308.1C1543.88 1308.1 1751.12 1101.3 1740.3 1023.49C1730.89 955.878 1629.52 683.978 1629.52 683.978H1512.9C1512.9 683.978 1602.19 980.472 1595.21 1015.07Z" fill="#37474F"/>
<path d="M1595.21 1015.07C1588.09 1050.27 1442.11 1190.63 1442.11 1190.63L1543.88 1308.1C1543.88 1308.1 1751.12 1101.3 1740.3 1023.49C1730.89 955.878 1629.52 683.978 1629.52 683.978H1512.9C1512.9 683.978 1602.19 980.472 1595.21 1015.07Z" fill="#37474F"/>
<path d="M1555.44 1280.18C1541.93 1263.34 1546.06 1267.99 1532.36 1251.3C1525.64 1243.14 1481.51 1189.56 1473.9 1183.02C1473.9 1183.02 1473.46 1183.02 1473.57 1183.32C1478.67 1191.92 1523.72 1244.73 1530.59 1252.78C1544.62 1269.18 1540.78 1264.34 1554.96 1280.59C1555.26 1280.88 1555.7 1280.48 1555.44 1280.18Z" fill="#263238"/>
<path d="M1609.73 997.94C1608.03 989.151 1606.03 980.399 1604.3 971.647C1600.48 953.774 1596.46 935.962 1592.22 918.212C1583.8 882.983 1574.66 847.951 1564.79 813.115C1554.85 778.182 1544.33 743.285 1532.18 709.016C1530.7 704.769 1529.15 700.559 1527.6 696.349C1527.6 696.281 1527.57 696.215 1527.52 696.167C1527.47 696.118 1527.41 696.091 1527.34 696.091C1527.27 696.091 1527.21 696.118 1527.16 696.167C1527.11 696.215 1527.08 696.281 1527.08 696.349C1537.61 730.692 1548.43 764.924 1558.25 799.415C1568.07 833.906 1577.12 868.397 1585.69 903.109C1589.97 920.539 1593.96 938.043 1597.87 955.547C1599.79 964.151 1601.57 972.792 1603.49 981.396C1605.77 990.153 1607.41 999.064 1608.4 1008.06C1608.66 1016.58 1606.26 1024.97 1601.53 1032.06C1597.13 1039.23 1592 1045.95 1587.02 1052.7C1577.05 1066.22 1481.99 1172.17 1478.93 1175.05C1478.67 1175.27 1478.93 1175.6 1479.3 1175.38C1492.04 1163.93 1572.69 1076.63 1582.92 1063.12C1588.01 1056.43 1592.92 1049.68 1597.69 1042.81C1602.54 1036.61 1606.45 1029.73 1609.28 1022.39C1611.53 1014.41 1611.68 1005.99 1609.73 997.94V997.94Z" fill="#263238"/>
<path d="M1609.47 683.978L1588.27 962.23C1568.03 866.992 1512.9 683.978 1512.9 683.978H1609.47Z" fill="#263238"/>
<path d="M1801.2 1450.97C1794.29 1453.19 1596.62 1450.12 1589.19 1445.25C1587.99 1442.89 1587.33 1440.29 1587.27 1437.64C1587.26 1437.57 1587.26 1437.49 1587.27 1437.42C1585.83 1426.34 1585.13 1404.63 1584.76 1379.89L1580.41 1358.5H1707.11L1712.05 1381.47C1712.05 1381.47 1787.2 1416.52 1794.85 1422.76C1802.49 1429 1808.18 1448.79 1801.2 1450.97Z" fill="#EBEBEB"/>
<path d="M1801.2 1450.97C1794.26 1453.19 1596.62 1450.12 1589.19 1445.25C1586.31 1443.44 1585.1 1414.6 1584.62 1379.74V1378.63L1712.13 1379.18V1381.36C1712.13 1381.36 1787.24 1416.37 1794.85 1422.61C1802.45 1428.85 1808.14 1448.79 1801.2 1450.97Z" fill="#2588FD"/>
<path d="M1799.09 1443.29C1765.86 1441.96 1631.33 1439.6 1598.32 1440.93C1598.06 1440.93 1598.06 1441.11 1598.32 1441.15C1631.29 1443.18 1765.75 1444.32 1799.09 1443.84C1799.8 1443.81 1799.8 1443.33 1799.09 1443.29Z" fill="#263238"/>
<path d="M1722.76 1381.92C1709.69 1379.26 1693.63 1381.03 1683.43 1390.22C1683.07 1390.56 1683.43 1391.11 1683.99 1391C1696.59 1387.15 1709.56 1384.68 1722.69 1383.61C1722.8 1383.62 1722.91 1383.6 1723.02 1383.56C1723.12 1383.52 1723.22 1383.47 1723.3 1383.39C1723.38 1383.32 1723.45 1383.22 1723.5 1383.12C1723.54 1383.02 1723.57 1382.91 1723.58 1382.8C1723.58 1382.69 1723.56 1382.58 1723.52 1382.47C1723.49 1382.37 1723.43 1382.27 1723.35 1382.19C1723.28 1382.11 1723.19 1382.04 1723.09 1381.99C1722.98 1381.95 1722.87 1381.92 1722.76 1381.92V1381.92Z" fill="#263238"/>
<path d="M1732.11 1387.75C1719.07 1385.09 1702.97 1386.86 1692.81 1396.06C1692.45 1396.43 1692.81 1396.98 1693.37 1396.83C1705.95 1392.99 1718.92 1390.52 1732.03 1389.45C1732.26 1389.46 1732.48 1389.38 1732.64 1389.23C1732.81 1389.07 1732.91 1388.86 1732.92 1388.64C1732.93 1388.41 1732.85 1388.19 1732.7 1388.02C1732.54 1387.86 1732.33 1387.76 1732.11 1387.75V1387.75Z" fill="#263238"/>
<path d="M1741.49 1393.62C1728.41 1390.96 1712.35 1392.73 1702.19 1401.89C1701.79 1402.26 1702.19 1402.82 1702.75 1402.71C1715.34 1398.88 1728.3 1396.41 1741.41 1395.32C1741.52 1395.32 1741.63 1395.31 1741.74 1395.27C1741.84 1395.23 1741.94 1395.17 1742.02 1395.1C1742.11 1395.02 1742.17 1394.93 1742.22 1394.83C1742.27 1394.73 1742.29 1394.62 1742.3 1394.51C1742.3 1394.4 1742.29 1394.28 1742.25 1394.18C1742.21 1394.07 1742.15 1393.98 1742.08 1393.9C1742 1393.81 1741.91 1393.75 1741.81 1393.7C1741.71 1393.65 1741.6 1393.63 1741.49 1393.62V1393.62Z" fill="#263238"/>
<path d="M1618.48 683.978C1613.93 703.176 1610.58 722.638 1608.43 742.25C1606.03 766.697 1602.97 788.337 1599.72 791.032C1596.47 793.728 1577.56 805.803 1571.36 809.496C1571.36 809.496 1628.89 983.944 1643.74 1042.14C1665.27 1126.41 1716.82 1379.33 1716.82 1379.33H1579.45C1579.45 1379.33 1537.68 1138.6 1519.4 1058.32C1503.74 989.52 1443.77 783.13 1443.77 783.13C1437.44 767.217 1434.6 750.133 1435.44 733.029C1436.27 715.925 1440.76 699.199 1448.61 683.978C1448.61 683.978 1618.48 683.904 1618.48 683.978Z" fill="#37474F"/>
<path d="M1711.8 1352.74C1690.19 1352.74 1696.4 1352.37 1674.87 1352.48C1664.31 1352.48 1594.88 1353 1585.06 1354.81C1585 1354.81 1584.94 1354.83 1584.9 1354.88C1584.86 1354.92 1584.84 1354.97 1584.84 1355.03C1584.84 1355.09 1584.86 1355.15 1584.9 1355.19C1584.94 1355.23 1585 1355.25 1585.06 1355.25C1594.96 1356.73 1664.34 1355.03 1674.9 1354.77C1696.51 1354.22 1690.3 1354.15 1711.83 1353.37C1711.9 1353.34 1711.95 1353.3 1711.99 1353.24C1712.02 1353.18 1712.04 1353.11 1712.04 1353.04C1712.03 1352.97 1712.01 1352.91 1711.96 1352.85C1711.92 1352.8 1711.86 1352.76 1711.8 1352.74V1352.74Z" fill="#263238"/>
<path d="M1609.36 784.126C1596.02 791.468 1583.34 799.957 1571.47 809.495C1571.4 809.574 1571.35 809.675 1571.34 809.782C1571.34 809.889 1571.36 809.996 1571.42 810.085C1571.48 810.174 1571.57 810.241 1571.67 810.275C1571.77 810.308 1571.88 810.307 1571.99 810.27C1584.84 802.22 1597.83 794.391 1610.35 785.64C1610.51 785.49 1610.6 785.291 1610.63 785.078C1610.65 784.865 1610.6 784.65 1610.48 784.471C1610.36 784.292 1610.19 784.16 1609.98 784.096C1609.78 784.033 1609.55 784.044 1609.36 784.126Z" fill="#263238"/>
<path d="M1598.87 689.222C1598.87 688.742 1597.91 688.779 1597.99 689.222C1600.38 704.579 1601.99 720.047 1602.82 735.567C1603.3 742.731 1603.67 782.798 1590.93 781.838C1588.79 781.838 1587.24 779.844 1586.61 776.778C1586.04 772.716 1585.96 768.599 1586.39 764.518C1586.39 756.099 1586.39 747.716 1585.72 739.297C1584.74 723.749 1582.17 708.343 1578.04 693.321C1578.04 693.214 1578 693.11 1577.92 693.034C1577.85 692.958 1577.75 692.915 1577.64 692.915C1577.53 692.915 1577.43 692.958 1577.35 693.034C1577.27 693.11 1577.23 693.214 1577.23 693.321C1580.92 714.652 1582.99 736.229 1583.44 757.871C1583.44 768.322 1580.74 784.459 1591.63 784.349C1602.53 784.238 1605.78 757.465 1606 750.264C1606.27 729.694 1603.88 709.175 1598.87 689.222V689.222Z" fill="#263238"/>
<path d="M1591.41 782.944C1590.73 785.752 1590.24 788.601 1589.93 791.474C1589.53 793.746 1589.53 796.071 1589.93 798.343C1589.97 798.43 1590.03 798.505 1590.11 798.557C1590.19 798.61 1590.28 798.638 1590.38 798.638C1590.47 798.638 1590.56 798.61 1590.64 798.557C1590.72 798.505 1590.78 798.43 1590.82 798.343C1591.81 796.144 1592.43 793.799 1592.66 791.4C1593.22 788.741 1593.81 786.119 1594.29 783.424C1594.35 783.042 1594.26 782.65 1594.04 782.335C1593.81 782.02 1593.47 781.807 1593.09 781.744C1592.71 781.68 1592.32 781.77 1592 781.996C1591.69 782.221 1591.47 782.562 1591.41 782.944V782.944Z" fill="#263238"/>
<path d="M1463.38 782.243C1475.21 781.585 1486.91 779.375 1498.17 775.67C1510.95 771.585 1522.54 764.434 1531.92 754.842C1537.23 749.571 1541.61 743.441 1544.88 736.711C1544.88 736.452 1545.4 736.711 1545.32 736.932C1543.32 743.45 1540.22 749.581 1536.17 755.064C1531.97 760.494 1526.99 765.273 1521.4 769.244C1510.32 777.366 1497.28 782.4 1483.62 783.831C1476.88 784.878 1470.01 784.778 1463.31 783.535C1462.24 783.387 1462.53 782.317 1463.38 782.243Z" fill="#263238"/>
<path d="M1563.38 1277.04C1563.05 1273.86 1562.61 1270.69 1562.16 1267.51C1561.31 1261.46 1560.28 1255.36 1559.32 1249.31C1557.47 1237.08 1555.37 1224.9 1553.19 1212.75C1548.91 1188.49 1543.92 1164.3 1538.68 1140.22C1535.69 1126.63 1532.25 1113.19 1528.6 1099.6C1528.37 1098.64 1527.04 1099.12 1527.19 1100.01C1529.41 1112.34 1531.55 1124.64 1534.06 1136.94C1536.57 1149.23 1539.08 1161.35 1541.45 1173.57C1546.25 1197.72 1550.72 1221.98 1555.52 1246.13C1556.85 1252.96 1558.1 1259.8 1559.43 1266.63C1560.09 1270.02 1560.76 1273.46 1561.5 1276.82C1562.24 1280.18 1563.27 1283.54 1563.82 1286.94C1563.82 1287.27 1564.38 1287.12 1564.34 1286.94C1563.82 1283.65 1563.79 1280.47 1563.38 1277.04Z" fill="#263238"/>
<path d="M1658.14 1094.51C1653.56 1071.72 1647.39 1049.23 1641.19 1026.82C1628.71 981.765 1614.01 937.341 1599.35 892.916C1595.12 880.139 1590.88 867.35 1586.65 854.548C1584.54 848.16 1574.2 813.632 1572.91 810.235C1572.89 810.178 1572.85 810.129 1572.8 810.095C1572.75 810.06 1572.69 810.042 1572.63 810.042C1572.57 810.042 1572.51 810.06 1572.46 810.095C1572.41 810.129 1572.38 810.178 1572.36 810.235C1575.35 821.978 1579.41 839.112 1582.84 850.855C1586.28 862.598 1589.93 873.788 1593.52 885.198C1600.53 907.687 1607.66 930.177 1614.45 952.703C1627.93 997.275 1641.3 1041.85 1652.23 1087.12C1655.3 1099.82 1658.36 1112.49 1661.13 1125.23C1663.9 1137.97 1666.34 1150.75 1669 1163.49C1669 1163.86 1669.66 1163.75 1669.62 1163.49C1667.33 1140.37 1662.79 1117.4 1658.14 1094.51Z" fill="#263238"/>
<path d="M1572.73 1213.75C1565.16 1170.28 1556.11 1127.04 1546.06 1084.06C1536.02 1041.07 1524.76 997.939 1512.39 955.361C1500.01 912.783 1486.31 870.427 1471.76 828.698C1464.35 809.011 1458.13 788.899 1453.12 768.469C1448.57 748.159 1446.28 726.186 1451.01 705.691C1452.16 700.491 1453.73 695.39 1455.7 690.44C1455.7 690.108 1455.33 689.812 1455.18 690.145C1438.68 728.661 1449.39 770.758 1461.98 808.72C1468.85 829.511 1476.2 850.153 1483.03 870.981C1489.86 891.808 1496.65 913.817 1503.08 935.383C1515.75 978.109 1527.53 1021.09 1538.05 1064.37C1548.57 1107.65 1557.99 1151.23 1566.26 1195.02C1574.54 1238.82 1581.51 1283.1 1588.6 1327.23C1589.53 1332.99 1590.23 1338.75 1591.01 1344.51C1591.01 1344.84 1591.52 1344.84 1591.49 1344.51C1586.02 1300.75 1580.26 1257.17 1572.73 1213.75Z" fill="#263238"/>
<path d="M1569.92 501.591C1586.09 560.675 1632.7 631.946 1654.85 641.917C1674.13 650.484 1763.57 617.397 1797.32 595.905C1806.92 589.775 1767.22 534.493 1755.67 538.334C1717.89 550.926 1676.79 569.538 1673.61 568.467C1667.19 566.288 1627.08 517.1 1597.87 484.013C1565.12 446.826 1563.49 478.068 1569.92 501.591Z" fill="#C95F50"/>
<path d="M1861.1 545.793C1868.7 542.617 1927.23 540.77 1927.23 528.067C1927.23 515.364 1852.71 518.909 1852.71 518.909L1861.1 545.793Z" fill="#C95F50"/>
<path d="M1748.83 547.269C1759.06 534.566 1768.07 520.866 1776.97 518.355C1783.1 516.619 1849.39 519.463 1859.73 518.835C1870.07 518.207 1907.03 519.167 1907.74 528.252C1908.95 541.066 1865.23 540.955 1860.58 547.528C1844.44 570.165 1783.03 603.658 1783.03 603.658L1748.83 547.269Z" fill="#C95F50"/>
<path d="M1908.88 528.438C1908.2 526.079 1906.69 524.046 1904.63 522.714C1899.79 520.066 1894.35 518.729 1888.83 518.836C1880.75 518.11 1872.62 518.048 1864.53 518.652C1864.53 518.652 1864.53 518.91 1864.53 518.947C1870.62 518.947 1876.64 518.947 1882.7 519.612C1888.25 519.819 1893.77 520.661 1899.13 522.123C1901.54 522.743 1903.73 524.022 1905.45 525.816C1906.04 526.491 1906.45 527.307 1906.64 528.187C1906.83 529.066 1906.78 529.979 1906.52 530.838C1904.78 536.414 1893.74 538.224 1888.64 539.221C1882 540.698 1875.09 541.99 1868.41 543.356C1868.11 543.356 1868.41 543.873 1868.41 543.8C1875.35 542.433 1882.66 541.916 1889.64 540.661C1895.47 540.092 1901.06 538.059 1905.89 534.752C1906.94 534.097 1907.78 533.154 1908.31 532.034C1908.84 530.915 1909.04 529.666 1908.88 528.438Z" fill="#263238"/>
<path d="M1746.29 539.442L1798.72 616.215C1798.72 616.215 1717.48 656.836 1686.39 656.208C1656.85 655.506 1646.1 651.149 1636.76 642.323C1630.96 636.858 1598.06 590.365 1571.21 513.075C1548.68 448.304 1582.03 457.683 1611.83 493.725C1626.6 511.598 1674.02 564.885 1676.38 564.7C1678.74 564.516 1746.29 539.442 1746.29 539.442Z" fill="#2588FD"/>
<path d="M1730.15 551.924C1738.01 563.298 1745.55 574.893 1752.97 586.562C1756.66 592.249 1770.25 615.514 1774.2 622.124C1774.2 622.382 1773.65 622.826 1773.47 622.567C1769.37 616.732 1754.56 593.505 1750.98 587.744C1743.59 575.964 1736.61 564.147 1729.82 552.145C1729.8 552.124 1729.79 552.099 1729.79 552.073C1729.78 552.048 1729.78 552.021 1729.79 551.996C1729.79 551.97 1729.8 551.945 1729.82 551.924C1729.83 551.902 1729.85 551.883 1729.87 551.869C1729.89 551.854 1729.92 551.844 1729.94 551.839C1729.97 551.834 1730 551.834 1730.02 551.839C1730.05 551.844 1730.07 551.854 1730.09 551.869C1730.12 551.883 1730.13 551.902 1730.15 551.924Z" fill="#263238"/>
<path opacity="0.1" d="M1702.12 654.251C1696.97 655.517 1691.69 656.174 1686.39 656.208C1656.85 655.506 1646.1 651.149 1636.76 642.323C1631 636.858 1598.06 590.402 1571.25 513.075C1567.03 502.37 1564.54 491.066 1563.86 479.582C1563.86 478.88 1563.86 478.141 1563.86 477.477C1563.82 476.825 1563.82 476.171 1563.86 475.52C1563.92 474.986 1564.01 474.456 1564.12 473.932C1564.5 471.522 1565.64 469.296 1567.37 467.58C1585.72 492.174 1671.77 608.386 1702.12 654.251Z" fill="black"/>
<path d="M1894.63 507.943H1695.81V518.616H1894.63V507.943Z" fill="#C7C7C7"/>
<path d="M1894.63 507.943V518.616H1773.87L1782.03 507.943H1894.63Z" fill="#A6A6A6"/>
<path d="M1790.82 518.614H1923.8L1993 401.109H1860.02L1790.82 518.614Z" fill="#C7C7C7"/>
<path d="M1886.95 459.787C1884.47 465.216 1886.28 470.866 1891.01 472.564C1893.65 473.175 1896.43 472.814 1898.83 471.546C1901.23 470.278 1903.09 468.188 1904.08 465.659C1906.55 460.23 1904.74 454.58 1900.02 452.882C1897.37 452.278 1894.6 452.643 1892.2 453.91C1889.8 455.177 1887.94 457.262 1886.95 459.787V459.787Z" fill="white"/>
<path d="M1435.8 724.451C1436.28 724.968 1643.96 723.491 1645.84 721.349C1648.43 718.321 1599.24 493.799 1577.64 466.214C1573.02 460.306 1557.95 458.829 1545.18 460.527C1541.85 460.941 1538.56 461.645 1535.35 462.632H1535.02C1532.43 463.443 1529.99 464.692 1527.82 466.325C1492.55 495.092 1463.64 594.65 1456.96 624.524C1445.88 673.786 1434.06 722.494 1435.8 724.451Z" fill="#EBEBEB"/>
<path d="M1532.81 463.149C1532.81 463.149 1546.36 555.469 1549.57 579.546C1552.78 603.623 1549.57 730.028 1549.57 730.028L1419.25 741.106C1419.25 741.106 1446.58 657.058 1446.84 651.74C1446.84 651.74 1468.44 550.743 1490.75 509.051C1500.71 490.475 1515.17 474.693 1532.81 463.149V463.149Z" fill="#2588FD"/>
<path d="M1576.2 464.773C1576.2 464.773 1593.81 558.275 1595.36 565.993C1596.91 573.711 1619.47 725.669 1619.47 725.669L1652.08 726.371L1634.39 656.946C1634.39 656.946 1596.54 479.138 1576.2 464.773Z" fill="#2588FD"/>
<path d="M1568.85 494.648C1558.95 495.793 1540.19 482.019 1534.95 467.432C1534.62 466.398 1537.57 456.908 1540.6 445.275C1542.41 438.148 1544.29 430.209 1545.44 422.823C1545.66 421.309 1589.97 441.287 1589.97 441.287C1585.86 450.092 1582.84 459.369 1581 468.909C1580.91 469.941 1580.91 470.979 1581 472.011V472.528C1580.85 478.474 1579.48 493.466 1568.85 494.648Z" fill="#C95F50"/>
<path d="M1580.85 472.084C1580.87 472.256 1580.87 472.429 1580.85 472.601C1579.25 472.544 1577.66 472.371 1576.09 472.084C1548.94 467.173 1547.13 431.907 1547.1 423.044C1555.15 425.518 1590.01 441.508 1590.01 441.508C1585.9 450.326 1582.88 459.615 1581.03 469.167C1580.91 470.134 1580.85 471.109 1580.85 472.084V472.084Z" fill="#263238"/>
<path d="M1545.95 363.923C1538.82 379.802 1541.56 428.547 1551.93 440.623C1567 458.164 1594.66 463.149 1610.32 444.316C1625.49 426.11 1620.84 362.631 1608.95 351.331C1591.45 334.713 1556.44 340.511 1545.95 363.923Z" fill="#C95F50"/>
<path d="M1581.85 398.451C1581.85 398.451 1581.59 398.451 1581.63 398.747C1581.88 402.033 1581.63 405.8 1578.75 407.055C1578.75 407.055 1578.75 407.277 1578.75 407.24C1582.36 406.538 1582.62 401.59 1581.85 398.451Z" fill="#263238"/>
<path d="M1578.74 395.164C1573.46 395.164 1573.57 405.652 1578.49 405.762C1583.4 405.873 1583.17 395.275 1578.74 395.164Z" fill="#263238"/>
<path d="M1602.08 398.267C1602.08 398.267 1602.34 398.451 1602.34 398.562C1602.34 401.849 1602.75 405.652 1605.74 406.686C1605.74 406.686 1605.74 406.908 1605.74 406.871C1602.08 406.428 1601.49 401.59 1602.08 398.267Z" fill="#263238"/>
<path d="M1604.96 394.831C1610.24 394.351 1610.8 404.95 1605.89 405.393C1600.97 405.836 1600.53 395.201 1604.96 394.831Z" fill="#263238"/>
<path d="M1574.5 390.512C1575.94 390.106 1577.19 389.515 1578.6 388.998C1580.11 388.68 1581.48 387.86 1582.47 386.672C1582.72 386.244 1582.81 385.749 1582.74 385.262C1582.68 384.775 1582.45 384.324 1582.11 383.976C1581.29 383.396 1580.34 383.042 1579.35 382.951C1578.36 382.86 1577.36 383.036 1576.46 383.459C1574.5 384.065 1572.84 385.382 1571.8 387.152C1571.61 387.558 1571.54 388.009 1571.59 388.455C1571.65 388.9 1571.82 389.321 1572.1 389.671C1572.38 390.021 1572.76 390.285 1573.18 390.434C1573.6 390.583 1574.06 390.61 1574.5 390.512V390.512Z" fill="#263238"/>
<path d="M1609.02 385.895C1607.59 385.625 1606.17 385.28 1604.78 384.861C1603.24 384.691 1601.81 384.031 1600.68 382.978C1600.38 382.58 1600.21 382.093 1600.21 381.593C1600.21 381.093 1600.38 380.607 1600.68 380.208C1601.42 379.554 1602.33 379.107 1603.3 378.912C1604.27 378.718 1605.28 378.783 1606.22 379.1C1608.21 379.472 1610 380.563 1611.24 382.166C1611.49 382.543 1611.63 382.984 1611.65 383.438C1611.66 383.892 1611.54 384.341 1611.31 384.731C1611.08 385.122 1610.74 385.439 1610.34 385.645C1609.93 385.851 1609.48 385.938 1609.02 385.895V385.895Z" fill="#263238"/>
<path d="M1580.77 428.842C1581.55 429.617 1582.36 430.651 1583.54 430.762C1584.83 430.743 1586.09 430.44 1587.24 429.876C1587.24 429.876 1587.42 429.876 1587.24 430.061C1586.77 430.708 1586.13 431.218 1585.4 431.536C1584.66 431.854 1583.86 431.97 1583.06 431.87C1582.39 431.71 1581.79 431.354 1581.32 430.847C1580.85 430.341 1580.55 429.707 1580.44 429.027C1580.41 428.805 1580.63 428.731 1580.77 428.842Z" fill="#263238"/>
<path d="M1584.1 418.982C1584.93 420.259 1586.01 421.35 1587.28 422.189C1588.55 423.028 1589.98 423.595 1591.48 423.857C1592.82 424.059 1594.17 424.059 1595.51 423.857C1595.77 423.895 1596.03 423.895 1596.28 423.857H1596.99C1597.16 423.825 1597.32 423.735 1597.44 423.601C1597.56 423.467 1597.64 423.297 1597.65 423.118V423.118C1597.67 423.008 1597.67 422.896 1597.65 422.786V422.786V422.49C1597.65 419.942 1597.39 416.102 1597.39 416.102C1598.32 416.545 1603.08 418.613 1602.97 417.284C1602.53 405.878 1600.95 394.545 1598.24 383.458C1598.24 383.379 1598.21 383.304 1598.16 383.249C1598.1 383.193 1598.02 383.162 1597.95 383.162C1597.87 383.162 1597.79 383.193 1597.74 383.249C1597.68 383.304 1597.65 383.379 1597.65 383.458C1597.98 393.982 1600.16 404.396 1600.68 414.994C1598.99 414.232 1597.2 413.71 1595.36 413.443C1594.99 413.443 1596.06 420.829 1595.95 422.01C1593.88 422.249 1591.78 422.067 1589.79 421.477C1587.79 420.887 1585.93 419.901 1584.32 418.576C1584.17 418.502 1583.91 418.724 1584.1 418.982Z" fill="#263238"/>
<path d="M1594.14 422.75C1592.77 424.558 1590.97 425.992 1588.9 426.922C1587.72 427.387 1586.43 427.477 1585.21 427.181C1582.58 426.516 1582.51 424.116 1582.95 422.048C1583.21 420.948 1583.59 419.882 1584.1 418.872C1586.95 421.201 1590.47 422.56 1594.14 422.75Z" fill="#263238"/>
<path d="M1588.94 426.921C1587.76 427.386 1586.47 427.476 1585.24 427.18C1582.62 426.515 1582.55 424.115 1582.99 422.047C1584.38 422.079 1585.73 422.577 1586.8 423.46C1587.88 424.343 1588.63 425.562 1588.94 426.921V426.921Z" fill="#FF9BBC"/>
<path d="M1541.89 406.058C1541.89 406.058 1530.11 376.811 1534.14 361.745C1535.94 354.913 1546.17 351.774 1546.17 351.774C1545.9 348.837 1546.44 345.88 1547.75 343.233C1549.05 340.586 1551.06 338.353 1553.56 336.781C1563.05 330.356 1582.7 335.341 1582.7 335.341C1582.7 335.341 1598.65 318.797 1615.71 329.174C1632.77 339.551 1617.48 358.31 1617.48 358.31C1617.48 358.31 1622.65 368.909 1605.04 373.672C1587.42 378.436 1556.51 365.881 1556.51 365.881C1556.19 377.343 1554.16 388.693 1550.49 399.559C1549.79 401.322 1548.61 402.859 1547.09 404.004C1545.58 405.149 1543.78 405.859 1541.89 406.058V406.058Z" fill="#263238"/>
<path d="M1585.95 336.043C1582.13 333.73 1577.88 332.211 1573.46 331.574C1569.54 330.928 1565.54 330.928 1561.61 331.574C1558.11 331.988 1554.78 333.343 1551.98 335.495C1549.19 337.647 1547.03 340.516 1545.73 343.798C1545.17 345.524 1544.97 347.346 1545.13 349.154C1545.28 350.961 1545.8 352.719 1546.65 354.322C1546.65 354.322 1546.91 354.322 1546.84 354.322C1543.48 348.377 1546.84 340.622 1552.08 336.966C1558.19 333.195 1565.46 331.777 1572.54 332.978C1577.08 333.668 1581.52 334.908 1585.76 336.671C1585.8 336.683 1585.85 336.687 1585.89 336.682C1585.93 336.677 1585.97 336.664 1586.01 336.644C1586.05 336.623 1586.08 336.595 1586.11 336.562C1586.14 336.529 1586.16 336.49 1586.17 336.449C1586.18 336.408 1586.18 336.365 1586.18 336.322C1586.17 336.279 1586.16 336.238 1586.14 336.2C1586.12 336.162 1586.09 336.129 1586.06 336.102C1586.03 336.075 1585.99 336.055 1585.95 336.043V336.043Z" fill="#263238"/>
<path d="M1627.45 340.031C1627.01 337.47 1625.94 335.059 1624.33 333.015C1622.73 330.971 1620.64 329.36 1618.26 328.325C1612.87 325.649 1606.75 324.868 1600.86 326.109C1594.95 327.371 1589.48 330.188 1585.02 334.27C1585.02 334.27 1585.02 334.528 1585.02 334.27C1589.02 330.683 1593.91 328.242 1599.18 327.202C1604.45 326.162 1609.91 326.563 1614.97 328.362C1617.33 328.995 1619.49 330.203 1621.27 331.877C1623.04 333.551 1624.38 335.64 1625.15 337.955C1625.92 340.271 1626.11 342.741 1625.69 345.146C1625.27 347.551 1624.27 349.816 1622.76 351.737C1619.22 356.243 1614.49 359.66 1609.1 361.597C1609.1 361.597 1609.1 361.855 1609.1 361.781C1614.15 360.254 1618.73 357.487 1622.43 353.731C1624.19 351.935 1625.55 349.784 1626.42 347.422C1627.28 345.059 1627.63 342.54 1627.45 340.031V340.031Z" fill="#263238"/>
<path d="M1553.04 404.803C1553.04 404.803 1543.88 388.222 1536.46 391.361C1529.04 394.5 1534.8 417.691 1542.7 421.642C1543.68 422.213 1544.77 422.58 1545.9 422.721C1547.02 422.863 1548.17 422.776 1549.26 422.466C1550.35 422.155 1551.37 421.628 1552.26 420.916C1553.14 420.203 1553.87 419.32 1554.41 418.319L1553.04 404.803Z" fill="#C95F50"/>
<path d="M1538.27 397.896C1538.27 397.896 1538.27 397.896 1538.27 398.118C1540.78 399.708 1542.93 401.809 1544.57 404.284C1546.21 406.76 1547.31 409.553 1547.8 412.483C1547.52 411.874 1547.12 411.331 1546.62 410.892C1546.11 410.453 1545.52 410.128 1544.88 409.939C1544.24 409.749 1543.56 409.7 1542.9 409.795C1542.24 409.89 1541.6 410.127 1541.04 410.489C1541.04 410.489 1541.04 410.858 1541.04 410.821C1542.09 410.605 1543.19 410.719 1544.17 411.149C1545.16 411.578 1545.99 412.302 1546.54 413.222C1547.43 414.775 1548.17 416.406 1548.76 418.096C1548.98 418.65 1549.94 418.465 1549.79 417.838C1550.72 410.452 1546.1 399.558 1538.27 397.896Z" fill="#263238"/>
<path d="M1506.62 484.419C1454.33 543.135 1415.01 625.816 1415.37 645.314C1415.89 666.732 1443.14 742.176 1469.1 777.627C1472.47 782.169 1492.7 780.249 1509.73 770.832C1527.78 760.899 1542.59 743.173 1539.05 737.893C1525.72 718.062 1494.14 641.252 1494.44 629.251C1494.7 618.172 1520.58 550.151 1530.44 510.823C1540.08 472.972 1530.96 456.982 1506.62 484.419Z" fill="#C95F50"/>
<path d="M1437.53 771.755L1534.91 724.192C1534.91 724.192 1496.62 638.74 1496.62 629.509C1496.62 620.277 1521.8 548.045 1531.29 514.663C1540.78 481.28 1537.13 443.761 1495.55 494.241C1453.96 544.722 1417.63 619.796 1413.49 639.738C1409.36 659.679 1437.53 771.755 1437.53 771.755Z" fill="#2588FD"/>
<path d="M1501.49 604.988C1503.49 598.661 1505.55 592.346 1507.7 586.044C1510.1 578.991 1512.57 571.974 1515.08 564.995C1517.59 558.016 1520.44 551.516 1523.17 544.796C1523.17 544.315 1524.2 544.796 1524.05 545.128C1520.8 554.101 1517.78 563.186 1514.75 572.27C1517.04 568.134 1519.33 564.035 1521.76 559.973C1521.82 559.926 1521.88 559.896 1521.95 559.887C1522.02 559.879 1522.09 559.891 1522.15 559.924C1522.21 559.956 1522.26 560.007 1522.29 560.069C1522.32 560.13 1522.33 560.2 1522.32 560.268C1519.59 565.291 1516.71 570.202 1513.79 575.04C1513.09 577.218 1512.35 579.434 1511.61 581.613C1507.51 593.799 1503.6 606.059 1500.09 618.541C1499.22 621.304 1498.64 624.15 1498.35 627.034C1498.2 630.322 1498.69 633.607 1499.79 636.709C1501.57 642.433 1503.49 648.083 1505.55 653.696C1509.62 665.033 1514.05 676.185 1518.66 687.264C1523.94 699.893 1529.96 712.338 1535.95 724.635C1535.95 724.635 1532.25 725.595 1532.25 725.669C1532.25 725.742 1531.96 725.669 1532.03 725.484C1532.1 725.299 1534.32 724.265 1534.39 724.265C1528.3 713.63 1522.5 703.179 1517.37 691.99C1512.24 680.801 1507.77 669.834 1503.67 658.238C1501.57 652.33 1499.53 646.421 1497.69 640.439C1495.59 634.893 1495.02 628.888 1496.03 623.046C1497.39 616.916 1499.61 610.933 1501.49 604.988Z" fill="#263238"/>
<path d="M1435.87 744.318C1439.32 742.451 1442.87 740.775 1446.51 739.296C1449.68 737.819 1452.82 736.305 1456.03 734.864C1462.97 731.726 1469.92 728.55 1476.9 725.448C1483.88 722.346 1490.82 719.207 1497.8 716.179C1504.78 713.151 1511.65 709.901 1518.74 707.279C1518.99 707.279 1519.18 707.575 1518.96 707.722C1512.5 711.711 1505.59 715.108 1498.8 718.395C1492 721.681 1485.32 724.857 1478.48 727.922C1471.65 730.987 1464.49 733.978 1457.44 736.822C1454.04 738.188 1450.6 739.444 1447.13 740.736C1443.53 742.292 1439.83 743.612 1436.05 744.687C1436.01 744.691 1435.97 744.682 1435.93 744.66C1435.89 744.639 1435.86 744.606 1435.84 744.566C1435.82 744.526 1435.81 744.481 1435.81 744.437C1435.82 744.392 1435.84 744.351 1435.87 744.318V744.318Z" fill="#263238"/>
</svg>
