<svg width="54" height="27" viewBox="0 0 54 27" fill="none" xmlns="http://www.w3.org/2000/svg">
    <path d="M52.9406 0H45.1357C45.1357 0 45.3875 6.4862 44.8839 8.42068C44.8839 8.42068 44.7581 9.6724 44.1286 11.3793C44.1286 11.4931 44.0027 11.6069 44.0027 11.7207C43.8769 11.9483 43.8769 12.0621 43.751 12.2896C43.751 12.2896 43.751 12.4034 43.6251 12.4034C43.3733 12.7448 43.2474 13.0862 43.1215 13.3138C42.9957 13.5414 42.7439 13.8827 42.618 14.1103C42.2403 14.7931 41.6109 15.4758 40.9815 16.1586C39.9744 17.1827 38.7155 17.9793 37.2049 18.5482C35.4425 19.231 33.4283 19.5724 30.9106 19.5724H26.5046H26.3787H18.0703V19.4586C18.0703 19.4586 17.9444 17.1827 19.455 17.1827H26.3787H26.5046H32.4213C35.1907 17.1827 37.9602 16.0448 39.9744 13.7689C40.1003 13.6552 40.2262 13.4276 40.3521 13.3138C42.4921 10.8103 42.9957 8.42068 42.9957 6.3724V0H26.6305H26.5046H22.728C22.0986 0 21.3433 0 20.588 0H20.4621C14.5455 0.227586 5.98523 2.27586 1.95689 11.7207C0.949802 14.2241 -0.309057 19.0034 0.0685999 26.6276H7.87352C7.87352 26.6276 7.62175 20.1414 8.12529 18.2069C8.12529 18.2069 8.25118 16.9552 8.88061 15.2483C8.88061 15.1345 9.00649 15.0207 9.00649 14.9069C9.13238 14.6793 9.13238 14.5655 9.25826 14.3379C9.25826 14.3379 9.25826 14.2241 9.38415 14.2241C9.63592 13.8827 9.76181 13.5414 9.88769 13.3138C10.0136 13.0862 10.2653 12.7448 10.3912 12.5172C10.7689 11.8345 11.3983 11.1517 12.0278 10.469C13.0348 9.44482 14.2937 8.64826 15.8043 8.0793C17.5667 7.39654 19.5809 7.05516 22.0986 7.05516H26.5046H26.6305H34.939V7.16895C34.939 7.16895 35.0648 9.44481 33.5542 9.44481H26.6305H26.5046H20.588C17.8185 9.44481 15.049 10.5827 13.0348 12.8586C12.909 12.9724 12.7831 13.2 12.6572 13.3138C10.5171 15.8172 10.0136 18.2069 10.0136 20.2551V26.6276H26.3787H26.5046H30.2812C30.9106 26.6276 31.6659 26.6276 32.4213 26.6276H32.5471C38.4638 26.4 47.024 24.3517 51.0523 14.9069C52.0594 12.5172 53.3183 7.62413 52.9406 0Z"
          fill="#09101D"/>
</svg>
