<svg width="43" height="43" viewBox="0 0 43 43" fill="none" xmlns="http://www.w3.org/2000/svg">
<path fill-rule="evenodd" clip-rule="evenodd" d="M1.40275e-06 21.5C2.44082e-06 9.62588 9.62588 -3.3945e-06 21.5 -2.35643e-06C33.3741 -1.31836e-06 43 9.62588 43 21.5C43 33.3741 33.3741 43 21.5 43C9.62588 43 3.64684e-07 33.3741 1.40275e-06 21.5ZM6.75688 21.5C6.75688 13.3577 13.3575 6.75712 21.4997 6.75712C22.0642 6.75712 22.6213 6.78885 23.1693 6.85062C15.7599 7.62928 9.9853 13.8963 9.9853 21.512C9.9853 29.0898 15.7024 35.3322 23.0586 36.1614C22.5463 36.2152 22.0262 36.2428 21.4997 36.2428C13.3575 36.2428 6.75688 29.6422 6.75688 21.5ZM26.2608 11.1156C21.4016 11.9736 17.7059 16.2964 17.7059 21.5C17.7059 26.7036 21.4016 31.0264 26.2608 31.8844C25.6728 31.9862 25.0681 32.0392 24.451 32.0392C18.6304 32.0392 13.9118 27.3206 13.9118 21.5C13.9118 15.6794 18.6304 10.9608 24.451 10.9608C25.0681 10.9608 25.6728 11.0138 26.2608 11.1156Z" fill="white"/>
</svg>
