<svg width="251" height="234" viewBox="0 0 251 234" fill="none" xmlns="http://www.w3.org/2000/svg">
<path d="M36.6736 65.4962L37.7249 67.6183L40.0742 67.9623L38.3739 69.6172L38.7762 71.9535L36.6736 70.8502L34.5774 71.9535L34.9797 69.6172L33.2794 67.9623L35.6287 67.6183L36.6736 65.4962Z" fill="#EBEBEB"/>
<path d="M246.714 165.587L247.765 167.716L250.114 168.06L248.414 169.708L248.816 172.051L246.714 170.948L244.618 172.051L245.02 169.708L243.32 168.06L245.669 167.716L246.714 165.587Z" fill="#F5F5F5"/>
<path d="M205.114 227.298L206.166 229.42L208.509 229.764L206.808 231.419L207.211 233.755L205.114 232.652L203.018 233.755L203.414 231.419L201.72 229.764L204.063 229.42L205.114 227.298Z" fill="#F5F5F5"/>
<path d="M109.936 27.7909L110.325 28.5826L111.202 28.7124C111.25 28.7188 111.297 28.739 111.334 28.7706C111.372 28.8022 111.4 28.844 111.415 28.8909C111.43 28.9379 111.432 28.9882 111.419 29.0359C111.406 29.0836 111.381 29.1267 111.344 29.1602L110.695 29.7767L110.845 30.6463C110.852 30.6947 110.846 30.7443 110.828 30.7896C110.809 30.8349 110.778 30.8741 110.739 30.903C110.699 30.9319 110.652 30.9492 110.603 30.9532C110.554 30.9571 110.505 30.9475 110.462 30.9254L109.683 30.5101L108.904 30.9254C108.861 30.9475 108.812 30.9571 108.763 30.9532C108.714 30.9492 108.667 30.9319 108.627 30.903C108.588 30.8741 108.557 30.8349 108.538 30.7896C108.52 30.7443 108.514 30.6947 108.521 30.6463L108.664 29.7767L108.015 29.1602C107.979 29.1263 107.953 29.0826 107.941 29.0344C107.928 28.9862 107.93 28.9356 107.946 28.8884C107.962 28.8412 107.991 28.7996 108.029 28.7684C108.068 28.7372 108.115 28.7177 108.164 28.7124L109.034 28.5826L109.423 27.7909C109.439 27.7348 109.472 27.6855 109.519 27.6503C109.565 27.6151 109.622 27.5961 109.68 27.5961C109.738 27.5961 109.794 27.6151 109.841 27.6503C109.887 27.6855 109.921 27.7348 109.936 27.7909V27.7909Z" fill="#EBEBEB"/>
<path d="M2.7517 217.194L3.14109 217.979L4.01071 218.109C4.06008 218.115 4.10655 218.136 4.14482 218.168C4.1831 218.2 4.21164 218.242 4.22719 218.289C4.24275 218.337 4.2447 218.387 4.23281 218.436C4.22093 218.484 4.19569 218.528 4.15998 218.563L3.511 219.173L3.66027 220.043C3.66793 220.091 3.66208 220.141 3.64336 220.186C3.62464 220.231 3.59378 220.27 3.55418 220.299C3.51458 220.328 3.46778 220.346 3.41893 220.349C3.37009 220.353 3.3211 220.344 3.27737 220.322L2.49861 219.913L1.71984 220.322C1.67611 220.344 1.62712 220.353 1.57828 220.349C1.52944 220.346 1.48263 220.328 1.44303 220.299C1.40343 220.27 1.37257 220.231 1.35385 220.186C1.33513 220.141 1.32928 220.091 1.33694 220.043L1.48621 219.173L0.837236 218.563C0.801638 218.529 0.77631 218.485 0.764098 218.437C0.751887 218.389 0.753274 218.339 0.768101 218.292C0.782929 218.244 0.810611 218.202 0.848042 218.17C0.885473 218.138 0.931172 218.116 0.980008 218.109L1.84963 217.979L2.24551 217.194C2.26285 217.14 2.29668 217.094 2.34215 217.061C2.38762 217.027 2.44239 217.01 2.49861 217.01C2.55482 217.01 2.60959 217.027 2.65506 217.061C2.70053 217.094 2.73436 217.14 2.7517 217.194V217.194Z" fill="#F5F5F5"/>
<path d="M20.2545 19.4516L20.6439 20.2433L21.52 20.3666C21.5689 20.3744 21.6146 20.3957 21.652 20.428C21.6894 20.4603 21.7171 20.5024 21.7319 20.5496C21.7468 20.5968 21.7481 20.6471 21.7359 20.6951C21.7237 20.743 21.6984 20.7866 21.6628 20.8209L21.0138 21.4699L21.1631 22.333C21.1735 22.382 21.1694 22.4329 21.1515 22.4797C21.1336 22.5265 21.1025 22.567 21.062 22.5965C21.0215 22.626 20.9734 22.6432 20.9234 22.6459C20.8734 22.6487 20.8237 22.6369 20.7802 22.6121L20.0014 22.2032L19.2227 22.6121C19.1792 22.6369 19.1295 22.6487 19.0794 22.6459C19.0294 22.6432 18.9813 22.626 18.9408 22.5965C18.9004 22.567 18.8693 22.5265 18.8513 22.4797C18.8334 22.4329 18.8294 22.382 18.8398 22.333L18.9825 21.4699L18.3336 20.8209C18.2979 20.7861 18.2726 20.742 18.2607 20.6936C18.2488 20.6453 18.2508 20.5945 18.2663 20.5471C18.2819 20.4998 18.3104 20.4578 18.3487 20.4259C18.387 20.3939 18.4335 20.3734 18.4828 20.3666L19.3525 20.2433L19.7678 19.4516C19.7886 19.4044 19.8227 19.3643 19.8659 19.3362C19.9091 19.308 19.9596 19.293 20.0112 19.293C20.0627 19.293 20.1132 19.308 20.1564 19.3362C20.1996 19.3643 20.2337 19.4044 20.2545 19.4516Z" fill="#EBEBEB"/>
<path d="M19.2032 175.867C19.2045 176.038 19.1549 176.206 19.0609 176.348C18.9668 176.491 18.8325 176.603 18.6749 176.669C18.5173 176.735 18.3435 176.753 18.1757 176.721C18.0078 176.688 17.8534 176.607 17.732 176.486C17.6107 176.366 17.5278 176.212 17.494 176.044C17.4602 175.877 17.4769 175.703 17.542 175.545C17.6071 175.387 17.7178 175.251 17.8598 175.156C18.0019 175.061 18.1691 175.01 18.34 175.01C18.5678 175.01 18.7864 175.1 18.9481 175.261C19.1098 175.421 19.2015 175.639 19.2032 175.867V175.867Z" fill="#EBEBEB"/>
<path d="M142.21 67.8585C142.211 68.0294 142.161 68.1969 142.067 68.3397C141.973 68.4825 141.839 68.5942 141.681 68.6605C141.524 68.7268 141.35 68.7448 141.182 68.7123C141.014 68.6797 140.86 68.598 140.738 68.4776C140.617 68.3571 140.534 68.2033 140.5 68.0357C140.467 67.8681 140.483 67.6943 140.548 67.5362C140.613 67.3781 140.724 67.2429 140.866 67.1477C141.008 67.0526 141.175 67.0018 141.346 67.0018C141.459 67.001 141.572 67.0225 141.676 67.0651C141.781 67.1078 141.876 67.1708 141.956 67.2504C142.037 67.33 142.1 67.4248 142.144 67.5291C142.187 67.6335 142.21 67.7454 142.21 67.8585V67.8585Z" fill="#EBEBEB"/>
<path d="M97.4564 20.1654C97.4564 20.3361 97.4057 20.503 97.3109 20.645C97.2161 20.7869 97.0813 20.8975 96.9235 20.9629C96.7658 21.0282 96.5923 21.0453 96.4248 21.012C96.2574 20.9787 96.1036 20.8965 95.9829 20.7758C95.8622 20.655 95.78 20.5012 95.7467 20.3338C95.7134 20.1664 95.7305 19.9928 95.7958 19.8351C95.8611 19.6774 95.9718 19.5426 96.1137 19.4478C96.2556 19.3529 96.4225 19.3023 96.5932 19.3023C96.8216 19.304 97.0402 19.3955 97.2017 19.557C97.3632 19.7185 97.4547 19.937 97.4564 20.1654V20.1654Z" fill="#F5F5F5"/>
<path d="M98.8232 230.526C101.387 229.921 102.975 227.352 102.37 224.788C101.765 222.224 99.1957 220.636 96.6318 221.241C94.0679 221.846 92.4799 224.415 93.0851 226.979C93.6902 229.543 96.2593 231.131 98.8232 230.526Z" fill="#F0F0F0"/>
<path d="M96.087 223.093C95.1099 223.091 94.1575 223.4 93.3678 223.975C92.9645 224.901 92.8655 225.93 93.085 226.915C93.3046 227.9 93.8314 228.79 94.5895 229.457C95.3475 230.123 96.2976 230.531 97.3028 230.623C98.3079 230.714 99.3161 230.484 100.182 229.965C100.182 229.965 100.182 229.965 100.182 229.965C100.565 229.256 100.758 228.46 100.741 227.654C100.724 226.849 100.498 226.061 100.085 225.369C99.6723 224.677 99.0868 224.104 98.386 223.706C97.6851 223.308 96.8929 223.099 96.087 223.099V223.093Z" fill="#E6E6E6"/>
<path d="M59.1475 142.977H19.6575V125.15L59.1475 78.2031H78.0456V126.162H87.8386V142.977H78.0456V157.566H59.1475V142.977ZM59.1475 126.162V101.605L38.2765 126.162H59.1475Z" fill="#407BFF"/>
<path d="M94.5944 118.232C94.5944 103.396 97.2639 93.0127 102.603 87.081C107.942 81.1494 116.078 78.1858 127.011 78.1901C132.259 78.1901 136.57 78.8391 139.945 80.137C143.01 81.2417 145.817 82.9621 148.193 85.1925C150.196 87.1044 151.892 89.3129 153.223 91.7407C154.54 94.2754 155.532 96.9661 156.175 99.749C157.643 105.694 158.375 111.797 158.356 117.92C158.356 132.077 155.961 142.436 151.172 149C146.383 155.563 138.134 158.847 126.427 158.851C119.859 158.851 114.553 157.804 110.507 155.71C106.43 153.582 102.995 150.403 100.559 146.501C98.6765 143.628 97.212 139.698 96.165 134.709C95.078 129.285 94.5517 123.764 94.5944 118.232V118.232ZM116.101 118.284C116.101 128.235 116.978 135.021 118.73 138.642C120.482 142.263 123.028 144.083 126.368 144.1C127.428 144.112 128.48 143.913 129.462 143.515C130.445 143.118 131.339 142.529 132.092 141.783C133.71 140.238 134.9 137.798 135.661 134.463C136.423 131.127 136.804 125.935 136.804 118.887C136.804 108.53 135.925 101.566 134.169 97.9968C132.412 94.4274 129.777 92.6449 126.264 92.6492C122.682 92.6492 120.086 94.4685 118.477 98.1071C116.867 101.746 116.075 108.471 116.101 118.284Z" fill="#407BFF"/>
<path d="M204.556 142.977H165.066V125.15L204.556 78.2031H223.454V126.162H233.28V142.977H223.454V157.566H204.556V142.977ZM204.556 126.162V101.605L183.692 126.162H204.556Z" fill="#407BFF"/>
<g opacity="0.3">
<path opacity="0.3" d="M93.7506 50.8099C93.7506 51.0502 93.6793 51.2851 93.5457 51.4848C93.412 51.6845 93.2221 51.8401 93 51.9317C92.7778 52.0234 92.5335 52.0471 92.2979 51.9997C92.0623 51.9523 91.8461 51.8361 91.6766 51.6657C91.5072 51.4954 91.3921 51.2785 91.346 51.0427C91.2999 50.8068 91.3249 50.5626 91.4177 50.341C91.5106 50.1194 91.6671 49.9303 91.8676 49.7977C92.068 49.6651 92.3033 49.5951 92.5436 49.5963C92.7026 49.5963 92.8601 49.6278 93.007 49.6888C93.1539 49.7499 93.2872 49.8394 93.3994 49.9522C93.5116 50.065 93.6004 50.1988 93.6606 50.346C93.7209 50.4932 93.7515 50.6509 93.7506 50.8099V50.8099Z" fill="#407BFF"/>
<path opacity="0.3" d="M10.6627 97.4257C11.1358 97.4257 11.5193 97.0421 11.5193 96.569C11.5193 96.0959 11.1358 95.7124 10.6627 95.7124C10.1896 95.7124 9.80603 96.0959 9.80603 96.569C9.80603 97.0421 10.1896 97.4257 10.6627 97.4257Z" fill="#407BFF"/>
<path opacity="0.3" d="M152.191 222.528C152.868 222.528 153.417 221.979 153.417 221.302C153.417 220.624 152.868 220.075 152.191 220.075C151.513 220.075 150.964 220.624 150.964 221.302C150.964 221.979 151.513 222.528 152.191 222.528Z" fill="#407BFF"/>
<path opacity="0.3" d="M181.686 172.622C182.16 172.622 182.543 172.239 182.543 171.766C182.543 171.292 182.16 170.909 181.686 170.909C181.213 170.909 180.83 171.292 180.83 171.766C180.83 172.239 181.213 172.622 181.686 172.622Z" fill="#407BFF"/>
<path opacity="0.3" d="M238.582 18.3613C238.582 18.5307 238.532 18.6963 238.438 18.8372C238.343 18.9781 238.21 19.0879 238.053 19.1527C237.897 19.2176 237.724 19.2345 237.558 19.2015C237.392 19.1684 237.239 19.0868 237.12 18.967C237 18.8472 236.918 18.6946 236.885 18.5284C236.852 18.3622 236.869 18.19 236.934 18.0335C236.999 17.8769 237.108 17.7431 237.249 17.649C237.39 17.5549 237.556 17.5046 237.725 17.5046C237.952 17.5046 238.17 17.5949 238.331 17.7555C238.492 17.9162 238.582 18.1341 238.582 18.3613V18.3613Z" fill="#407BFF"/>
<path opacity="0.3" d="M75.4171 1.08562C75.4171 1.25505 75.3669 1.42067 75.2728 1.56155C75.1786 1.70242 75.0449 1.81222 74.8883 1.87706C74.7318 1.94189 74.5596 1.95886 74.3934 1.92581C74.2272 1.89275 74.0746 1.81116 73.9548 1.69136C73.835 1.57156 73.7534 1.41892 73.7203 1.25275C73.6873 1.08657 73.7042 0.914329 73.7691 0.757798C73.8339 0.601266 73.9437 0.467476 74.0846 0.373346C74.2254 0.279217 74.3911 0.228977 74.5605 0.228977C74.7872 0.230675 75.0041 0.321474 75.1644 0.481759C75.3247 0.642045 75.4154 0.85895 75.4171 1.08562V1.08562Z" fill="#407BFF"/>
<path opacity="0.3" d="M143.527 46.0335C144 46.0335 144.384 45.65 144.384 45.1769C144.384 44.7037 144 44.3202 143.527 44.3202C143.054 44.3202 142.67 44.7037 142.67 45.1769C142.67 45.65 143.054 46.0335 143.527 46.0335Z" fill="#407BFF"/>
</g>
<path d="M54.9616 46.04C62.8145 46.04 69.1806 39.6739 69.1806 31.821C69.1806 23.968 62.8145 17.602 54.9616 17.602C47.1086 17.602 40.7426 23.968 40.7426 31.821C40.7426 39.6739 47.1086 46.04 54.9616 46.04Z" fill="#407BFF"/>
<path opacity="0.7" d="M54.9616 46.04C62.8145 46.04 69.1806 39.6739 69.1806 31.821C69.1806 23.968 62.8145 17.602 54.9616 17.602C47.1086 17.602 40.7426 23.968 40.7426 31.821C40.7426 39.6739 47.1086 46.04 54.9616 46.04Z" fill="white"/>
<path opacity="0.2" d="M50.0618 21.0935C48.1253 21.0875 46.2082 21.4785 44.4287 22.2421C42.2417 24.6459 40.9436 27.726 40.7504 30.97C40.5572 34.214 41.4806 37.4264 43.3669 40.0727C45.2532 42.719 47.9887 44.6397 51.1184 45.5152C54.248 46.3907 57.583 46.1682 60.5687 44.8848V44.8848C62.4197 42.8449 63.6387 40.3113 64.0776 37.5919C64.5165 34.8725 64.1564 32.0841 63.041 29.5654C61.9256 27.0467 60.103 24.906 57.7943 23.4032C55.4857 21.9005 52.7905 21.1003 50.0358 21.1L50.0618 21.0935Z" fill="#407BFF"/>
<path opacity="0.2" d="M48.647 24.851C48.647 25.1077 48.5709 25.3587 48.4283 25.5721C48.2857 25.7856 48.083 25.9519 47.8458 26.0502C47.6086 26.1484 47.3477 26.1741 47.0959 26.124C46.8441 26.0739 46.6128 25.9503 46.4313 25.7688C46.2498 25.5873 46.1262 25.356 46.0761 25.1042C46.026 24.8525 46.0517 24.5915 46.15 24.3543C46.2482 24.1171 46.4145 23.9144 46.628 23.7718C46.8414 23.6292 47.0924 23.5531 47.3491 23.5531C47.6933 23.5531 48.0235 23.6898 48.2669 23.9332C48.5103 24.1766 48.647 24.5068 48.647 24.851Z" fill="#407BFF"/>
<path opacity="0.2" d="M63.9368 23.5531C63.9368 23.8098 63.8607 24.0607 63.7181 24.2742C63.5755 24.4876 63.3728 24.654 63.1356 24.7522C62.8984 24.8505 62.6374 24.8762 62.3857 24.8261C62.1339 24.776 61.9026 24.6524 61.7211 24.4709C61.5396 24.2893 61.416 24.0581 61.3659 23.8063C61.3158 23.5545 61.3415 23.2935 61.4397 23.0564C61.538 22.8192 61.7043 22.6165 61.9178 22.4739C62.1312 22.3312 62.3822 22.2551 62.6389 22.2551C62.9831 22.2551 63.3133 22.3919 63.5567 22.6353C63.8001 22.8787 63.9368 23.2088 63.9368 23.5531Z" fill="#407BFF"/>
<path opacity="0.2" d="M61.341 32.8204C61.341 33.2414 61.2162 33.653 60.9823 34.003C60.7484 34.3531 60.4159 34.6259 60.027 34.787C59.638 34.9481 59.21 34.9903 58.7971 34.9081C58.3842 34.826 58.0049 34.6233 57.7072 34.3256C57.4095 34.0279 57.2068 33.6486 57.1246 33.2357C57.0425 32.8228 57.0847 32.3948 57.2458 32.0058C57.4069 31.6169 57.6797 31.2844 58.0298 31.0505C58.3798 30.8166 58.7914 30.6918 59.2124 30.6918C59.7769 30.6918 60.3183 30.916 60.7175 31.3152C61.1167 31.7144 61.341 32.2559 61.341 32.8204V32.8204Z" fill="#407BFF"/>
<path opacity="0.2" d="M54.5787 38.8883C54.5787 39.4505 54.412 40.0001 54.0996 40.4675C53.7873 40.935 53.3434 41.2993 52.824 41.5144C52.3046 41.7296 51.733 41.7859 51.1816 41.6762C50.6302 41.5665 50.1238 41.2958 49.7262 40.8982C49.3287 40.5007 49.058 39.9942 48.9483 39.4428C48.8386 38.8915 48.8949 38.3199 49.1101 37.8005C49.3252 37.2811 49.6895 36.8372 50.157 36.5248C50.6244 36.2125 51.174 36.0458 51.7362 36.0458C52.4901 36.0458 53.2131 36.3453 53.7461 36.8783C54.2792 37.4114 54.5787 38.1344 54.5787 38.8883V38.8883Z" fill="#407BFF"/>
<path d="M223.48 203.336C225.063 196.627 220.909 189.906 214.201 188.323C207.493 186.74 200.771 190.894 199.188 197.602C197.605 204.31 201.759 211.032 208.467 212.615C215.176 214.198 221.897 210.044 223.48 203.336Z" fill="#407BFF"/>
<path opacity="0.3" d="M223.48 203.336C225.063 196.627 220.909 189.906 214.201 188.323C207.493 186.74 200.771 190.894 199.188 197.602C197.605 204.31 201.759 211.032 208.467 212.615C215.176 214.198 221.897 210.044 223.48 203.336Z" fill="white"/>
<path opacity="0.4" d="M219.217 190.806C216.45 189.971 213.479 190.123 210.812 191.235C208.145 192.347 205.947 194.351 204.593 196.904C203.239 199.457 202.814 202.401 203.389 205.232C203.965 208.064 205.506 210.608 207.749 212.43C208.913 212.784 210.122 212.963 211.338 212.962C213.914 212.962 216.428 212.164 218.532 210.678C220.637 209.192 222.23 207.091 223.094 204.664C223.957 202.236 224.048 199.601 223.353 197.12C222.659 194.639 221.214 192.433 219.217 190.806V190.806Z" fill="#407BFF"/>
<path d="M199.423 204.214C186.1 210.483 196.035 215.318 214.81 208.569C232.196 202.319 238.822 194.441 223.247 196.887C224.084 200.165 202.311 208.647 199.423 204.214Z" fill="#407BFF"/>
<path opacity="0.2" d="M219.067 78.2031C201.617 89.9949 179.026 105.57 172.789 142.977H171.459C177.527 105.986 199.293 90.0404 216.751 78.2031H219.067Z" fill="black"/>
<path d="M128.795 195.304C117.763 195.304 106.854 190.326 101.538 182.201C98.2611 177.178 94.4516 166.658 105.796 152.621L106.802 153.439C98.7803 163.368 97.3006 173.33 102.629 181.494C109.118 191.423 124.428 196.42 137.498 192.864C150.886 189.223 159.011 177.58 159.797 160.921C162.477 103.935 192.752 86.3801 214.856 73.5629C228.594 65.6 238.517 59.8501 236.337 47.7078C236.032 46.027 235.363 44.8653 234.279 44.1515C231.456 42.2889 225.94 43.5804 219.554 45.0665C207.022 47.9869 189.864 51.9846 179.642 34.5986L180.765 33.9496C190.5 50.5179 206.445 46.7993 219.262 43.814C225.94 42.263 231.703 40.9196 234.993 43.0807C236.389 43.9957 237.245 45.4429 237.589 47.4937C239.932 60.5251 229.152 66.7812 215.492 74.6986C193.641 87.3666 163.723 104.714 161.075 161.012C160.257 178.275 151.782 190.352 137.816 194.149C134.874 194.932 131.84 195.321 128.795 195.304Z" fill="#407BFF"/>
<path opacity="0.2" d="M128.795 195.304C117.763 195.304 106.854 190.326 101.538 182.201C98.2611 177.178 94.4516 166.658 105.796 152.621L106.802 153.439C98.7803 163.368 97.3006 173.33 102.629 181.494C109.118 191.423 124.428 196.42 137.498 192.864C150.886 189.223 159.011 177.58 159.797 160.921C162.477 103.935 192.752 86.3801 214.856 73.5629C228.594 65.6 238.517 59.8501 236.337 47.7078C236.032 46.027 235.363 44.8653 234.279 44.1515C231.456 42.2889 225.94 43.5804 219.554 45.0665C207.022 47.9869 189.864 51.9846 179.642 34.5986L180.765 33.9496C190.5 50.5179 206.445 46.7993 219.262 43.814C225.94 42.263 231.703 40.9196 234.993 43.0807C236.389 43.9957 237.245 45.4429 237.589 47.4937C239.932 60.5251 229.152 66.7812 215.492 74.6986C193.641 87.3666 163.723 104.714 161.075 161.012C160.257 178.275 151.782 190.352 137.816 194.149C134.874 194.932 131.84 195.321 128.795 195.304Z" fill="white"/>
<path d="M166.28 19.2569C169.27 19.2741 172.241 19.7401 175.093 20.6392C175.093 20.6392 182.232 32.8204 183.075 35.611C182.777 38.3626 178.137 42.873 178.137 42.873L166.28 19.2569Z" fill="#407BFF"/>
<path opacity="0.3" d="M166.28 19.2569C169.27 19.2741 172.241 19.7401 175.093 20.6392C175.093 20.6392 182.232 32.8204 183.075 35.611C182.777 38.3626 178.137 42.873 178.137 42.873L166.28 19.2569Z" fill="white"/>
<path d="M187.423 78.3978C184.674 75.0363 182.167 71.484 179.921 67.7676C179.376 66.8288 178.859 65.8726 178.37 64.8991C178.091 64.3475 177.825 63.7959 177.566 63.2378C177.225 62.6947 176.961 62.1072 176.78 61.492C176.002 53.2695 178.818 47.2146 176.131 40.6146L165.436 44.794C165.436 44.794 166.345 56.5533 168.422 63.6142C169.72 67.9818 172.627 71.7588 175.437 75.2567C176.313 76.347 177.157 77.4697 178.033 78.5665C178.909 79.6633 179.792 80.5524 180.629 81.5842C181.894 83.1483 182.31 84.6474 181.356 86.4905L181.193 86.7825C180.921 87.2627 182.193 87.8079 182.997 86.7825C184.295 85.1082 184.114 85.212 185.243 83.7842C185.931 82.9211 186.716 81.9801 187.398 81.1884C187.726 80.7991 187.909 80.3072 187.913 79.7978C187.918 79.2883 187.745 78.7931 187.423 78.3978V78.3978Z" fill="#407BFF"/>
<path opacity="0.7" d="M187.423 78.3978C184.674 75.0363 182.167 71.484 179.921 67.7676C179.376 66.8288 178.859 65.8726 178.37 64.8991C178.091 64.3475 177.825 63.7959 177.566 63.2378C177.225 62.6947 176.961 62.1072 176.78 61.492C176.002 53.2695 178.818 47.2146 176.131 40.6146L165.436 44.794C165.436 44.794 166.345 56.5533 168.422 63.6142C169.72 67.9818 172.627 71.7588 175.437 75.2567C176.313 76.347 177.157 77.4697 178.033 78.5665C178.909 79.6633 179.792 80.5524 180.629 81.5842C181.894 83.1483 182.31 84.6474 181.356 86.4905L181.193 86.7825C180.921 87.2627 182.193 87.8079 182.997 86.7825C184.295 85.1082 184.114 85.212 185.243 83.7842C185.931 82.9211 186.716 81.9801 187.398 81.1884C187.726 80.7991 187.909 80.3072 187.913 79.7978C187.918 79.2883 187.745 78.7931 187.423 78.3978V78.3978Z" fill="white"/>
<path opacity="0.3" d="M184.808 75.0166C183.111 76.8359 181.227 78.4716 179.188 79.8969C179.467 80.2084 179.74 80.5459 180.019 80.8444C182.06 79.4651 183.915 77.8268 185.535 75.9706L184.808 75.0166Z" fill="#407BFF"/>
<path opacity="0.3" d="M187.423 78.3978L187.346 78.3069C186.846 78.8798 186.556 79.605 186.521 80.3642C186.48 80.885 186.564 81.4082 186.768 81.8892L187.385 81.1559C187.707 80.7706 187.887 80.286 187.894 79.7838C187.901 79.2815 187.735 78.7921 187.423 78.3978V78.3978Z" fill="#407BFF"/>
<path d="M163.736 27.0445C162.577 28.7806 161.186 30.3505 159.602 31.7107C158.724 32.4676 157.761 33.1209 156.734 33.6576C156.194 33.9342 155.634 34.1707 155.059 34.365L154.618 34.5077L154.475 34.5467L154.17 34.631C153.982 34.6756 153.791 34.706 153.599 34.7219C153.052 34.7638 152.501 34.7133 151.97 34.5726C151.301 34.3826 150.659 34.1055 150.062 33.7484C149.582 33.4676 149.116 33.1621 148.667 32.8334C147.855 32.2299 147.08 31.5798 146.344 30.8865C144.924 29.5414 143.621 28.0781 142.45 26.5124C142.224 26.2074 142.112 25.8331 142.133 25.4543C142.154 25.0755 142.306 24.7158 142.564 24.4374C142.821 24.1589 143.168 23.9791 143.544 23.9291C143.92 23.879 144.302 23.9618 144.624 24.1631H144.676C146.207 25.1366 147.752 26.1619 149.257 27.077C150.023 27.5248 150.763 27.9791 151.496 28.3295C151.831 28.5048 152.176 28.6608 152.528 28.7968C152.748 28.8937 152.983 28.9509 153.223 28.9655C153.262 28.9655 153.223 28.9201 152.983 28.9266C152.907 28.922 152.831 28.922 152.755 28.9266L152.613 28.959L152.827 28.8487C153.115 28.6935 153.395 28.5224 153.664 28.336C154.245 27.9266 154.788 27.4661 155.286 26.9602C156.42 25.772 157.482 24.5173 158.466 23.2026C159.006 22.5993 159.751 22.2192 160.556 22.137C161.361 22.0548 162.168 22.2763 162.818 22.7582C163.468 23.2402 163.915 23.9476 164.07 24.7418C164.226 25.536 164.079 26.3596 163.658 27.051L163.736 27.0445Z" fill="#407BFF"/>
<path opacity="0.7" d="M163.736 27.0445C162.577 28.7806 161.186 30.3505 159.602 31.7107C158.724 32.4676 157.761 33.1209 156.734 33.6576C156.194 33.9342 155.634 34.1707 155.059 34.365L154.618 34.5077L154.475 34.5467L154.17 34.631C153.982 34.6756 153.791 34.706 153.599 34.7219C153.052 34.7638 152.501 34.7133 151.97 34.5726C151.301 34.3826 150.659 34.1055 150.062 33.7484C149.582 33.4676 149.116 33.1621 148.667 32.8334C147.855 32.2299 147.08 31.5798 146.344 30.8865C144.924 29.5414 143.621 28.0781 142.45 26.5124C142.224 26.2074 142.112 25.8331 142.133 25.4543C142.154 25.0755 142.306 24.7158 142.564 24.4374C142.821 24.1589 143.168 23.9791 143.544 23.9291C143.92 23.879 144.302 23.9618 144.624 24.1631H144.676C146.207 25.1366 147.752 26.1619 149.257 27.077C150.023 27.5248 150.763 27.9791 151.496 28.3295C151.831 28.5048 152.176 28.6608 152.528 28.7968C152.748 28.8937 152.983 28.9509 153.223 28.9655C153.262 28.9655 153.223 28.9201 152.983 28.9266C152.907 28.922 152.831 28.922 152.755 28.9266L152.613 28.959L152.827 28.8487C153.115 28.6935 153.395 28.5224 153.664 28.336C154.245 27.9266 154.788 27.4661 155.286 26.9602C156.42 25.772 157.482 24.5173 158.466 23.2026C159.006 22.5993 159.751 22.2192 160.556 22.137C161.361 22.0548 162.168 22.2763 162.818 22.7582C163.468 23.2402 163.915 23.9476 164.07 24.7418C164.226 25.536 164.079 26.3596 163.658 27.051L163.736 27.0445Z" fill="white"/>
<path d="M140.016 22.7743L140.775 24.0722C140.775 24.0722 141.353 25.7726 142.515 26.0841L145.669 25.0652L145.506 24.7991C145.104 24.1891 145.149 23.0014 145.286 22.015C145.422 21.0286 144.916 20.9961 144.539 21.2427C144.273 21.5496 144.085 21.9173 143.994 22.3135C143.839 22.0992 143.668 21.8974 143.481 21.71L142.521 20.7495C142.32 20.5526 142.051 20.4391 141.769 20.4319C141.488 20.4246 141.214 20.5242 141.002 20.7106L140.224 21.405C140.039 21.5758 139.918 21.8044 139.88 22.0533C139.842 22.3021 139.89 22.5563 140.016 22.7743V22.7743Z" fill="#407BFF"/>
<path opacity="0.7" d="M140.016 22.7743L140.775 24.0722C140.775 24.0722 141.353 25.7726 142.515 26.0841L145.669 25.0652L145.506 24.7991C145.104 24.1891 145.149 23.0014 145.286 22.015C145.422 21.0286 144.916 20.9961 144.539 21.2427C144.273 21.5496 144.085 21.9173 143.994 22.3135C143.839 22.0992 143.668 21.8974 143.481 21.71L142.521 20.7495C142.32 20.5526 142.051 20.4391 141.769 20.4319C141.488 20.4246 141.214 20.5242 141.002 20.7106L140.224 21.405C140.039 21.5758 139.918 21.8044 139.88 22.0533C139.842 22.3021 139.89 22.5563 140.016 22.7743V22.7743Z" fill="white"/>
<path d="M169.466 18.1017C165.968 19.029 162.617 20.4424 159.511 22.3005C159.027 22.6038 158.646 23.0479 158.421 23.5733C158.196 24.0988 158.137 24.6805 158.252 25.2404C159.505 31.3667 162.354 39.5697 165.43 44.794L179.779 38.8558C179.876 36.3249 176.391 28.1348 172.841 20.2173C172.205 18.7961 170.978 17.7383 169.466 18.1017Z" fill="#407BFF"/>
<path opacity="0.8" d="M169.466 18.1017C165.968 19.029 162.617 20.4424 159.511 22.3005C159.027 22.6038 158.646 23.0479 158.421 23.5733C158.196 24.0988 158.137 24.6805 158.252 25.2404C159.505 31.3667 162.354 39.5697 165.43 44.794L179.779 38.8558C179.876 36.3249 176.391 28.1348 172.841 20.2173C172.205 18.7961 170.978 17.7383 169.466 18.1017Z" fill="white"/>
<path opacity="0.3" d="M175.067 25.2339L172.218 24.2799C172.867 25.9478 175.158 28.0569 176.761 29.2965C176.242 27.9985 175.664 26.6357 175.067 25.2339Z" fill="#407BFF"/>
<path d="M168.525 11.6769C167.338 9.41844 164.774 8.28274 161.698 8.53584C159.102 8.75649 156.805 11.4043 157.078 12.832C157.35 14.2598 159.531 14.8698 159.946 15.363L158.148 16.661C157.935 16.8147 157.756 17.0099 157.62 17.2348C157.485 17.4598 157.396 17.7098 157.36 17.9699C157.323 18.23 157.34 18.4948 157.409 18.7483C157.477 19.0018 157.596 19.2388 157.759 19.4451C158.518 20.4056 159.518 21.392 160.095 22.1188C165.066 21.989 168.746 20.094 170.077 18.2704C169.577 15.9601 169.681 13.9223 168.525 11.6769Z" fill="#407BFF"/>
<path opacity="0.8" d="M168.525 11.6769C167.338 9.41844 164.774 8.28274 161.698 8.53584C159.102 8.75649 156.805 11.4043 157.078 12.832C157.35 14.2598 159.531 14.8698 159.946 15.363L158.148 16.661C157.935 16.8147 157.756 17.0099 157.62 17.2348C157.485 17.4598 157.396 17.7098 157.36 17.9699C157.323 18.23 157.34 18.4948 157.409 18.7483C157.477 19.0018 157.596 19.2388 157.759 19.4451C158.518 20.4056 159.518 21.392 160.095 22.1188C165.066 21.989 168.746 20.094 170.077 18.2704C169.577 15.9601 169.681 13.9223 168.525 11.6769Z" fill="white"/>
<path d="M166.085 13.0786C166.438 13.9837 166.515 14.9731 166.306 15.9217C166.096 16.8703 165.61 17.7356 164.91 18.4082C164.209 19.0807 163.324 19.5304 162.367 19.7003C161.411 19.8702 160.426 19.7528 159.536 19.3628C158.646 18.9728 157.892 18.3278 157.369 17.5093C156.846 16.6908 156.577 15.7356 156.596 14.7643C156.616 13.7931 156.923 12.8495 157.479 12.0527C158.035 11.256 158.814 10.6419 159.719 10.2881C160.933 9.81498 162.286 9.84313 163.479 10.3663C164.673 10.8895 165.61 11.865 166.085 13.0786V13.0786Z" fill="#263238"/>
<path d="M208.223 71.5641C208.152 69.429 208.054 69.6172 207.996 67.8195C207.957 66.7163 207.95 65.4897 207.944 64.4319C207.942 63.9295 207.766 63.4433 207.447 63.0555C207.128 62.6676 206.684 62.4019 206.192 62.3032C205.335 62.128 204.472 61.9658 203.596 61.7841C202.473 61.5439 201.363 61.2844 200.267 60.9664C199.41 60.7198 198.566 60.4472 197.729 60.1422C196.892 59.8371 195.951 59.4932 195.081 59.0908C194.056 58.656 193.044 58.1888 192.044 57.702C190.921 57.1699 189.812 56.6118 188.702 56.0471C184.432 48.9798 184.341 44.3202 179.759 38.8558L169.921 43.3078C169.921 43.3078 177.15 56.1315 182.069 61.5699C184.905 64.698 189.351 66.1127 193.316 67.1381C196.178 67.8714 199.079 68.436 201.98 68.9747C203.109 69.1824 204.336 69.2602 205.309 69.9352C206.029 70.4874 206.523 71.2835 206.698 72.1741C206.741 72.3558 206.78 72.5376 206.815 72.7193C206.938 73.2644 208.268 72.8491 208.223 71.5641Z" fill="#407BFF"/>
<path opacity="0.8" d="M208.223 71.5641C208.152 69.429 208.054 69.6172 207.996 67.8195C207.957 66.7163 207.95 65.4897 207.944 64.4319C207.942 63.9295 207.766 63.4433 207.447 63.0555C207.128 62.6676 206.684 62.4019 206.192 62.3032C205.335 62.128 204.472 61.9658 203.596 61.7841C202.473 61.5439 201.363 61.2844 200.267 60.9664C199.41 60.7198 198.566 60.4472 197.729 60.1422C196.892 59.8371 195.951 59.4932 195.081 59.0908C194.056 58.656 193.044 58.1888 192.044 57.702C190.921 57.1699 189.812 56.6118 188.702 56.0471C184.432 48.9798 184.341 44.3202 179.759 38.8558L169.921 43.3078C169.921 43.3078 177.15 56.1315 182.069 61.5699C184.905 64.698 189.351 66.1127 193.316 67.1381C196.178 67.8714 199.079 68.436 201.98 68.9747C203.109 69.1824 204.336 69.2602 205.309 69.9352C206.029 70.4874 206.523 71.2835 206.698 72.1741C206.741 72.3558 206.78 72.5376 206.815 72.7193C206.938 73.2644 208.268 72.8491 208.223 71.5641Z" fill="white"/>
<path opacity="0.3" d="M203.233 61.6997C202.843 61.6153 202.454 61.531 202.058 61.4336C202.09 63.6791 201.039 67.5469 200.656 68.7216L201.889 68.9552C202.697 66.6175 203.15 64.1718 203.233 61.6997V61.6997Z" fill="#407BFF"/>
<path opacity="0.3" d="M207.97 64.4319C207.968 63.9304 207.794 63.445 207.476 63.0572C207.158 62.6695 206.716 62.4032 206.224 62.3032L205.575 62.1799C205.68 62.9177 206.057 63.5894 206.633 64.062C207.004 64.4045 207.448 64.6575 207.931 64.8018C207.97 64.685 207.97 64.5552 207.97 64.4319Z" fill="#407BFF"/>
<path d="M165.17 13.1176C165.43 14.104 164.327 15.1359 163.45 14.2857C162.633 13.409 161.738 12.6075 160.777 11.891C159.875 11.3264 161.075 10.34 162.496 10.7229C163.103 10.8752 163.663 11.1728 164.129 11.59C164.595 12.0072 164.952 12.5315 165.17 13.1176V13.1176Z" fill="white"/>
<path d="M165.242 44.476C164.787 44.6447 165.618 45.4235 165.618 45.4235C165.618 45.4235 174.704 42.3149 180.22 39.1154C180.233 38.9217 180.2 38.7277 180.123 38.5493C180.047 38.371 179.928 38.2135 179.779 38.0901C175.057 40.4916 170.204 42.6237 165.242 44.476V44.476Z" fill="#407BFF"/>
<path opacity="0.5" d="M165.242 44.476C164.787 44.6447 165.618 45.4235 165.618 45.4235C165.618 45.4235 174.704 42.3149 180.22 39.1154C180.233 38.9217 180.2 38.7277 180.123 38.5493C180.047 38.371 179.928 38.2135 179.779 38.0901C175.057 40.4916 170.204 42.6237 165.242 44.476V44.476Z" fill="white"/>
<path d="M171.926 17.6734C173.717 18.5819 175.398 19.5359 177.118 20.5938C177.955 21.1259 178.786 21.6646 179.61 22.2486C180.434 22.8327 181.252 23.4298 182.076 24.1047L182.381 24.3578L182.764 24.7082C182.992 24.9124 183.209 25.129 183.413 25.3572C183.62 25.5844 183.796 25.805 183.964 26.0062C184.133 26.2074 184.315 26.4475 184.464 26.6552C185.069 27.4895 185.628 28.356 186.138 29.2511C187.144 30.9866 188.012 32.7985 188.734 34.67C188.868 35.0236 188.875 35.4125 188.754 35.7706C188.633 36.1287 188.392 36.4339 188.071 36.6343C187.751 36.8346 187.371 36.9178 186.996 36.8697C186.621 36.8216 186.275 36.6451 186.015 36.3703L185.983 36.3313C184.685 34.949 183.432 33.4953 182.173 32.139C180.914 30.7826 179.636 29.4068 178.578 28.8033C177.105 27.8882 175.463 26.9732 173.834 26.0776L168.928 23.3519C168.167 22.9491 167.597 22.2607 167.344 21.4379C167.091 20.6152 167.175 19.7256 167.578 18.9648C167.981 18.2041 168.669 17.6345 169.492 17.3813C170.315 17.1282 171.204 17.2122 171.965 17.615L171.926 17.6734Z" fill="#407BFF"/>
<path opacity="0.8" d="M171.926 17.6734C173.717 18.5819 175.398 19.5359 177.118 20.5938C177.955 21.1259 178.786 21.6646 179.61 22.2486C180.434 22.8327 181.252 23.4298 182.076 24.1047L182.381 24.3578L182.764 24.7082C182.992 24.9124 183.209 25.129 183.413 25.3572C183.62 25.5844 183.796 25.805 183.964 26.0062C184.133 26.2074 184.315 26.4475 184.464 26.6552C185.069 27.4895 185.628 28.356 186.138 29.2511C187.144 30.9866 188.012 32.7985 188.734 34.67C188.868 35.0236 188.875 35.4125 188.754 35.7706C188.633 36.1287 188.392 36.4339 188.071 36.6343C187.751 36.8346 187.371 36.9178 186.996 36.8697C186.621 36.8216 186.275 36.6451 186.015 36.3703L185.983 36.3313C184.685 34.949 183.432 33.4953 182.173 32.139C180.914 30.7826 179.636 29.4068 178.578 28.8033C177.105 27.8882 175.463 26.9732 173.834 26.0776L168.928 23.3519C168.167 22.9491 167.597 22.2607 167.344 21.4379C167.091 20.6152 167.175 19.7256 167.578 18.9648C167.981 18.2041 168.669 17.6345 169.492 17.3813C170.315 17.1282 171.204 17.2122 171.965 17.615L171.926 17.6734Z" fill="white"/>
<path d="M190.272 37.9083L189.721 36.526C189.721 36.526 189.416 34.7608 188.319 34.2676L185.074 34.7803L185.184 35.0658C185.483 35.7148 185.256 36.9024 184.964 37.8499C184.672 38.7974 185.165 38.9208 185.58 38.7325C185.814 38.6287 186.041 38.2069 186.288 37.7591C186.409 37.9847 186.545 38.2015 186.697 38.4081L187.495 39.5048C187.662 39.7321 187.908 39.8879 188.185 39.9408C188.462 39.9938 188.749 39.94 188.987 39.7904L189.87 39.2258C190.077 39.0844 190.229 38.877 190.302 38.6376C190.375 38.3982 190.365 38.141 190.272 37.9083V37.9083Z" fill="#407BFF"/>
<path opacity="0.8" d="M190.272 37.9083L189.721 36.526C189.721 36.526 189.416 34.7608 188.319 34.2676L185.074 34.7803L185.184 35.0658C185.483 35.7148 185.256 36.9024 184.964 37.8499C184.672 38.7974 185.165 38.9208 185.58 38.7325C185.814 38.6287 186.041 38.2069 186.288 37.7591C186.409 37.9847 186.545 38.2015 186.697 38.4081L187.495 39.5048C187.662 39.7321 187.908 39.8879 188.185 39.9408C188.462 39.9938 188.749 39.94 188.987 39.7904L189.87 39.2258C190.077 39.0844 190.229 38.877 190.302 38.6376C190.375 38.3982 190.365 38.141 190.272 37.9083V37.9083Z" fill="white"/>
<path opacity="0.3" d="M169.187 25.1366L168.396 25.2015L163.535 36.9349C163.8 36.954 164.068 36.9321 164.327 36.87C164.327 36.87 170.661 34.5077 172.575 33.6251C171.29 30.9708 169.187 25.1366 169.187 25.1366Z" fill="#407BFF"/>
<path d="M160.316 28.2127C160.907 31.2799 162.003 34.2275 163.561 36.9349C165.936 36.1172 169.895 34.5726 171.816 33.69C170.525 30.9221 169.379 28.0887 168.383 25.2015C166.351 25.3377 161.893 27.0445 160.316 28.2127Z" fill="white"/>
<path opacity="0.3" d="M165.138 30.7502C165.043 31.0675 164.856 31.3496 164.601 31.5608C164.346 31.7719 164.033 31.9026 163.704 31.9363C163.374 31.97 163.042 31.9052 162.75 31.7501C162.457 31.595 162.217 31.3566 162.06 31.065C161.903 30.7734 161.835 30.4417 161.867 30.112C161.898 29.7822 162.027 29.4692 162.236 29.2125C162.445 28.9558 162.726 28.7669 163.043 28.6698C163.359 28.5727 163.698 28.5717 164.015 28.667C164.44 28.7946 164.797 29.0856 165.008 29.4763C165.218 29.8669 165.265 30.325 165.138 30.7502V30.7502Z" fill="#407BFF"/>
<path opacity="0.6" d="M166.377 28.5177C166.352 28.626 166.295 28.7242 166.212 28.7993C166.13 28.8744 166.028 28.9229 165.917 28.9385C165.807 28.9541 165.695 28.936 165.595 28.8866C165.496 28.8372 165.413 28.7589 165.359 28.6618C165.304 28.5648 165.281 28.4535 165.291 28.3427C165.301 28.2319 165.344 28.1268 165.415 28.041C165.486 27.9552 165.581 27.8929 165.688 27.8621C165.795 27.8314 165.908 27.8337 166.014 27.8687C166.145 27.9108 166.256 28.0012 166.323 28.1216C166.391 28.2421 166.41 28.3836 166.377 28.5177Z" fill="#407BFF"/>
<path opacity="0.6" d="M167.831 27.9531C167.816 28.0284 167.785 28.0997 167.741 28.1624C167.696 28.2251 167.639 28.2778 167.573 28.3172C167.507 28.3566 167.434 28.3818 167.358 28.3912C167.282 28.4006 167.204 28.3939 167.131 28.3717C167.057 28.3495 166.989 28.3121 166.931 28.2621C166.873 28.212 166.825 28.1503 166.792 28.081C166.759 28.0116 166.741 27.9362 166.739 27.8594C166.737 27.7826 166.751 27.7062 166.78 27.6351C166.801 27.5664 166.835 27.5025 166.88 27.4471C166.926 27.3916 166.982 27.3457 167.045 27.3119C167.108 27.2782 167.178 27.2572 167.249 27.2503C167.32 27.2434 167.393 27.2507 167.461 27.2717C167.6 27.3138 167.717 27.4089 167.786 27.5364C167.855 27.664 167.871 27.8137 167.831 27.9531V27.9531Z" fill="#407BFF"/>
<path opacity="0.5" d="M169.869 33.0086L163.866 35.3774L163.509 34.1962L169.505 31.8275L169.869 33.0086Z" fill="#407BFF"/>
<path opacity="0.2" d="M136.752 123.203C136.738 126.982 136.373 130.751 135.661 134.463C134.895 137.798 133.706 140.238 132.092 141.783C131.34 142.529 130.448 143.118 129.466 143.516C128.484 143.914 127.434 144.112 126.374 144.1C123.039 144.1 120.493 142.281 118.736 138.642C118.427 137.988 118.165 137.314 117.951 136.624C114.241 139.81 110.787 143.282 107.619 147.007L104.173 151.07C106.028 152.949 108.167 154.524 110.514 155.736C114.555 157.826 119.859 158.873 126.426 158.877C127.582 158.877 128.698 158.844 129.782 158.78C133.755 152.9 137.043 146.586 139.581 139.959L149.218 114.831L136.752 123.203Z" fill="black"/>
<path d="M49.8735 157.488L61.2306 168.845L93.0302 138.882C82.0691 134.696 60.7568 146.579 49.8735 157.488Z" fill="#263238"/>
<path d="M89.4804 197.075C85.8527 193.441 78.1234 185.718 78.1234 185.718L108.086 153.919C112.246 164.854 100.364 186.186 89.4804 197.075Z" fill="#263238"/>
<path d="M132.949 125.494L145.338 101.605L121.449 114.007C113.776 117.986 106.691 123.01 100.396 128.933L59.6731 167.268L79.6809 187.276L118.016 146.553C123.942 140.257 128.968 133.17 132.949 125.494V125.494Z" fill="#407BFF"/>
<path opacity="0.6" d="M132.949 125.494L145.338 101.605L121.449 114.007C113.776 117.986 106.691 123.01 100.396 128.933L59.6731 167.268L79.6809 187.276L118.016 146.553C123.942 140.257 128.968 133.17 132.949 125.494V125.494Z" fill="white"/>
<path d="M107.509 147.805C112.132 147.805 115.881 144.057 115.881 139.434C115.881 134.81 112.132 131.062 107.509 131.062C102.885 131.062 99.1371 134.81 99.1371 139.434C99.1371 144.057 102.885 147.805 107.509 147.805Z" fill="white"/>
<path d="M107.509 144.814C110.48 144.814 112.889 142.405 112.889 139.434C112.889 136.462 110.48 134.054 107.509 134.054C104.538 134.054 102.129 136.462 102.129 139.434C102.129 142.405 104.538 144.814 107.509 144.814Z" fill="#407BFF"/>
<path opacity="0.3" d="M86.4497 180.085L66.8572 160.493L82.8998 145.398L101.545 164.049L86.4497 180.085Z" fill="#407BFF"/>
<path d="M54.3061 175.413C39.6393 176.6 34.7785 185.991 33.1171 198.471C32.2734 204.837 31.897 211.281 26.556 215.007C26.2347 215.225 25.9927 215.542 25.8664 215.909C25.7401 216.276 25.7363 216.675 25.8554 217.045C25.9745 217.414 26.2102 217.736 26.5272 217.96C26.8442 218.185 27.2254 218.301 27.6138 218.29C47.3036 217.674 56.4866 208.037 57.6418 204.013C57.3386 206.116 56.7964 208.178 56.0258 210.159C55.8842 210.508 55.8565 210.894 55.9466 211.26C56.0367 211.626 56.2401 211.954 56.5278 212.198C56.8155 212.442 57.1727 212.589 57.5487 212.617C57.9247 212.646 58.3002 212.556 58.6217 212.359C64.1445 208.9 71.0755 202.527 71.5363 192.189C67.4737 186.432 54.3061 175.413 54.3061 175.413Z" fill="#407BFF"/>
<path opacity="0.2" d="M54.3061 175.413C39.6393 176.6 34.7785 185.991 33.1171 198.471C32.2734 204.837 31.897 211.281 26.556 215.007C26.2347 215.225 25.9927 215.542 25.8664 215.909C25.7401 216.276 25.7363 216.675 25.8554 217.045C25.9745 217.414 26.2102 217.736 26.5272 217.96C26.8442 218.185 27.2254 218.301 27.6138 218.29C47.3036 217.674 56.4866 208.037 57.6418 204.013C57.3386 206.116 56.7964 208.178 56.0258 210.159C55.8842 210.508 55.8565 210.894 55.9466 211.26C56.0367 211.626 56.2401 211.954 56.5278 212.198C56.8155 212.442 57.1727 212.589 57.5487 212.617C57.9247 212.646 58.3002 212.556 58.6217 212.359C64.1445 208.9 71.0755 202.527 71.5363 192.189C67.4737 186.432 54.3061 175.413 54.3061 175.413Z" fill="white"/>
<path d="M73.8142 196.621L50.3214 173.128L62.8336 170.422L76.5204 184.109L73.8142 196.621Z" fill="#407BFF"/>
</svg>
