<svg width="10" height="10" viewBox="0 0 10 10" fill="none" xmlns="http://www.w3.org/2000/svg">
<path d="M9.2605 0.738999C9.16674 0.645263 9.03958 0.592606 8.907 0.592606C8.77442 0.592606 8.64726 0.645263 8.5535 0.738999L0.74 8.5535C0.692245 8.59962 0.654154 8.6548 0.627949 8.7158C0.601745 8.7768 0.587952 8.84241 0.587375 8.9088C0.586798 8.97519 0.599449 9.04103 0.624589 9.10248C0.64973 9.16393 0.686856 9.21975 0.733802 9.2667C0.780749 9.31364 0.836575 9.35077 0.898023 9.37591C0.959471 9.40105 1.02531 9.4137 1.0917 9.41313C1.15809 9.41255 1.2237 9.39876 1.2847 9.37255C1.3457 9.34635 1.40088 9.30826 1.447 9.2605L9.26 1.446C9.35374 1.35224 9.40639 1.22508 9.40639 1.0925C9.40639 0.959917 9.35374 0.832763 9.26 0.738999H9.2605ZM1.554 6.749L2.834 5.469C2.7975 5.3153 2.77855 5.15797 2.7775 5C2.7775 3.8105 3.7725 2.8455 5 2.8455C5.143 2.8455 5.282 2.8615 5.4175 2.8865L6.019 2.2855C5.68219 2.2297 5.3414 2.20127 5 2.2005C1.72 2.2 0 4.6155 0 5C0 5.2115 0.5285 6.045 1.554 6.7485V6.749ZM8.4475 3.2525L7.1665 4.5325C7.201 4.6835 7.222 4.839 7.222 5C7.222 6.1895 6.2275 7.1535 5 7.1535C4.858 7.1535 4.72 7.1375 4.5855 7.113L3.9835 7.7145C4.3045 7.7665 4.6415 7.7995 5 7.7995C8.28 7.7995 10 5.383 10 5C10 4.788 9.472 3.955 8.4475 3.2525V3.2525Z" fill="#09101D"/>
</svg>
