<svg width="10" height="10" viewBox="0 0 10 10" fill="none" xmlns="http://www.w3.org/2000/svg">
<path d="M5 2.2C1.7195 2.2 0 4.616 0 5C0 5.383 1.7195 7.8 5 7.8C8.28 7.8 10 5.383 10 5C10 4.616 8.28 2.2 5 2.2ZM5 7.1535C3.7725 7.1535 2.7775 6.1895 2.7775 5C2.7775 3.8105 3.7725 2.8455 5 2.8455C6.2275 2.8455 7.222 3.8105 7.222 5C7.222 6.1895 6.2275 7.1535 5 7.1535ZM5 5C4.7965 4.7765 5.3315 3.923 5 3.923C4.386 3.923 3.8885 4.4055 3.8885 5C3.8885 5.5945 4.386 6.077 5 6.077C5.6135 6.077 6.1115 5.5945 6.1115 5C6.1115 4.7265 5.173 5.1895 5 5Z" fill="#09101D"/>
</svg>
