<svg width="16" height="16" viewBox="0 0 16 16" fill="none" xmlns="http://www.w3.org/2000/svg">
    <path d="M1.53335 3.72957L3.19741 2.06707C3.40053 1.86394 3.67241 1.74988 3.95991 1.74988C4.24741 1.74988 4.51929 1.86238 4.72241 2.06707L6.5146 3.85613C6.71772 4.05925 6.83179 4.33269 6.83179 4.62019C6.83179 4.90925 6.71929 5.17957 6.5146 5.38425L5.1146 6.78582C5.43353 7.52892 5.89178 8.20409 6.4646 8.77488C7.03804 9.35144 7.70835 9.80613 8.4521 10.128L9.8521 8.72644C10.0552 8.52332 10.3271 8.40925 10.6146 8.40925C10.7564 8.40873 10.8969 8.43651 11.0278 8.49098C11.1588 8.54544 11.2775 8.62549 11.3771 8.72644L13.1708 10.5155C13.374 10.7186 13.488 10.9921 13.488 11.2796C13.488 11.5686 13.3755 11.8389 13.1708 12.0436L11.5083 13.7061C11.1615 14.053 10.6833 14.2514 10.1927 14.2514C10.0912 14.2514 9.99272 14.2436 9.89272 14.2264C7.82397 13.8858 5.77085 12.7843 4.11304 11.128C2.45678 9.46863 1.35678 7.4155 1.01303 5.34519C0.914597 4.75769 1.11147 4.153 1.53335 3.72957ZM2.12085 5.15925C2.42553 7.00144 3.41616 8.83894 4.90835 10.3311C6.40054 11.8233 8.23647 12.8139 10.0787 13.1186C10.3099 13.1577 10.5474 13.0796 10.7162 12.9124L12.349 11.2796L10.6177 9.54675L8.74585 11.4218L8.73179 11.4358L8.39429 11.3108C7.37096 10.9346 6.44169 10.3403 5.67086 9.56922C4.90004 8.79813 4.30611 7.86865 3.93022 6.84519L3.80522 6.50769L5.69272 4.62175L3.96147 2.88894L2.32866 4.52175C2.15991 4.6905 2.08178 4.928 2.12085 5.15925Z"
          fill="#09101D"/>
</svg>
