<svg width="563" height="640" viewBox="0 0 563 640" fill="none" xmlns="http://www.w3.org/2000/svg">
<path d="M41.1401 615.103C39.4368 613.646 35.64 609.017 38.5396 603.647C39.6188 601.671 41.8943 600.696 43.9617 599.825C46.0874 599.105 48.0911 598.066 49.9039 596.743C53.1155 594.012 54.0127 589.462 56.1451 585.808C58.6026 581.608 63.1795 578.461 68.0165 578.682C73.5556 578.929 78.1846 583.467 80.278 588.616C82.3714 593.765 82.4494 599.513 82.4884 605.091C82.4884 608.172 82.3714 611.592 80.1089 613.724C77.8465 615.857 74.9469 615.636 72.0603 615.636L41.7773 614.7" fill="#F5F5F5"/>
<path d="M99.0407 531.821H19.3867L33.6896 617.378C33.9872 619.159 34.7842 620.82 35.988 622.166C37.1917 623.513 38.7529 624.49 40.4899 624.984C40.5792 625.016 40.6704 625.042 40.763 625.062C40.9977 625.137 41.2365 625.198 41.4781 625.245C42.009 625.356 42.5484 625.421 43.0905 625.44V625.518L43.4805 625.453H78.9777C81.3902 625.446 83.7219 624.582 85.556 623.015C87.3901 621.447 88.6071 619.279 88.9897 616.897L95.9071 557.956L96.2191 555.616L98.9627 532.276L99.0407 531.821ZM84.0487 586.393H75.844L76.6632 561.571H86.1291L84.0487 586.393ZM86.9613 561.571H94.7628L91.8502 586.393H84.8028L86.9613 561.571ZM63.5566 613.919L63.0625 592.348H74.7648L74.0497 613.919H63.5566ZM50.84 592.348H62.2693L62.7764 613.919H52.5304L50.84 592.348ZM51.7242 613.919H42.1413C41.2311 608.094 40.0479 600.527 38.7606 592.348H50.0599L51.7242 613.919ZM50.4239 586.393L48.4996 561.571H61.5802L62.1523 586.393H50.4239ZM62.9845 586.393L62.4123 561.571H75.87L75.0509 586.393H62.9845ZM62.2693 555.616L61.7362 532.627H76.8322L76.0651 555.616H62.2693ZM61.4762 555.616H47.9924L46.2111 532.627H60.917L61.4762 555.616ZM47.1733 555.616H32.9744C32.4673 552.443 31.9992 549.426 31.5702 546.722C30.0749 537.425 29.5158 533.94 29.2167 532.627H45.4179L47.1733 555.616ZM47.6414 561.571L49.5658 586.393H37.8634C37.4733 583.87 37.0703 581.322 36.6672 578.773C35.744 572.922 34.8208 567.071 33.9626 561.571H47.6414ZM37.0052 586.393H29.3467L25.1859 561.571H33.1175C34.3267 569.242 35.679 577.785 37.0313 586.393H37.0052ZM37.9414 592.348C39.1117 599.811 40.2689 607.171 41.3221 613.919H33.9626L30.3479 592.348H37.9414ZM74.9469 613.919L75.662 592.348H83.4636L81.6172 613.919H74.9469ZM76.8842 555.616L77.6514 532.627H88.6256L86.6492 555.616H76.8842ZM28.4625 532.627C28.7746 534.278 30.2309 543.328 32.1813 555.616H24.2367L20.3359 532.627H28.4625ZM88.6126 613.919H82.4494L84.2957 592.348H91.1351L88.6126 613.919ZM95.452 555.616H87.4294L89.4058 532.627H98.1435L95.452 555.616Z" fill="#E0E0E0"/>
<path d="M356.648 471.918H152.091V566.265H356.648V471.918Z" fill="#F5F5F5"/>
<path d="M351.786 561.805H156.747V476.872H351.786V561.805ZM158.047 560.504H350.485V478.146H158.047V560.504Z" fill="#E0E0E0"/>
<path d="M406.631 471.918H356.662V566.265H406.631V471.918Z" fill="#E0E0E0"/>
<path d="M157.409 503.163H351.148C351.217 503.163 351.283 503.136 351.332 503.087C351.381 503.038 351.408 502.972 351.408 502.903C351.408 502.834 351.381 502.768 351.332 502.719C351.283 502.67 351.217 502.643 351.148 502.643H157.409C157.34 502.643 157.274 502.67 157.226 502.719C157.177 502.768 157.149 502.834 157.149 502.903C157.149 502.972 157.177 503.038 157.226 503.087C157.274 503.136 157.34 503.163 157.409 503.163V503.163Z" fill="#E0E0E0"/>
<path d="M254.916 502.903C255.458 494.369 255.479 485.811 254.981 477.275C254.981 477.206 254.954 477.14 254.905 477.091C254.856 477.042 254.79 477.015 254.721 477.015C254.652 477.015 254.586 477.042 254.537 477.091C254.488 477.14 254.461 477.206 254.461 477.275C253.962 485.811 253.984 494.369 254.526 502.903C254.526 502.955 254.546 503.004 254.583 503.041C254.62 503.077 254.669 503.098 254.721 503.098C254.773 503.098 254.822 503.077 254.859 503.041C254.895 503.004 254.916 502.955 254.916 502.903V502.903Z" fill="#E0E0E0"/>
<path d="M307.07 490.096C307.07 490.61 306.917 491.113 306.631 491.54C306.346 491.968 305.94 492.301 305.464 492.498C304.989 492.695 304.466 492.747 303.962 492.646C303.457 492.546 302.994 492.298 302.63 491.934C302.267 491.571 302.019 491.107 301.919 490.603C301.818 490.099 301.87 489.576 302.067 489.1C302.263 488.625 302.597 488.219 303.024 487.933C303.452 487.648 303.955 487.495 304.469 487.495C305.159 487.495 305.82 487.769 306.308 488.257C306.796 488.744 307.07 489.406 307.07 490.096Z" fill="#E0E0E0"/>
<path d="M205.389 490.096C205.389 490.61 205.237 491.113 204.951 491.54C204.665 491.968 204.259 492.301 203.784 492.498C203.309 492.695 202.786 492.747 202.281 492.646C201.777 492.546 201.313 492.298 200.95 491.934C200.586 491.571 200.338 491.107 200.238 490.603C200.138 490.099 200.189 489.576 200.386 489.1C200.583 488.625 200.916 488.219 201.344 487.933C201.771 487.648 202.274 487.495 202.789 487.495C203.478 487.495 204.14 487.769 204.627 488.257C205.115 488.744 205.389 489.406 205.389 490.096Z" fill="#E0E0E0"/>
<path d="M256.983 519.338C256.983 519.853 256.831 520.355 256.545 520.783C256.259 521.211 255.853 521.544 255.378 521.741C254.903 521.938 254.38 521.989 253.875 521.889C253.371 521.789 252.908 521.541 252.544 521.177C252.18 520.813 251.933 520.35 251.832 519.846C251.732 519.341 251.783 518.818 251.98 518.343C252.177 517.868 252.51 517.462 252.938 517.176C253.366 516.89 253.868 516.738 254.383 516.738C255.072 516.738 255.734 517.012 256.222 517.499C256.709 517.987 256.983 518.649 256.983 519.338Z" fill="#E0E0E0"/>
<path d="M176.549 566.252L166.017 625.479H171.946L191.359 566.252H176.549Z" fill="#E0E0E0"/>
<path d="M342.189 566.252L350.992 625.583H345.063L327.379 566.252H342.189Z" fill="#E0E0E0"/>
<path d="M381.73 566.252L391.703 625.583H385.787L366.92 566.252H381.73Z" fill="#E0E0E0"/>
<path d="M256.749 546.046C256.749 546.56 256.597 547.063 256.311 547.491C256.025 547.918 255.619 548.252 255.144 548.448C254.669 548.645 254.146 548.697 253.642 548.596C253.137 548.496 252.674 548.248 252.31 547.885C251.946 547.521 251.699 547.058 251.598 546.553C251.498 546.049 251.549 545.526 251.746 545.051C251.943 544.575 252.276 544.169 252.704 543.884C253.132 543.598 253.635 543.445 254.149 543.445C254.839 543.445 255.5 543.719 255.988 544.207C256.475 544.695 256.749 545.356 256.749 546.046Z" fill="#E0E0E0"/>
<path d="M157.409 532.419H351.148C351.217 532.419 351.283 532.392 351.332 532.343C351.381 532.294 351.408 532.228 351.408 532.159C351.408 532.09 351.381 532.024 351.332 531.975C351.283 531.926 351.217 531.899 351.148 531.899H157.409C157.34 531.899 157.274 531.926 157.226 531.975C157.177 532.024 157.149 532.09 157.149 532.159C157.149 532.228 157.177 532.294 157.226 532.343C157.274 532.392 157.34 532.419 157.409 532.419V532.419Z" fill="#E0E0E0"/>
<path d="M294.902 439.866L294.836 427.279L232.983 427.603L233.049 440.189L294.902 439.866Z" fill="#E0E0E0"/>
<path d="M302.339 471.63L302.237 452.062L233.298 452.422L233.4 471.991L302.339 471.63Z" fill="#F5F5F5"/>
<path d="M289.074 471.515C288.732 468.267 288.619 465 288.736 461.737C288.618 458.469 288.731 455.197 289.074 451.946C289.4 455.199 289.508 458.47 289.399 461.737C289.508 465 289.4 468.266 289.074 471.515Z" fill="#E0E0E0"/>
<path d="M291.961 471.515C291.635 468.266 291.526 465 291.636 461.737C291.526 458.47 291.635 455.199 291.961 451.946C292.295 455.198 292.408 458.469 292.299 461.737C292.408 465 292.295 468.267 291.961 471.515Z" fill="#E0E0E0"/>
<path d="M243.786 471.515C243.451 468.267 243.338 465 243.448 461.737C243.338 458.469 243.451 455.198 243.786 451.946C244.12 455.198 244.233 458.469 244.124 461.737C244.233 465 244.12 468.267 243.786 471.515Z" fill="#E0E0E0"/>
<path d="M246.685 471.515C246.343 468.267 246.23 465 246.347 461.737C246.23 458.469 246.343 455.197 246.685 451.946C247.011 455.199 247.12 458.47 247.01 461.737C247.12 465 247.011 468.266 246.685 471.515V471.515Z" fill="#E0E0E0"/>
<path d="M253.005 462.049C253.005 461.867 259.948 461.711 268.53 461.711C277.112 461.711 284.133 461.867 284.133 462.049C284.133 462.231 277.177 462.387 268.53 462.387C259.883 462.387 253.005 462.205 253.005 462.049Z" fill="#E0E0E0"/>
<path d="M328.225 451.96L328.159 439.374L243.097 439.819L243.163 452.406L328.225 451.96Z" fill="#EBEBEB"/>
<path d="M316.054 450.412C315.247 450.422 314.455 450.192 313.779 449.751C313.103 449.31 312.574 448.678 312.258 447.936C311.942 447.193 311.853 446.373 312.005 445.58C312.156 444.787 312.539 444.057 313.106 443.483C313.673 442.909 314.398 442.516 315.189 442.355C315.98 442.193 316.801 442.271 317.548 442.577C318.294 442.884 318.933 443.405 319.383 444.076C319.832 444.746 320.072 445.535 320.072 446.342C320.076 446.873 319.974 447.399 319.774 447.891C319.574 448.383 319.279 448.831 318.906 449.209C318.533 449.587 318.089 449.888 317.6 450.094C317.111 450.3 316.585 450.408 316.054 450.412Z" fill="#E0E0E0"/>
<path d="M305.002 447.603V445.08H248.064V447.603H305.002Z" fill="#E0E0E0"/>
<path d="M380.594 293.507C434.627 239.474 434.627 151.869 380.594 97.8356C326.561 43.8023 238.955 43.8024 184.922 97.8356C130.889 151.869 130.889 239.474 184.922 293.507C238.955 347.54 326.561 347.54 380.594 293.507Z" fill="#E0E0E0"/>
<path d="M361.029 273.942C404.256 230.714 404.256 160.628 361.029 117.401C317.801 74.1733 247.715 74.1733 204.488 117.401C161.26 160.628 161.26 230.714 204.488 273.942C247.715 317.169 317.801 317.169 361.029 273.942Z" fill="#FAFAFA"/>
<path d="M361.948 220.539C375.687 176.802 351.37 130.208 307.633 116.468C263.896 102.728 217.302 127.046 203.562 170.783C189.822 214.52 214.139 261.114 257.876 274.854C301.613 288.594 348.208 264.276 361.948 220.539Z" fill="#E0E0E0"/>
<path d="M333.316 218.22C345.761 190.306 333.222 157.588 305.308 145.142C277.393 132.697 244.675 145.236 232.23 173.15C219.784 201.064 232.324 233.783 260.238 246.228C288.152 258.674 320.87 246.134 333.316 218.22Z" fill="#FAFAFA"/>
<path d="M295.295 220.34C308.917 213.415 314.346 196.758 307.42 183.136C300.494 169.514 283.837 164.085 270.215 171.011C256.593 177.937 251.165 194.594 258.09 208.216C265.016 221.838 281.673 227.266 295.295 220.34Z" fill="#E0E0E0"/>
<path d="M287.019 199.747L248.61 189.618L258.44 179.528L178.968 114.268L183.363 109.977L263.251 174.847L270.961 164.302L287.019 199.747Z" fill="#EBEBEB"/>
<path d="M178.968 114.268L177.772 114.944C174.846 116.598 171.534 117.445 168.173 117.399C164.813 117.354 161.525 116.417 158.645 114.684L125.345 94.6861L147.762 91.1624L145.343 67.5757L175.99 88.5619C179.358 90.8677 181.894 94.1969 183.222 98.0564C184.549 101.916 184.599 106.1 183.363 109.99V109.99L178.968 114.268Z" fill="#EBEBEB"/>
<path d="M509.104 529.09C509.255 521.023 512.37 513.294 517.855 507.376C520.494 518.272 509.104 529.09 509.104 529.09Z" fill="#EBEBEB"/>
<path d="M521.794 522.953C529.25 519.865 537.583 519.633 545.199 522.303C536.266 529.064 521.794 522.953 521.794 522.953Z" fill="#EBEBEB"/>
<path d="M523.251 515.879C522.037 509.628 523.166 503.148 526.424 497.676C530.259 505.672 523.251 515.879 523.251 515.879Z" fill="#EBEBEB"/>
<path d="M474.127 490.408C492.721 495.349 502.733 511.485 502.733 511.485C486.804 511.485 474.127 490.408 474.127 490.408Z" fill="#EBEBEB"/>
<path d="M503.799 498.014C502.837 478.016 522.38 455.378 522.38 455.378C519.428 480.213 503.799 498.014 503.799 498.014Z" fill="#EBEBEB"/>
<path d="M503.695 441.05C504.071 451.054 501.639 460.963 496.673 469.656C493.917 456.835 503.695 441.05 503.695 441.05Z" fill="#EBEBEB"/>
<path d="M496.232 481.709C481.604 480.149 473.646 465.599 473.646 465.599C491.265 470.527 496.232 481.709 496.232 481.709Z" fill="#EBEBEB"/>
<path d="M464.622 542.821C471.48 538.569 479.663 536.991 487.611 538.387C479.887 546.527 464.622 542.821 464.622 542.821Z" fill="#EBEBEB"/>
<path d="M502.512 549.4C500.648 554.132 497.17 558.051 492.695 560.466C493.319 553.717 502.512 549.4 502.512 549.4Z" fill="#EBEBEB"/>
<path d="M500.639 547.242C495.357 550.303 489.166 551.408 483.151 550.363C488.781 544.499 500.639 547.242 500.639 547.242Z" fill="#EBEBEB"/>
<path d="M508.116 574.17C508.102 574.071 508.102 573.97 508.116 573.871C508.116 573.624 508.116 573.338 508.116 573C508.116 572.168 508.116 571.05 508.116 569.645C508.116 568.241 508.116 566.408 508.116 564.34C508.116 562.273 508.116 559.919 507.973 557.319C507.843 552.118 507.479 545.942 506.946 539.115C506.413 532.289 505.516 524.747 504.345 516.894C501.966 501.213 498.832 487.131 496.232 477.041C494.931 471.996 493.878 467.939 493.098 465.13C492.721 463.765 492.435 462.686 492.214 461.893L492.006 461.048C491.993 460.948 491.993 460.848 492.006 460.749C492.06 460.837 492.1 460.933 492.123 461.035L492.396 461.854L493.384 465.052C494.255 467.835 495.4 471.892 496.739 476.924C500.198 490.061 502.933 503.378 504.93 516.816C506.075 524.617 506.894 532.211 507.453 539.076C508.012 545.942 508.272 552.144 508.337 557.358C508.428 559.958 508.402 562.312 508.337 564.379C508.272 566.447 508.337 568.28 508.259 569.684C508.181 571.089 508.168 572.22 508.142 573.039C508.142 573.39 508.142 573.676 508.142 573.91L508.116 574.17Z" fill="#E0E0E0"/>
<path d="M481.278 531.834C481.382 531.678 487.285 535.552 494.476 540.48C501.666 545.408 507.4 549.517 507.296 549.673C507.192 549.829 501.289 545.954 494.099 541.027C486.908 536.099 481.174 531.977 481.278 531.834Z" fill="#E0E0E0"/>
<path d="M507.296 533.966C507.557 533.596 507.863 533.26 508.207 532.965L510.807 530.429L519.597 522.186C522.965 519.026 526.007 516.166 528.387 513.955L530.987 511.446C531.3 511.121 531.649 510.833 532.027 510.587C531.788 510.97 531.499 511.32 531.169 511.628C530.597 512.278 529.726 513.175 528.647 514.228C526.488 516.439 523.446 519.429 519.987 522.615C516.528 525.8 513.382 528.687 511.067 530.728C509.91 531.743 508.961 532.549 508.285 533.108C507.99 533.432 507.658 533.72 507.296 533.966V533.966Z" fill="#E0E0E0"/>
<path d="M462.502 522.355C462.502 522.355 477.611 522.069 484.009 533.953C479.768 533.831 475.614 532.719 471.88 530.705C468.146 528.691 464.934 525.832 462.502 522.355V522.355Z" fill="#EBEBEB"/>
<path d="M483.138 516.283C483.138 516.283 495.438 525.059 493.54 538.387C490.203 535.768 487.525 532.406 485.719 528.568C483.913 524.73 483.029 520.523 483.138 516.283V516.283Z" fill="#EBEBEB"/>
<path d="M547.943 494.711C547.943 494.711 543.093 511.615 527.659 514.67C529.251 509.993 531.915 505.753 535.436 502.288C538.958 498.823 543.241 496.228 547.943 494.711V494.711Z" fill="#EBEBEB"/>
<path d="M476.428 431.779C476.428 431.779 495.711 444.352 493.631 464.805C488.386 461.023 484.099 456.067 481.112 450.333C478.125 444.598 476.521 438.244 476.428 431.779V431.779Z" fill="#EBEBEB"/>
<path d="M540.597 543.64C540.2 544.019 539.764 544.354 539.296 544.641C538.464 545.239 537.281 546.137 535.838 547.242C532.108 550.224 528.628 553.507 525.435 557.059C522.253 560.628 519.365 564.451 516.802 568.488C515.827 570.035 515.059 571.31 514.552 572.207C514.308 572.669 514.016 573.105 513.681 573.507C513.843 572.997 514.056 572.504 514.318 572.038C514.76 571.102 515.475 569.788 516.412 568.137C521.345 559.825 527.866 552.566 535.604 546.774C537.086 545.669 538.321 544.823 539.192 544.29C539.637 544.027 540.108 543.809 540.597 543.64V543.64Z" fill="#E0E0E0"/>
<path d="M523.81 556.201C522.414 548.253 523.992 540.07 528.244 533.212C530.311 547.541 523.81 556.201 523.81 556.201Z" fill="#EBEBEB"/>
<path d="M536.786 549.128C541.886 546.228 547.874 545.303 553.612 546.527C544.341 551.455 536.786 549.128 536.786 549.128Z" fill="#EBEBEB"/>
<path d="M480.004 575.73L487.234 623.268H529.258L539.01 576.42L480.004 575.73Z" fill="#EBEBEB"/>
<path d="M533.133 606.196C533.133 606.339 522.367 606.443 509.091 606.443C495.815 606.443 485.036 606.339 485.036 606.196C485.036 606.053 495.802 605.949 509.091 605.949C522.38 605.949 533.133 606.066 533.133 606.196Z" fill="#FAFAFA"/>
<path d="M533.302 603.933C533.302 604.063 522.458 604.18 509.091 604.18C495.724 604.18 484.867 604.063 484.867 603.933C484.867 603.803 495.711 603.686 509.091 603.686C522.471 603.686 533.302 603.725 533.302 603.933Z" fill="#FAFAFA"/>
<path d="M533.211 601.229C533.211 601.359 522.38 601.476 509 601.476C495.62 601.476 484.789 601.359 484.789 601.229C484.789 601.099 495.633 600.982 509 600.982C522.367 600.982 533.211 601.086 533.211 601.229Z" fill="#FAFAFA"/>
<path d="M492.058 620.564C491.474 618.601 491.039 616.597 490.757 614.569C490.334 612.573 490.065 610.548 489.951 608.51C490.986 612.462 491.686 616.494 492.045 620.564H492.058Z" fill="#FAFAFA"/>
<path d="M494.931 620.056C494.633 618.123 494.46 616.173 494.411 614.218C494.191 612.272 494.1 610.313 494.138 608.354C494.896 612.206 495.162 616.138 494.931 620.056V620.056Z" fill="#FAFAFA"/>
<path d="M500.132 620.057C499.564 618.101 499.198 616.093 499.04 614.062C498.718 612.055 498.609 610.02 498.715 607.99C499.102 609.979 499.371 611.99 499.521 614.01C499.835 616.013 500.039 618.032 500.132 620.057V620.057Z" fill="#FAFAFA"/>
<path d="M503.786 620.303C503.388 618.3 503.192 616.261 503.201 614.218C503.052 612.18 503.117 610.132 503.396 608.107C503.61 610.132 503.71 612.168 503.695 614.205C503.844 616.234 503.874 618.271 503.786 620.303Z" fill="#FAFAFA"/>
<path d="M510.261 620.057C509.953 618.148 509.805 616.217 509.819 614.284C509.653 612.354 509.653 610.414 509.819 608.484C510.128 610.397 510.276 612.333 510.261 614.271C510.428 616.196 510.428 618.132 510.261 620.057V620.057Z" fill="#FAFAFA"/>
<path d="M514.994 620.304C514.755 618.324 514.69 616.327 514.799 614.335C514.736 612.342 514.832 610.346 515.085 608.367C515.325 610.347 515.39 612.344 515.28 614.335C515.343 616.329 515.247 618.325 514.994 620.304V620.304Z" fill="#FAFAFA"/>
<path d="M519.428 619.666C519.379 617.58 519.497 615.493 519.779 613.425C519.898 611.342 520.185 609.272 520.637 607.236C520.678 609.323 520.556 611.409 520.273 613.477C520.147 615.558 519.865 617.627 519.428 619.666Z" fill="#FAFAFA"/>
<path d="M525.149 619.042C525.146 617.251 525.382 615.466 525.852 613.737C526.149 611.97 526.673 610.248 527.412 608.614C527.149 610.367 526.789 612.103 526.333 613.815C526.034 615.578 525.639 617.323 525.149 619.042V619.042Z" fill="#FAFAFA"/>
<path d="M475.18 566.33V575.224C475.18 576.152 475.549 577.041 476.205 577.697C476.861 578.353 477.75 578.722 478.678 578.722H539.53C540.459 578.722 541.35 578.353 542.008 577.698C542.666 577.042 543.037 576.153 543.041 575.224V566.33H475.18Z" fill="#EBEBEB"/>
<path d="M480.459 578.721L480.954 581.556L537.112 585.561L538.529 578.721H480.459Z" fill="#E0E0E0"/>
<path d="M0 239.522C0 239.522 13.3277 294.133 72.9836 281.599C72.9836 281.599 55.7032 226.324 0 239.522Z" fill="#455A64"/>
<path d="M28.8267 322.193C28.8267 322.193 56.2102 363.021 101.459 334.779C101.459 334.779 70.604 294.575 28.8267 322.193Z" fill="#455A64"/>
<path d="M72.4634 384.488C72.4634 384.488 112.42 418.464 150.687 376.349C150.687 376.388 107.349 344.011 72.4634 384.488Z" fill="#455A64"/>
<path d="M113.76 253.422C113.76 253.422 69.4467 274.72 90.953 323.532C94.1126 321.777 134.759 297.774 113.76 253.422Z" fill="#455A64"/>
<path d="M123.382 312.272C123.382 312.272 101.277 342.113 134.213 367.741C136.267 364.542 155.563 336.08 123.382 312.272Z" fill="#455A64"/>
<path d="M20.8821 176.694C20.8821 176.694 15.7981 220.903 63.5827 228.028C63.5827 228.028 65.9101 182.181 20.8821 176.694Z" fill="#455A64"/>
<path d="M89.4188 131.939C89.4188 131.939 50.762 148.075 67.5484 193.376C67.5484 193.376 106.283 174.054 89.4188 131.939Z" fill="#455A64"/>
<path d="M112.746 196.575C112.746 196.575 61.5674 202.413 66.0663 258.064C66.0663 258.064 118.337 248.754 112.746 196.575Z" fill="#455A64"/>
<path d="M185.586 391.016L184.936 390.821L183.012 390.313C181.334 389.871 178.825 389.273 175.678 388.246C166.754 385.493 158.126 381.86 149.92 377.402C137.768 370.773 126.548 362.562 116.555 352.983C110.627 347.313 105.109 341.23 100.042 334.779L96.1412 329.578C95.491 328.72 94.8409 327.849 94.2038 326.978C93.5667 326.107 92.9945 325.157 92.3964 324.247L88.7687 318.682L85.44 312.857L83.7757 309.918L82.2934 306.915C81.3182 304.925 80.317 302.949 79.3678 300.96L76.7673 294.952C76.3512 293.951 75.9091 292.963 75.467 291.962C75.0249 290.961 74.7389 289.959 74.3878 288.958L72.2554 283.003C71.6573 281.001 71.0722 279.024 70.5 277.061C70.214 276.073 69.9149 275.097 69.6289 274.135C69.3428 273.173 69.1478 272.172 68.9137 271.21C68.4586 269.259 68.0035 267.309 67.6135 265.423C64.7328 251.9 63.4929 238.078 63.9207 224.257C64.2226 214.923 65.2618 205.628 67.0283 196.458C67.7175 193.22 68.3286 190.723 68.7187 189.033C68.9007 188.188 69.0437 187.551 69.1478 187.096C69.2518 186.641 69.2778 186.433 69.2778 186.433C69.2778 186.433 69.1998 186.641 69.0827 187.083C68.9657 187.525 68.8097 188.162 68.6017 188.994C68.1856 190.697 67.5354 193.181 66.8073 196.406C62.1255 219.247 62.2407 242.811 67.1454 265.605C67.5875 267.517 68.0425 269.441 68.4456 271.405C68.6927 272.38 68.8747 273.368 69.1608 274.343C69.4468 275.318 69.7329 276.294 70.0319 277.282C70.6041 279.245 71.1892 281.183 71.7873 283.237L73.9197 289.218C74.2708 290.219 74.6349 291.234 74.9989 292.235C75.363 293.236 75.8311 294.224 76.2992 295.225L78.8997 301.272C79.8359 303.261 80.8371 305.237 81.8253 307.24C82.3194 308.254 82.8135 309.255 83.3206 310.256C83.8277 311.258 84.4258 312.22 84.9849 313.208L88.3266 319.059L91.9673 324.637C92.5785 325.547 93.1506 326.484 93.7747 327.381L95.7251 329.981L99.6259 335.182C104.708 341.636 110.244 347.719 116.191 353.386C126.239 362.993 137.525 371.214 149.751 377.831C157.995 382.266 166.669 385.852 175.639 388.532C178.799 389.533 181.321 390.079 183.012 390.495L184.949 390.938L185.586 391.016Z" fill="#263238"/>
<path d="M128.167 336.327C128.111 336.758 128.111 337.195 128.167 337.627C128.167 338.433 128.349 339.59 128.531 341.008C128.869 343.868 129.467 347.795 130.299 352.086C131.131 356.377 132.081 360.251 132.822 363.021C133.199 364.412 133.524 365.53 133.771 366.298C133.861 366.705 134.005 367.099 134.2 367.468C134.186 367.027 134.116 366.591 133.992 366.168L133.225 362.865C132.575 360.069 131.716 356.208 130.871 351.917C130.026 347.626 129.389 343.725 128.934 340.891C128.726 339.59 128.544 338.446 128.388 337.536C128.361 337.126 128.287 336.72 128.167 336.327Z" fill="#263238"/>
<path d="M117.284 380.64C117.72 380.658 118.158 380.619 118.584 380.523L121.991 380.029C124.851 379.6 128.817 379.04 133.199 378.533C137.581 378.026 141.573 377.649 144.459 377.402L147.879 377.103C148.318 377.097 148.755 377.035 149.179 376.921C148.747 376.871 148.311 376.871 147.879 376.921C147.06 376.921 145.889 376.921 144.446 377.038C141.547 377.181 137.542 377.493 133.147 378C128.752 378.507 124.786 379.144 121.926 379.678C120.508 379.938 119.325 380.172 118.558 380.354C118.123 380.397 117.695 380.493 117.284 380.64V380.64Z" fill="#263238"/>
<path d="M63.4268 326.484C63.9046 326.646 64.3965 326.764 64.896 326.835L68.9399 327.641C72.3595 328.304 77.0795 329.292 82.2415 330.541C87.4036 331.789 92.0455 333.076 95.3872 334.038L99.2879 335.183C99.7679 335.356 100.265 335.478 100.77 335.547C100.324 335.307 99.8531 335.115 99.366 334.975C98.4428 334.637 97.1035 334.181 95.4652 333.674C92.1495 332.608 87.5206 331.256 82.3325 330.008C77.1445 328.759 72.4246 327.823 68.9789 327.251C67.2625 326.965 65.8582 326.757 64.896 326.64C64.4133 326.535 63.9207 326.483 63.4268 326.484V326.484Z" fill="#263238"/>
<path d="M102.539 284.642C102.188 285.04 101.883 285.476 101.628 285.942C101.069 286.826 100.328 288.152 99.4569 289.843C94.9615 298.585 92.2185 308.121 91.3823 317.915C91.2263 319.788 91.1612 321.296 91.1612 322.349C91.1142 322.894 91.1142 323.442 91.1612 323.987C91.27 323.452 91.3266 322.908 91.3303 322.362C91.3303 321.322 91.5383 319.762 91.7334 317.954C92.7947 308.253 95.5127 298.806 99.769 290.025C100.575 288.334 101.277 286.982 101.771 286.124C102.075 285.656 102.332 285.16 102.539 284.642V284.642Z" fill="#263238"/>
<path d="M43.1816 259.182C43.5421 259.499 43.9342 259.778 44.3519 260.014L47.6415 262.147C50.3981 263.98 54.1428 266.607 58.0436 269.779C61.9444 272.952 65.3121 276.06 67.6655 278.374L70.4351 281.131C70.7537 281.498 71.1112 281.829 71.5013 282.119C71.2433 281.711 70.9426 281.332 70.6041 280.988C70.006 280.272 69.1088 279.284 68.0036 278.088C65.0075 274.971 61.82 272.044 58.4597 269.324C55.0982 266.604 51.5721 264.094 47.9016 261.809C46.4973 260.924 45.3011 260.248 44.5209 259.819C44.0978 259.561 43.649 259.347 43.1816 259.182V259.182Z" fill="#263238"/>
<path d="M99.0669 218.77C99.0669 218.77 98.8979 218.874 98.6378 219.095L97.5196 220.096C96.5444 220.98 95.1661 222.294 93.4888 223.932C90.1471 227.222 85.6872 231.916 81.0193 237.364C76.3514 242.812 72.4506 247.974 69.746 251.81C68.4458 253.721 67.3146 255.281 66.5994 256.387L65.7802 257.687C65.6748 257.825 65.5915 257.978 65.5332 258.142C65.5332 258.142 65.6762 258.025 65.8843 257.752L66.7815 256.543L70.0711 252.07C72.8667 248.312 76.8325 243.202 81.4614 237.767C86.0903 232.332 90.5632 227.599 93.7879 224.244L97.6886 220.343L98.7289 219.264C98.8668 219.118 98.9809 218.951 99.0669 218.77V218.77Z" fill="#263238"/>
<path d="M37.4214 191.087C37.7459 191.577 38.1113 192.038 38.5136 192.466L41.6212 196.132C44.2218 199.24 47.7195 203.622 51.3212 208.641C54.9229 213.66 57.9265 218.406 60.0329 221.878C61.0341 223.542 61.8533 224.933 62.4904 225.999C62.7682 226.517 63.0855 227.013 63.4396 227.482C63.2371 226.929 62.9892 226.394 62.6985 225.882C62.1784 224.868 61.3982 223.425 60.384 221.67C58.3686 218.133 55.404 213.361 51.7893 208.303C48.1745 203.245 44.6248 198.915 41.9333 195.859C40.633 194.338 39.4758 193.129 38.6826 192.31C38.305 191.86 37.8824 191.451 37.4214 191.087V191.087Z" fill="#263238"/>
<path d="M83.6979 149.076C83.3811 149.593 83.1113 150.137 82.8917 150.701C82.4106 151.755 81.7345 153.302 80.9153 155.213C79.29 159.049 77.1445 164.315 74.9471 170.335C72.7497 176.356 70.8903 181.752 69.629 185.718C69.0049 187.694 68.5108 189.306 68.1857 190.424C67.9863 190.995 67.8383 191.583 67.7437 192.18C68.029 191.626 68.264 191.047 68.4458 190.45C68.8619 189.254 69.408 187.694 70.0581 185.809C71.4234 181.908 73.3218 176.46 75.5322 170.504C77.7427 164.549 79.7711 159.244 81.3054 155.343C82.0335 153.484 82.6056 151.937 83.0997 150.754C83.3441 150.211 83.5441 149.651 83.6979 149.076V149.076Z" fill="#263238"/>
<path d="M562.207 231.76C562.207 231.76 548.879 286.371 489.223 273.849C489.223 273.849 506.517 218.562 562.207 231.76Z" fill="#455A64"/>
<path d="M533.38 314.43C533.38 314.43 505.996 355.271 460.747 327.03C460.747 326.978 491.602 286.826 533.38 314.43Z" fill="#455A64"/>
<path d="M489.73 376.726C489.73 376.726 449.786 410.714 411.52 368.586C411.52 368.586 454.857 336.262 489.73 376.726Z" fill="#455A64"/>
<path d="M448.447 245.672C448.447 245.672 492.76 266.971 471.254 315.769C468.107 313.975 427.513 290.024 448.447 245.672Z" fill="#455A64"/>
<path d="M438.825 304.509C438.825 304.509 460.929 334.35 427.993 359.991C425.939 356.793 406.643 328.278 438.825 304.509Z" fill="#455A64"/>
<path d="M541.338 168.944C541.338 168.944 546.422 213.153 498.624 220.279C498.624 220.279 496.296 174.431 541.338 168.944Z" fill="#455A64"/>
<path d="M472.827 124.137C472.827 124.137 511.483 140.286 494.697 185.588C494.658 185.627 455.923 166.292 472.827 124.137Z" fill="#455A64"/>
<path d="M449.422 188.825C449.422 188.825 500.6 194.663 496.101 250.367C496.14 250.367 443.87 241.005 449.422 188.825Z" fill="#455A64"/>
<path d="M376.607 383.253L377.258 383.071L379.169 382.551C380.859 382.109 383.356 381.524 386.502 380.497C395.424 377.738 404.052 374.105 412.261 369.652C424.431 363.006 435.667 354.778 445.677 345.182C451.587 339.534 457.096 333.482 462.165 327.069L466 321.868L467.951 319.267C468.575 318.37 469.147 317.447 469.745 316.524C470.954 314.69 472.151 312.831 473.373 310.972L476.702 305.133C477.261 304.158 477.82 303.183 478.366 302.208L479.848 299.204C480.836 297.202 481.838 295.304 482.774 293.249L485.374 287.229C485.79 286.228 486.232 285.253 486.674 284.251C487.117 283.25 487.403 282.236 487.754 281.235L489.886 275.293C490.484 273.29 491.069 271.301 491.641 269.337C491.941 268.362 492.227 267.387 492.513 266.412C492.799 265.437 492.994 264.461 493.228 263.486C493.696 261.536 494.151 259.611 494.593 257.713C497.478 244.159 498.722 230.307 498.299 216.456C497.994 207.117 496.95 197.817 495.178 188.643C494.489 185.419 493.878 182.922 493.501 181.219C493.306 180.387 493.163 179.736 493.059 179.281C492.955 178.826 492.942 178.618 492.942 178.618L493.124 179.268L493.605 181.193C494.021 182.883 494.671 185.38 495.412 188.604C497.258 197.784 498.359 207.098 498.702 216.456C499.159 230.346 497.919 244.24 495.009 257.83L493.709 263.616C493.475 264.591 493.28 265.593 492.994 266.555C492.708 267.517 492.422 268.518 492.123 269.493C491.55 271.47 490.965 273.459 490.367 275.462C489.665 277.438 488.963 279.362 488.235 281.43C487.884 282.444 487.52 283.445 487.156 284.459C486.791 285.474 486.323 286.449 485.855 287.45L483.255 293.496C482.306 295.486 481.304 297.397 480.316 299.464L478.834 302.481L477.157 305.42L473.815 311.271L470.174 316.849C469.576 317.772 468.991 318.708 468.367 319.592L466.416 322.193L462.516 327.394C457.429 333.848 451.889 339.931 445.937 345.598C435.896 355.215 424.608 363.441 412.378 370.056C404.134 374.49 395.46 378.071 386.489 380.744C383.33 381.745 380.807 382.304 379.117 382.707L377.193 383.162C376.999 383.201 376.804 383.231 376.607 383.253Z" fill="#263238"/>
<path d="M434.04 328.577C434.096 329.009 434.096 329.446 434.04 329.877C433.975 330.671 433.858 331.828 433.689 333.258C433.338 336.106 432.753 340.032 431.908 344.336C431.062 348.64 430.139 352.502 429.385 355.272C429.008 356.663 428.683 357.768 428.436 358.535C428.34 358.945 428.196 359.342 428.007 359.718C428.028 359.299 428.102 358.884 428.228 358.483C428.436 357.573 428.683 356.468 428.982 355.167C429.632 352.385 430.503 348.51 431.336 344.219C432.168 339.928 432.831 336.028 433.273 333.193C433.494 331.893 433.676 330.762 433.819 329.851C433.838 329.419 433.912 328.991 434.04 328.577V328.577Z" fill="#263238"/>
<path d="M444.936 372.89C444.499 372.907 444.062 372.868 443.636 372.773L440.242 372.279C437.369 371.85 433.416 371.291 429.021 370.77C424.626 370.25 420.647 369.886 417.761 369.639L414.354 369.34C413.914 369.34 413.477 369.279 413.054 369.158C413.486 369.107 413.922 369.107 414.354 369.158C415.16 369.158 416.33 369.158 417.787 369.275C420.673 369.418 424.678 369.717 429.073 370.237C433.468 370.757 437.434 371.382 440.294 371.915C441.711 372.175 442.895 372.409 443.662 372.591C444.097 372.641 444.524 372.741 444.936 372.89V372.89Z" fill="#263238"/>
<path d="M498.832 318.721C498.351 318.891 497.855 319.013 497.35 319.085L493.306 319.878C489.886 320.555 485.179 321.543 480.004 322.791C474.829 324.039 470.2 325.327 466.859 326.289L462.893 327.433C462.412 327.599 461.915 327.716 461.411 327.784C461.869 327.56 462.342 327.369 462.828 327.212C463.738 326.874 465.077 326.432 466.729 325.912C470.044 324.845 474.686 323.493 479.861 322.232C485.036 320.971 489.769 320.06 493.215 319.488C494.931 319.202 496.336 318.994 497.298 318.864C497.804 318.768 498.317 318.72 498.832 318.721V318.721Z" fill="#263238"/>
<path d="M459.668 276.879C460.016 277.303 460.32 277.761 460.579 278.244C461.151 279.128 461.879 280.455 462.763 282.145C467.247 290.891 469.985 300.426 470.825 310.218C470.981 312.09 471.059 313.611 471.046 314.664C471.102 315.205 471.102 315.749 471.046 316.29C470.944 315.758 470.888 315.219 470.877 314.677C470.877 313.624 470.682 312.077 470.474 310.257C469.406 300.547 466.684 291.092 462.425 282.301C461.619 280.624 460.93 279.271 460.423 278.4C460.125 277.917 459.873 277.408 459.668 276.879Z" fill="#263238"/>
<path d="M519.038 251.42C518.675 251.74 518.279 252.02 517.854 252.252L514.578 254.398C511.821 256.218 508.076 258.844 504.176 262.017C500.275 265.19 496.907 268.297 494.554 270.612L491.784 273.381C491.466 273.74 491.113 274.067 490.731 274.357C490.981 273.946 491.277 273.567 491.615 273.225C492.213 272.523 493.11 271.522 494.216 270.326C497.215 267.213 500.403 264.286 503.76 261.562C507.115 258.84 510.637 256.33 514.305 254.046C515.709 253.175 516.905 252.499 517.685 252.057C518.114 251.801 518.567 251.587 519.038 251.42V251.42Z" fill="#263238"/>
<path d="M463.152 211.021C463.307 211.106 463.448 211.216 463.568 211.346L464.7 212.347C465.675 213.231 467.04 214.531 468.717 216.183C472.059 219.459 476.519 224.153 481.187 229.601C485.855 235.049 489.756 240.224 492.473 244.047C493.773 245.959 494.892 247.532 495.607 248.624L496.426 249.924C496.531 250.068 496.614 250.225 496.673 250.392C496.541 250.272 496.423 250.137 496.322 249.989L495.425 248.78L492.135 244.32C489.34 240.562 485.374 235.452 480.745 230.017C476.116 224.582 471.643 219.862 468.418 216.508L464.518 212.607L463.464 211.515C463.335 211.368 463.229 211.201 463.152 211.021V211.021Z" fill="#263238"/>
<path d="M524.837 183.325C524.517 183.818 524.151 184.279 523.745 184.703L520.637 188.37C518.037 191.491 514.539 195.86 510.937 200.892C507.336 205.924 504.332 210.657 502.239 214.115L499.768 218.237C499.484 218.755 499.167 219.255 498.819 219.732C499.02 219.177 499.273 218.642 499.573 218.133C500.08 217.119 500.873 215.676 501.874 213.907C503.89 210.384 506.854 205.599 510.469 200.554C514.084 195.509 517.634 191.153 520.325 188.11C521.625 186.589 522.783 185.367 523.576 184.56C523.965 184.118 524.387 183.705 524.837 183.325Z" fill="#263238"/>
<path d="M478.509 141.327C478.828 141.837 479.098 142.377 479.315 142.939C479.809 144.005 480.485 145.54 481.291 147.464C482.917 151.287 485.062 156.566 487.26 162.586C489.457 168.606 491.316 173.989 492.578 177.955C493.215 179.944 493.696 181.544 494.021 182.675C494.218 183.242 494.366 183.825 494.463 184.417C494.196 183.879 493.978 183.318 493.813 182.74L492.188 178.085C490.822 174.184 488.924 168.736 486.713 162.781C484.503 156.826 482.436 151.482 480.914 147.62L479.107 143.03C478.871 142.476 478.671 141.907 478.509 141.327V141.327Z" fill="#263238"/>
<path d="M349.055 463.765C349.055 463.765 355.79 490.668 349.055 501.577C348.782 502.032 348.483 502.487 348.171 502.877C343.791 509.175 337.468 513.865 330.17 516.23C322.872 518.595 315 518.504 307.759 515.971L231.993 489.966L237.779 469.63L286.422 475.637L338.328 461.503L349.055 463.765Z" fill="#FFBE9D"/>
<path d="M315.274 422.222C315.274 422.222 339.537 492.917 338.328 509.873C337.119 526.828 290.218 615.662 290.218 615.662L269.674 606.222C269.674 606.222 277.554 581.296 282.807 559.491C285.407 548.477 286.5 535.098 288.528 529.689C294.691 513.526 301.895 505.114 301.895 505.114L268.829 437.149L315.274 422.222Z" fill="#FFBE9D"/>
<path d="M248.792 375.088C248.792 375.088 241.628 394.8 246.582 413.419C251.536 432.039 298.163 508.338 298.163 508.338L352.124 477.132C352.124 477.132 350.043 409.129 331.242 371.187L248.792 375.088Z" fill="#263238"/>
<path d="M337.899 485.22C337.899 485.22 338.029 485.415 338.211 485.818C338.393 486.221 338.653 486.819 338.926 487.612C339.708 489.859 340.227 492.189 340.474 494.556C340.821 498.073 340.729 501.619 340.201 505.114C339.902 507.09 339.55 509.131 339.017 511.238C338.484 513.344 337.782 515.477 337.015 517.622C333.933 526.256 330.631 533.836 328.225 539.324C327.016 542.067 326.015 544.265 325.3 545.825C324.962 546.514 324.688 547.125 324.467 547.554C324.378 547.762 324.265 547.958 324.129 548.139C324.171 547.919 324.241 547.705 324.337 547.502L325.053 545.721L327.783 539.22C330.072 533.68 333.309 526.074 336.378 517.479C337.132 515.334 337.821 513.214 338.367 511.16C338.913 509.105 339.277 507.051 339.589 505.101C340.143 501.662 340.287 498.171 340.019 494.699C339.83 492.353 339.394 490.035 338.718 487.781C338.198 486.091 337.834 485.246 337.899 485.22Z" fill="#EB996E"/>
<path d="M284.705 550.207C284.692 549.598 284.731 548.989 284.822 548.386C284.926 547.203 285.134 545.513 285.42 543.432C286.125 537.971 287.366 532.592 289.126 527.374C291.044 522.206 293.534 517.269 296.551 512.655C297.682 510.887 298.631 509.457 299.307 508.494C299.628 507.975 299.998 507.487 300.412 507.038C300.167 507.597 299.871 508.132 299.528 508.637C298.852 509.756 297.994 511.238 296.928 512.902C294.054 517.552 291.646 522.473 289.737 527.595C287.991 532.776 286.686 538.096 285.836 543.497C285.498 545.474 285.225 547.125 285.017 548.412C284.979 549.02 284.875 549.622 284.705 550.207V550.207Z" fill="#EB996E"/>
<path d="M337.6 470.423C337.491 470.226 337.408 470.016 337.353 469.799L336.768 467.991C336.261 466.314 335.559 464.09 334.713 461.321C332.984 455.678 330.527 447.915 327.614 439.412C324.701 430.908 321.88 423.262 319.812 417.736L317.342 411.235C317.082 410.52 316.874 409.935 316.692 409.454C316.6 409.251 316.539 409.037 316.51 408.816C316.643 408.994 316.748 409.192 316.822 409.402L317.589 411.144C318.252 412.652 319.162 414.863 320.255 417.645C322.452 423.119 325.339 430.752 328.264 439.268C331.19 447.785 333.569 455.587 335.195 461.256C336.001 464.09 336.638 466.457 337.041 468.004C337.223 468.732 337.379 469.305 337.496 469.838C337.558 470.027 337.593 470.224 337.6 470.423Z" fill="#455A64"/>
<path d="M305.848 417.671C305.77 417.762 304.157 416.436 301.284 414.707C299.606 413.702 297.869 412.799 296.083 412.002C293.882 411.051 291.618 410.252 289.308 409.61C286.985 409.006 284.621 408.572 282.235 408.309C280.288 408.094 278.329 408.003 276.371 408.036C273.016 408.101 270.962 408.44 270.936 408.309C271.398 408.145 271.878 408.036 272.366 407.984C273.686 407.755 275.019 407.611 276.358 407.555C278.339 407.454 280.325 407.498 282.3 407.685C284.723 407.926 287.123 408.361 289.477 408.986C291.825 409.634 294.12 410.46 296.343 411.456C298.142 412.29 299.88 413.25 301.544 414.33C302.674 415.046 303.755 415.837 304.781 416.696C305.175 416.977 305.533 417.304 305.848 417.671V417.671Z" fill="#455A64"/>
<path d="M325.702 341.281C326.092 332.361 336.625 321.153 333.907 295.85C331.046 269.312 327.016 245.92 327.016 245.92L307.005 250.796L303.572 245.92L270.532 253.721L265.331 258.623L242.408 267.998C241.052 268.556 239.822 269.381 238.792 270.424C237.762 271.467 236.953 272.708 236.413 274.071L220.446 314.678L185.742 291.338L172.597 309.165C172.597 309.165 216.285 349.252 227.702 348.094C237.935 347.054 246.503 331.529 250.755 322.232L257.335 349.655C257.335 349.655 246.933 367.988 244.839 399.065L313.467 401.665C315.584 401.748 317.692 401.337 319.623 400.466C321.555 399.595 323.257 398.288 324.597 396.646L337.6 380.77C337.6 380.77 325.312 350.149 325.702 341.281Z" fill="#5089FF"/>
<path d="M317.667 250.821L326.522 246.765L361.304 216.456L373.812 163.587L395.917 172.832C395.917 172.832 393.797 212.555 391.028 226.142C388.258 239.73 332.399 284.069 332.399 284.069L317.667 250.821Z" fill="#5089FF"/>
<path d="M329.799 258.922C330.093 260.414 330.306 261.92 330.436 263.434C330.813 266.412 331.294 270.183 331.814 274.343C332.334 278.504 332.776 282.483 333.01 285.279C333.14 286.683 333.218 287.879 333.257 288.607C333.319 289.017 333.319 289.433 333.257 289.843C332.931 288.355 332.701 286.848 332.568 285.331C332.191 282.353 331.71 278.595 331.177 274.434C330.644 270.274 330.215 266.295 329.994 263.486C329.877 262.082 329.812 260.951 329.786 260.158C329.724 259.748 329.729 259.331 329.799 258.922V258.922Z" fill="#263238"/>
<path d="M306.055 329.93C305.82 329.728 305.603 329.506 305.405 329.267L303.65 327.264C302.09 325.457 299.905 322.934 297.253 319.84L276.344 295.135L264.85 281.469L264.707 281.3L264.824 281.118L267.386 276.658L267.698 277.087C266.189 277.399 264.772 277.477 263.472 277.75L263.095 277.841V277.451C263.797 271.938 264.395 267.374 264.785 264.111C264.993 262.576 265.162 261.354 265.292 260.444C265.328 260.004 265.406 259.568 265.526 259.144C265.535 259.578 265.509 260.013 265.448 260.444C265.357 261.367 265.24 262.589 265.084 264.137C264.733 267.4 264.239 271.938 263.641 277.503L263.303 277.217C264.603 276.905 266.098 276.814 267.529 276.502L268.166 276.359L267.854 276.931C267.061 278.361 266.228 279.857 265.357 281.404V281.053C268.881 285.24 272.795 289.856 276.89 294.706L297.695 319.515L303.923 327.082L305.587 329.163C305.77 329.401 305.927 329.658 306.055 329.93V329.93Z" fill="#263238"/>
<path d="M311.192 326.172C311.183 325.884 311.209 325.596 311.27 325.314L311.621 322.856C311.946 320.724 312.466 317.655 313.142 313.846C313.818 310.036 314.611 305.537 315.352 300.505C316.192 295.064 316.674 289.574 316.796 284.07C316.948 278.116 316.513 272.163 315.495 266.295L315.729 266.529L311.192 265.45L310.502 265.281L311.114 264.917L314.429 262.966L314.351 263.343C312.908 261.289 311.842 259.326 310.841 257.609C309.839 255.893 309.02 254.437 308.318 253.188C307.616 251.94 307.018 251.043 306.667 250.406C306.445 250.098 306.249 249.772 306.082 249.431C306.161 249.494 306.231 249.569 306.29 249.652C306.47 249.868 306.64 250.094 306.797 250.328C307.226 250.926 307.824 251.849 308.565 253.032L311.166 257.401C312.193 259.079 313.311 261.042 314.741 263.031L314.91 263.265L314.663 263.421L311.374 265.411L311.296 264.891L315.833 265.931H316.029V266.126C317.126 272.042 317.619 278.054 317.498 284.07C317.369 289.612 316.856 295.138 315.963 300.609C315.196 305.654 314.325 310.166 313.61 313.95C312.895 317.733 312.31 320.711 311.881 322.908C311.686 323.91 311.53 324.716 311.4 325.34C311.358 325.624 311.289 325.902 311.192 326.172V326.172Z" fill="#263238"/>
<path d="M315.496 340.163C315.193 340.431 314.851 340.65 314.481 340.813C313.805 341.19 312.817 341.697 311.582 342.295C305.121 345.389 298.347 347.782 291.376 349.433C290.075 349.746 288.957 349.98 288.203 350.11C287.814 350.217 287.41 350.261 287.007 350.24C288.399 349.727 289.818 349.292 291.259 348.939C293.859 348.198 297.513 347.106 301.44 345.715C305.367 344.323 308.877 342.893 311.387 341.814C312.72 341.178 314.093 340.627 315.496 340.163V340.163Z" fill="#263238"/>
<path d="M316.601 350.799C315.531 350.923 314.452 350.953 313.376 350.89C311.387 350.89 308.643 350.89 305.575 351.046C302.506 351.202 299.814 351.397 297.838 351.566C296.795 351.706 295.742 351.746 294.691 351.683C295.723 351.353 296.786 351.135 297.864 351.033C299.84 350.747 302.597 350.448 305.666 350.318C308.734 350.188 311.478 350.24 313.467 350.318C314.527 350.354 315.579 350.516 316.601 350.799V350.799Z" fill="#263238"/>
<path d="M311.595 340.436C311.203 338.082 311.029 335.696 311.075 333.31C310.902 330.931 310.955 328.541 311.231 326.172C311.63 328.525 311.805 330.911 311.751 333.297C311.931 335.676 311.879 338.067 311.595 340.436V340.436Z" fill="#263238"/>
<path d="M310.541 350.162C310.032 348.996 309.728 347.751 309.644 346.482C309.339 345.24 309.26 343.954 309.41 342.685C310.226 345.091 310.608 347.622 310.541 350.162Z" fill="#263238"/>
<path d="M318.668 400.898C318.538 400.26 318.469 399.611 318.46 398.96C318.369 397.66 318.239 395.892 318.031 393.668C317.654 389.195 316.978 383.032 315.977 376.271C314.975 369.51 313.792 363.385 312.895 359.042C312.44 356.845 312.024 355.077 311.751 353.841C311.561 353.215 311.439 352.57 311.387 351.917C311.644 352.519 311.853 353.141 312.011 353.776C312.362 354.973 312.843 356.728 313.311 358.912C314.377 363.281 315.626 369.38 316.64 376.154C317.654 382.928 318.252 389.156 318.512 393.616C318.655 395.866 318.707 397.673 318.72 398.934C318.768 399.589 318.751 400.247 318.668 400.898V400.898Z" fill="#263238"/>
<g opacity="0.3">
<path opacity="0.3" d="M263.147 277.659L264.681 278.296L262.991 282.197C262.991 282.197 288.996 314.001 296.108 320.152C304.69 327.615 304.937 328.577 304.937 328.577L265.084 281.235L267.594 276.775L263.147 277.659Z" fill="black"/>
</g>
<g opacity="0.3">
<path opacity="0.3" d="M281.832 351.813L320.111 339.876C320.337 340.991 320.251 342.146 319.863 343.215C319.476 344.284 318.801 345.225 317.914 345.936C316.111 347.328 314.025 348.309 311.803 348.809C302.584 351.41 291.466 353.022 281.975 351.813" fill="black"/>
</g>
<path d="M229.899 323.077C227.738 318.731 223.941 315.42 219.341 313.871C220.07 313.849 220.794 313.992 221.461 314.287C224.805 315.463 227.573 317.873 229.197 321.023C229.575 321.65 229.815 322.35 229.899 323.077V323.077Z" fill="#263238"/>
<path d="M243.513 287.541C243.612 287.733 243.682 287.939 243.721 288.152C243.851 288.646 244.007 289.231 244.189 289.947C244.579 291.624 245.112 293.847 245.763 296.591C247.063 302.195 248.831 309.958 250.73 318.526C252.628 327.095 254.266 334.792 255.515 340.514C256.087 343.257 256.555 345.52 256.893 347.197C257.036 347.925 257.153 348.497 257.244 349.017C257.295 349.226 257.325 349.44 257.335 349.654C257.035 348.874 256.805 348.069 256.646 347.249C256.243 345.585 255.697 343.348 255.046 340.618C253.746 335.014 251.965 327.264 250.066 318.682C248.168 310.101 246.478 302.273 245.282 296.695C244.722 293.951 244.254 291.689 243.981 290.012C243.851 289.283 243.734 288.711 243.643 288.178C243.573 287.972 243.53 287.758 243.513 287.541Z" fill="#263238"/>
<path d="M178.24 307.474C178.111 308.008 178.138 308.568 178.318 309.086C178.42 309.345 178.578 309.578 178.78 309.769C178.982 309.96 179.224 310.104 179.488 310.192C179.807 310.265 180.141 310.24 180.445 310.119C180.749 309.998 181.01 309.788 181.192 309.516C181.399 309.265 181.528 308.957 181.56 308.633C181.593 308.309 181.528 307.982 181.374 307.695C181.212 307.468 181.005 307.278 180.765 307.137C180.526 306.996 180.259 306.907 179.982 306.876C179.432 306.846 178.886 306.977 178.409 307.253C178.409 307.253 178.409 307.045 178.695 306.824C179.067 306.539 179.527 306.392 179.995 306.408C180.36 306.408 180.719 306.495 181.045 306.659C181.37 306.824 181.652 307.063 181.868 307.357C182.096 307.755 182.201 308.212 182.172 308.67C182.142 309.128 181.979 309.567 181.702 309.933C181.425 310.299 181.046 310.575 180.613 310.727C180.18 310.88 179.712 310.901 179.267 310.79C178.924 310.667 178.615 310.463 178.366 310.196C178.117 309.929 177.936 309.607 177.837 309.255C177.667 308.807 177.667 308.312 177.837 307.864C178.045 307.565 178.214 307.474 178.24 307.474Z" fill="#263238"/>
<path d="M376.725 170.947C376.725 170.947 376.829 170.752 377.206 170.647C377.467 170.612 377.733 170.63 377.988 170.699C378.242 170.768 378.48 170.888 378.688 171.051C379.332 171.516 379.767 172.217 379.897 173.001C379.934 173.511 379.799 174.018 379.514 174.442C379.229 174.867 378.81 175.183 378.324 175.341C377.864 175.533 377.358 175.589 376.867 175.501C376.376 175.414 375.92 175.187 375.554 174.847C375.284 174.545 375.099 174.176 375.019 173.778C374.939 173.38 374.967 172.968 375.099 172.585C375.515 171.285 376.244 170.895 376.283 170.947C375.993 171.509 375.753 172.097 375.567 172.702C375.486 172.999 375.482 173.312 375.557 173.61C375.633 173.909 375.784 174.183 375.997 174.405C376.284 174.644 376.631 174.799 377 174.854C377.369 174.909 377.746 174.862 378.09 174.717C378.44 174.607 378.744 174.387 378.957 174.089C379.171 173.791 379.282 173.432 379.273 173.066C379.185 172.431 378.871 171.85 378.389 171.428C378.078 171.124 377.666 170.944 377.232 170.921C376.92 170.947 376.751 171.064 376.725 170.947Z" fill="#263238"/>
<path d="M193.128 260.197C201.658 249.313 213.178 240.693 227.091 238.482C234.268 237.325 241.225 238.482 248.038 240.836C255.267 243.293 262.198 246.206 269.83 247.207C278.594 248.364 287.397 247.558 296.135 246.557C297.825 246.362 304.079 244.775 304.079 242.929C304.079 241.369 297.838 240.043 296.135 240.238C288.203 241.148 280.18 241.941 272.197 241.174C264.395 240.42 257.309 237.338 249.988 234.841C242.847 232.207 235.192 231.264 227.624 232.085C220.052 233.052 212.779 235.643 206.3 239.678C199.522 243.955 193.549 249.391 188.655 255.737C188.092 256.343 187.779 257.139 187.779 257.967C187.779 258.794 188.092 259.59 188.655 260.197C189.251 260.784 190.055 261.114 190.892 261.114C191.729 261.114 192.532 260.784 193.128 260.197Z" fill="#455A64"/>
<g opacity="0.3">
<path opacity="0.3" d="M193.154 260.288C201.684 249.404 213.204 240.784 227.117 238.573C234.191 237.612 241.392 238.421 248.077 240.927C255.306 243.371 262.237 246.297 269.856 247.298C278.62 248.455 287.436 247.649 296.161 246.648C297.864 246.453 304.079 245.348 304.079 243.514C304.079 241.954 297.864 240.134 296.161 240.329C288.229 241.239 280.206 242.032 272.223 241.252C264.421 240.511 257.348 237.429 250.027 234.933C242.88 232.301 235.223 231.353 227.65 232.163C220.078 233.137 212.805 235.732 206.326 239.77C199.552 244.046 193.583 249.482 188.694 255.828C188.125 256.431 187.809 257.229 187.809 258.058C187.809 258.887 188.125 259.684 188.694 260.288C189.288 260.874 190.089 261.204 190.924 261.204C191.759 261.204 192.56 260.874 193.154 260.288V260.288Z" fill="black"/>
</g>
<path d="M316.796 183.443C319.76 181.765 320.346 177.253 318.33 174.484C317.241 173.162 315.78 172.198 314.136 171.715C312.493 171.233 310.742 171.255 309.111 171.779C309.461 170.792 309.483 169.719 309.174 168.719C308.864 167.718 308.241 166.844 307.395 166.227C305.669 165.033 303.601 164.435 301.505 164.524C298.709 164.524 295.511 165.395 294.366 167.943C293.924 166.279 292.039 165.434 290.323 165.343C288.018 165.264 285.765 166.038 283.995 167.515C282.225 168.993 281.061 171.071 280.727 173.353C279.189 172.475 277.417 172.098 275.656 172.273C274.779 172.383 273.964 172.779 273.336 173.399C272.708 174.02 272.303 174.831 272.184 175.706C271.595 175.068 270.856 174.587 270.034 174.308C269.212 174.028 268.333 173.959 267.477 174.107C266.215 174.143 264.994 174.565 263.979 175.316C263.482 175.701 263.113 176.228 262.923 176.827C262.732 177.426 262.729 178.069 262.913 178.671C261.716 178.467 260.486 178.714 259.461 179.366C258.435 180.017 257.689 181.025 257.365 182.196C257.041 183.366 257.163 184.615 257.708 185.701C258.253 186.787 259.181 187.631 260.313 188.071C259.491 188.748 258.855 189.622 258.465 190.612C258.075 191.602 257.943 192.675 258.082 193.73C258.221 194.785 258.627 195.787 259.26 196.642C259.894 197.497 260.735 198.177 261.704 198.617C261.467 198.721 261.257 198.877 261.09 199.075C260.922 199.272 260.802 199.505 260.738 199.755C260.674 200.006 260.668 200.268 260.721 200.521C260.773 200.774 260.883 201.012 261.041 201.217C261.665 202.075 261.249 202.127 262.341 202.101C262.549 205.742 262.835 208.538 263.043 212.178C263.186 214.532 263.134 217.613 263.992 219.798C264.636 221.021 265.515 222.105 266.58 222.986C267.644 223.868 268.873 224.53 270.195 224.934L313.558 208.655C314.996 207.127 315.972 205.223 316.372 203.163C316.773 201.104 316.582 198.973 315.821 197.017C315.682 196.843 315.585 196.64 315.536 196.422C315.487 196.205 315.489 195.98 315.54 195.763C315.592 195.546 315.691 195.344 315.832 195.172C315.973 194.999 316.152 194.861 316.354 194.768C317.233 194.092 317.965 193.244 318.506 192.276C319.046 191.308 319.385 190.24 319.5 189.138C319.582 188.035 319.376 186.931 318.902 185.932C318.428 184.934 317.702 184.076 316.796 183.443V183.443Z" fill="#263238"/>
<path d="M312.895 198.252C311.92 189.476 302.038 181.128 293.391 182.467L265.253 189.151L265.578 193.884L272.756 257.596L303.169 275.722L301.388 244.399C301.388 244.399 312.492 242.006 314.104 227.209C314.91 219.915 313.961 207.952 312.895 198.252Z" fill="#FFBE9D"/>
<path d="M307.473 211.008C307.498 211.495 307.334 211.974 307.014 212.342C306.693 212.711 306.243 212.941 305.757 212.984C305.284 213.031 304.813 212.89 304.445 212.59C304.077 212.29 303.842 211.857 303.793 211.385C303.761 210.894 303.923 210.411 304.244 210.038C304.565 209.666 305.02 209.435 305.509 209.395C305.983 209.352 306.455 209.496 306.822 209.798C307.19 210.1 307.424 210.535 307.473 211.008V211.008Z" fill="#263238"/>
<path d="M310.594 204.545C310.373 204.805 308.89 203.817 306.875 203.921C304.859 204.025 303.429 205.104 303.208 204.87C302.987 204.636 303.299 204.311 303.923 203.804C304.768 203.163 305.789 202.795 306.849 202.751C307.903 202.687 308.948 202.971 309.826 203.557C310.464 203.999 310.698 204.441 310.594 204.545Z" fill="#263238"/>
<path d="M289.815 211.567C289.848 212.054 289.687 212.534 289.368 212.904C289.05 213.274 288.598 213.503 288.112 213.543C287.874 213.574 287.632 213.557 287.401 213.493C287.17 213.428 286.954 213.318 286.766 213.169C286.578 213.02 286.422 212.835 286.307 212.625C286.192 212.414 286.121 212.183 286.096 211.944C286.064 211.456 286.224 210.974 286.542 210.602C286.861 210.23 287.312 209.998 287.8 209.955C288.039 209.924 288.281 209.942 288.513 210.007C288.745 210.072 288.961 210.183 289.15 210.333C289.338 210.484 289.493 210.67 289.608 210.882C289.722 211.094 289.793 211.327 289.815 211.567V211.567Z" fill="#263238"/>
<path d="M290.855 206.301C290.634 206.561 289.165 205.572 287.15 205.676C285.134 205.78 283.704 206.86 283.47 206.613C283.236 206.366 283.574 206.067 284.198 205.559C285.033 204.913 286.047 204.541 287.102 204.494C288.157 204.448 289.2 204.729 290.088 205.299C290.79 205.754 290.959 206.184 290.855 206.301Z" fill="#263238"/>
<path d="M298.826 220.552C299.872 220.16 300.965 219.906 302.077 219.797C302.584 219.719 303.065 219.589 303.143 219.238C303.158 218.701 303.013 218.172 302.727 217.717L301.01 213.816C298.618 208.303 296.863 203.765 297.11 203.674C297.357 203.583 299.45 207.965 301.843 213.478C302.415 214.778 302.961 216.079 303.494 217.379C303.843 217.989 303.972 218.701 303.858 219.394C303.792 219.583 303.684 219.753 303.542 219.893C303.4 220.033 303.228 220.138 303.039 220.201C302.761 220.29 302.472 220.342 302.181 220.357C301.074 220.556 299.948 220.621 298.826 220.552V220.552Z" fill="#263238"/>
<path d="M301.388 244.451C294.505 244.883 287.638 243.388 281.559 240.134C281.559 240.134 287.54 251.043 302.103 248.976L301.388 244.451Z" fill="#EB996E"/>
<path d="M298.215 225.467C297.807 225.002 297.287 224.648 296.705 224.439C296.123 224.23 295.497 224.172 294.886 224.27C294.447 224.325 294.023 224.468 293.641 224.692C293.259 224.915 292.926 225.214 292.663 225.571C292.416 225.926 292.284 226.348 292.284 226.78C292.284 227.212 292.416 227.634 292.663 227.989C293.002 228.34 293.44 228.58 293.918 228.677C294.396 228.774 294.892 228.725 295.342 228.535C296.281 228.155 297.135 227.589 297.851 226.871C298.07 226.698 298.255 226.487 298.397 226.247C298.467 226.134 298.505 226.003 298.505 225.87C298.505 225.737 298.467 225.606 298.397 225.493" fill="#EB996E"/>
<path d="M292.962 222.229C293.287 222.229 293.404 224.387 295.354 225.87C297.305 227.352 299.619 226.988 299.645 227.287C299.671 227.586 299.151 227.742 298.163 227.82C296.883 227.898 295.616 227.52 294.587 226.754C293.596 226.012 292.926 224.919 292.715 223.698C292.598 222.775 292.806 222.229 292.962 222.229Z" fill="#263238"/>
<path d="M291.115 199.032C290.933 199.592 288.918 199.435 286.564 199.826C284.211 200.216 282.325 200.97 281.987 200.489C281.831 200.255 282.143 199.722 282.885 199.188C283.885 198.491 285.031 198.029 286.236 197.837C287.441 197.646 288.673 197.73 289.841 198.083C290.79 198.356 291.18 198.772 291.115 199.032Z" fill="#263238"/>
<path d="M309.566 198.72C309.228 199.201 307.811 198.72 306.147 198.85C304.482 198.98 303.078 199.305 302.727 198.85C302.571 198.616 302.727 198.148 303.364 197.68C304.169 197.115 305.125 196.807 306.108 196.796C307.091 196.769 308.058 197.046 308.877 197.589C309.488 198.031 309.709 198.486 309.566 198.72Z" fill="#263238"/>
<path d="M306.029 181.57L305.119 181.193C306.537 178.02 304.144 173.95 300.763 173.157C299.048 172.862 297.283 173.13 295.732 173.919C294.181 174.709 292.926 175.979 292.156 177.539C291.376 176.178 290.16 175.12 288.704 174.537C287.247 173.954 285.637 173.88 284.133 174.328C281.676 175.147 279.92 177.253 278.23 179.229C277.853 179.672 277.372 180.153 276.787 180.088C276.37 179.977 275.998 179.741 275.72 179.412C274.256 178.204 272.462 177.465 270.572 177.291C268.682 177.117 266.783 177.516 265.123 178.436C263.488 179.396 262.062 180.675 260.93 182.196C259.797 183.716 258.982 185.449 258.531 187.291C258.059 188.78 257.979 190.365 258.297 191.894C258.462 192.652 258.824 193.353 259.347 193.926C259.87 194.499 260.535 194.924 261.274 195.158C260.614 196.085 260.176 197.151 259.994 198.275C259.811 199.398 259.89 200.549 260.223 201.637C260.556 202.725 261.135 203.722 261.914 204.551C262.694 205.38 263.654 206.019 264.72 206.418C264.876 206.914 265.09 207.389 265.357 207.835C265.11 210.506 265.019 213.189 265.084 215.871C265.045 217.029 265.286 218.18 265.786 219.226C266.053 219.737 266.475 220.151 266.991 220.407C267.507 220.664 268.091 220.751 268.66 220.656C269.869 220.318 271.56 219.694 271.924 218.484C272.561 216.326 271.859 213.348 272.028 211.099C273.28 210.912 274.452 210.37 275.405 209.536C276.358 208.702 277.051 207.612 277.402 206.395C277.753 205.179 277.746 203.887 277.384 202.674C277.021 201.46 276.317 200.377 275.356 199.553C276.406 199.99 277.545 200.172 278.678 200.084C279.812 199.995 280.909 199.638 281.878 199.043C282.847 198.447 283.66 197.63 284.251 196.658C284.842 195.687 285.194 194.589 285.277 193.454C286.314 194.423 287.548 195.157 288.894 195.606C290.241 196.055 291.668 196.208 293.079 196.055C294.436 195.981 295.71 195.379 296.629 194.378C297.064 193.86 297.294 193.2 297.275 192.524C297.256 191.848 296.989 191.203 296.525 190.711C297.819 191.289 299.255 191.474 300.653 191.243C302.052 191.012 303.352 190.375 304.391 189.411C305.395 188.403 306.084 187.126 306.375 185.734C306.666 184.342 306.546 182.895 306.029 181.57V181.57Z" fill="#263238"/>
<path d="M269.349 213.4C269.128 213.309 260.624 211.086 261.17 219.706C261.716 228.327 270.207 226.026 270.207 225.779C270.207 225.531 269.349 213.4 269.349 213.4Z" fill="#FFBE9D"/>
<path d="M267.386 222.671C267.386 222.671 267.243 222.788 266.996 222.918C266.649 223.094 266.248 223.126 265.878 223.009C265.301 222.685 264.82 222.216 264.482 221.648C264.144 221.079 263.962 220.432 263.953 219.771C263.891 219.035 263.988 218.295 264.239 217.6C264.304 217.327 264.434 217.073 264.617 216.861C264.8 216.648 265.032 216.482 265.292 216.378C265.463 216.32 265.648 216.325 265.815 216.392C265.982 216.458 266.119 216.583 266.203 216.742C266.333 216.976 266.294 217.145 266.333 217.158C266.372 217.171 266.515 217.002 266.424 216.651C266.36 216.44 266.227 216.256 266.047 216.131C265.926 216.049 265.79 215.992 265.647 215.963C265.505 215.934 265.357 215.934 265.214 215.962C264.865 216.052 264.545 216.231 264.285 216.482C264.025 216.732 263.835 217.046 263.732 217.392C263.409 218.159 263.284 218.995 263.368 219.823C263.368 220.594 263.597 221.348 264.025 221.989C264.453 222.63 265.062 223.13 265.774 223.425C266 223.467 266.233 223.46 266.457 223.407C266.681 223.353 266.891 223.253 267.074 223.113C267.386 222.879 267.386 222.684 267.386 222.671Z" fill="#EB996E"/>
<path d="M284.848 191.998C284.926 192.006 285.004 192.006 285.082 191.998L285.771 192.076C286.64 192.142 287.514 192.098 288.372 191.946C288.996 191.825 289.603 191.629 290.179 191.361C290.863 191.053 291.478 190.611 291.987 190.061C292.562 189.406 292.968 188.62 293.17 187.772C293.396 186.815 293.267 185.807 292.806 184.938L292.572 185.159C294.369 186.308 296.491 186.842 298.618 186.68C299.779 186.609 300.916 186.322 301.973 185.835C302.527 185.577 303.043 185.244 303.507 184.847C303.979 184.414 304.325 183.861 304.508 183.247C304.692 182.538 304.714 181.796 304.573 181.076C304.459 180.383 304.29 179.7 304.066 179.035C303.861 178.378 303.568 177.753 303.195 177.175C303.01 176.878 302.761 176.626 302.467 176.437C302.172 176.248 301.839 176.127 301.492 176.083V176.434C302.767 176.76 304.116 176.64 305.314 176.096C306.416 175.627 307.362 174.856 308.045 173.873C308.638 173.01 308.967 171.993 308.994 170.947C309.001 169.854 308.721 168.778 308.183 167.827C307.644 166.875 306.866 166.082 305.925 165.525C305.523 165.287 305.084 165.12 304.625 165.031C305.034 165.21 305.433 165.409 305.821 165.629C306.874 166.295 307.7 167.265 308.188 168.411C308.534 169.211 308.703 170.076 308.682 170.947C308.66 171.956 308.334 172.935 307.746 173.756C307.092 174.68 306.19 175.401 305.145 175.836C304.013 176.339 302.743 176.445 301.543 176.135L301.478 176.499C301.773 176.54 302.054 176.646 302.302 176.81C302.55 176.975 302.757 177.193 302.909 177.448C303.265 177.989 303.537 178.581 303.715 179.204C304.234 180.466 304.387 181.85 304.157 183.195C303.964 183.732 303.655 184.22 303.253 184.624C302.851 185.028 302.365 185.34 301.83 185.536C300.813 186.005 299.721 186.287 298.605 186.368C296.556 186.53 294.509 186.028 292.767 184.938L292.208 184.574L292.533 185.159C292.967 185.953 293.092 186.879 292.884 187.759C292.702 188.563 292.332 189.311 291.805 189.944C291.326 190.489 290.742 190.931 290.088 191.244C289.535 191.516 288.95 191.717 288.346 191.842C287.491 192.019 286.618 192.093 285.745 192.063C285.448 192.023 285.148 192.001 284.848 191.998V191.998Z" fill="white"/>
<path d="M307.694 187.616C307.694 187.616 307.863 187.733 308.201 187.824C308.821 187.983 309.47 187.991 310.094 187.848C310.718 187.706 311.299 187.417 311.79 187.005C311.976 186.841 312.127 186.642 312.234 186.419C312.341 186.195 312.402 185.952 312.414 185.705C312.425 185.44 312.362 185.178 312.231 184.948C312.1 184.718 311.906 184.529 311.673 184.405L311.543 184.769H311.673C312.513 184.962 313.385 184.967 314.228 184.785C315.071 184.603 315.863 184.238 316.549 183.716C316.961 183.403 317.325 183.03 317.628 182.61C317.749 182.464 317.842 182.297 317.901 182.116C317.438 182.617 316.933 183.078 316.393 183.494C315.725 183.957 314.97 184.277 314.173 184.433C313.377 184.59 312.556 184.58 311.764 184.405H311.647L309.839 184.002L311.517 184.756C311.69 184.853 311.832 184.998 311.926 185.173C312.02 185.348 312.063 185.546 312.05 185.744C312.019 186.136 311.843 186.503 311.556 186.771C311.027 187.248 310.373 187.564 309.67 187.681C309.012 187.756 308.346 187.734 307.694 187.616Z" fill="white"/>
<path d="M377.583 164.667L378.532 159.284C378.532 159.284 375.386 147.581 375.711 145.891C376.036 144.201 376.387 136.178 376.387 136.178L384.474 127.076C385.044 127.055 385.608 127.203 386.094 127.501C386.58 127.8 386.966 128.236 387.205 128.754C387.205 128.754 390.898 128.455 391.73 130.951C392.047 130.781 392.403 130.694 392.763 130.699C393.123 130.704 393.476 130.801 393.789 130.981C394.101 131.161 394.362 131.417 394.548 131.726C394.734 132.034 394.838 132.385 394.85 132.745C395.016 133.514 395.091 134.3 395.071 135.086C395.605 135.203 398.673 135.931 398.699 137.452C398.605 139.792 398.167 142.105 397.399 144.318C397.238 144.711 396.983 145.059 396.657 145.331C396.33 145.603 395.942 145.791 395.527 145.878V145.878L394.616 150.026C394.616 150.026 393.823 156.839 392.302 160.012L391.145 161.897L390.794 170.388L377.583 164.667Z" fill="#FFBE9D"/>
<path d="M389.61 134.449C389.17 132.275 388.285 130.217 387.01 128.402L383.915 130.379C384.275 131.431 384.71 132.457 385.215 133.447C385.43 134.032 385.777 134.56 386.227 134.991C386.678 135.421 387.222 135.743 387.816 135.931C388.505 136.1 389.389 135.931 389.61 135.255C389.675 134.99 389.675 134.713 389.61 134.449V134.449Z" fill="#FFBE9D"/>
<path d="M383.928 130.379C383.943 130.597 383.991 130.812 384.071 131.016C384.255 131.576 384.476 132.124 384.734 132.654C384.89 133.005 385.046 133.382 385.228 133.785C385.427 134.217 385.69 134.616 386.009 134.969C386.37 135.37 386.814 135.689 387.309 135.905C387.582 136.021 387.876 136.081 388.174 136.081C388.471 136.081 388.765 136.021 389.038 135.905C389.185 135.844 389.317 135.754 389.426 135.64C389.536 135.526 389.621 135.39 389.675 135.242C389.746 134.956 389.746 134.657 389.675 134.371C389.592 133.851 389.471 133.338 389.311 132.836C389.051 131.997 388.716 131.184 388.31 130.405C387.959 129.729 387.634 129.222 387.413 128.871C387.298 128.682 387.168 128.504 387.023 128.337C387.108 128.54 387.208 128.735 387.322 128.923C387.53 129.287 387.816 129.807 388.141 130.483C388.526 131.265 388.844 132.078 389.09 132.914C389.228 133.407 389.341 133.906 389.428 134.41C389.487 134.653 389.487 134.907 389.428 135.151C389.387 135.267 389.322 135.374 389.236 135.463C389.151 135.553 389.048 135.624 388.934 135.671C388.694 135.774 388.435 135.826 388.174 135.826C387.912 135.826 387.653 135.774 387.413 135.671C386.952 135.477 386.539 135.184 386.204 134.813C385.892 134.474 385.629 134.093 385.424 133.681C385.241 133.304 385.085 132.914 384.916 132.576C384.641 132.057 384.393 131.523 384.175 130.977C384.109 130.771 384.026 130.571 383.928 130.379V130.379Z" fill="#EB996E"/>
<path d="M388.856 135.84C388.856 135.84 388.856 135.84 388.856 136.022C388.843 136.199 388.843 136.377 388.856 136.555C388.901 137.206 389.073 137.842 389.363 138.427C389.807 139.293 390.454 140.038 391.249 140.599C391.489 140.775 391.764 140.898 392.055 140.961C392.346 141.024 392.647 141.024 392.939 140.963C393.26 140.902 393.549 140.732 393.758 140.482C393.966 140.214 394.08 139.885 394.083 139.545C394.048 138.934 393.948 138.328 393.784 137.738C393.641 137.166 393.485 136.62 393.329 136.1L392.484 133.369C392.25 132.602 392.068 131.965 391.964 131.536C391.92 131.299 391.85 131.068 391.756 130.847C391.765 131.084 391.8 131.319 391.86 131.549C391.951 132.004 392.094 132.641 392.315 133.421C392.536 134.201 392.809 135.151 393.108 136.165C393.251 136.685 393.394 137.231 393.537 137.79C393.69 138.36 393.786 138.944 393.823 139.532C393.829 139.815 393.737 140.09 393.563 140.313C393.387 140.518 393.15 140.664 392.887 140.729C392.627 140.778 392.359 140.774 392.1 140.718C391.841 140.662 391.596 140.555 391.379 140.404C390.611 139.903 389.97 139.231 389.506 138.44C389.205 137.883 389.011 137.274 388.934 136.646C388.869 136.152 388.882 135.84 388.856 135.84Z" fill="#EB996E"/>
<path d="M390.832 140.273C390.832 140.273 390.832 140.273 390.754 140.481C390.676 140.689 390.676 140.819 390.624 141.093C390.504 141.855 390.504 142.632 390.624 143.394C390.776 144.55 391.312 145.622 392.146 146.437C392.655 146.93 393.335 147.209 394.044 147.217C394.237 147.213 394.427 147.171 394.604 147.093C394.78 147.015 394.939 146.902 395.071 146.762C395.323 146.459 395.478 146.088 395.513 145.695C395.613 144.302 395.613 142.902 395.513 141.509C395.409 140.208 395.318 139.103 395.24 138.128C395.162 137.153 395.136 136.386 395.11 135.852C395.127 135.571 395.127 135.289 395.11 135.007C395.11 135.007 395.11 135.085 395.11 135.228C395.11 135.371 395.11 135.579 395.11 135.852C395.11 136.386 395.11 137.153 395.11 138.141C395.11 139.129 395.253 140.26 395.331 141.535C395.423 142.907 395.423 144.284 395.331 145.656C395.301 145.995 395.17 146.317 394.954 146.58C394.848 146.7 394.718 146.796 394.572 146.863C394.427 146.931 394.269 146.967 394.109 146.97C393.464 146.954 392.847 146.699 392.38 146.255C391.572 145.482 391.046 144.461 390.884 143.355C390.687 142.339 390.669 141.296 390.832 140.273V140.273Z" fill="#EB996E"/>
<path d="M308.851 135.995L308.981 135.67L309.176 135.956C309.331 136.179 309.548 136.351 309.8 136.451L310.112 136.581L309.839 136.776C309.609 136.925 309.431 137.143 309.332 137.4L309.202 137.712L309.02 137.426C308.862 137.206 308.646 137.035 308.396 136.932L308.084 136.802L308.357 136.607C308.576 136.454 308.747 136.242 308.851 135.995Z" fill="#E0E0E0"/>
<path d="M395.449 100.082L395.67 99.5493L396.008 100.017C396.271 100.402 396.642 100.7 397.074 100.876L397.607 101.097L397.139 101.435C396.751 101.695 396.452 102.067 396.281 102.501L396.06 103.034L395.722 102.566C395.458 102.182 395.087 101.883 394.656 101.708L394.109 101.487L394.59 101.149C394.971 100.881 395.269 100.512 395.449 100.082V100.082Z" fill="#E0E0E0"/>
<path d="M391.639 80.6696L392.003 79.7725L392.575 80.5656C393.018 81.2125 393.642 81.7145 394.369 82.0089L395.267 82.373L394.473 82.9451C393.83 83.3918 393.328 84.0149 393.03 84.7395L392.666 85.6366L392.107 84.8435C391.656 84.1987 391.028 83.6977 390.3 83.4002L389.402 83.0361L390.196 82.477C390.84 82.0257 391.341 81.3982 391.639 80.6696V80.6696Z" fill="#E0E0E0"/>
<path d="M347.781 161.39L347.456 160.467L348.405 160.701C349.167 160.881 349.964 160.845 350.707 160.597L351.63 160.271L351.409 161.221C351.215 161.981 351.251 162.782 351.513 163.522L351.825 164.445L350.876 164.211C350.114 164.031 349.317 164.067 348.574 164.315L347.651 164.64L347.885 163.691C348.066 162.929 348.03 162.132 347.781 161.39V161.39Z" fill="#E0E0E0"/>
<path d="M331.996 128.038C330.344 130.028 328.641 131.939 327.042 133.994C326.332 134.85 325.818 135.851 325.535 136.927C325.252 138.002 325.207 139.127 325.403 140.222C325.653 141.334 326.128 142.383 326.798 143.305C327.469 144.226 328.322 145 329.304 145.579C335.376 149.74 342.814 153.25 350.355 152.327C355.481 151.602 360.134 148.94 363.358 144.89C363.622 144.557 363.745 144.135 363.702 143.713C363.658 143.291 363.451 142.903 363.125 142.631C362.799 142.359 362.38 142.226 361.957 142.259C361.534 142.293 361.141 142.49 360.861 142.809C358.442 145.885 355.041 148.037 351.227 148.908C347.936 149.479 344.553 149.206 341.397 148.114C338.372 147.113 335.487 145.728 332.815 143.993C331.398 143.291 330.147 142.293 329.148 141.067C328.686 140.297 328.475 139.403 328.545 138.508C328.615 137.613 328.962 136.762 329.538 136.074C331.137 134.046 332.854 132.173 334.505 130.119C334.781 129.786 334.913 129.357 334.873 128.927C334.833 128.496 334.623 128.1 334.291 127.824C333.958 127.548 333.529 127.416 333.099 127.456C332.668 127.496 332.272 127.706 331.996 128.038Z" fill="#5089FF"/>
<path d="M365.803 92.1637C367.363 90.2914 368.91 88.419 370.47 86.5596C370.875 85.9901 371.403 85.5199 372.016 85.1843C372.629 84.8487 373.31 84.6565 374.007 84.6222C375.932 84.6222 377.141 85.9225 378.376 87.2227C382.745 91.7216 386.802 97.4948 387.244 103.944C387.436 108.277 385.956 112.518 383.109 115.789C382.845 116.122 382.722 116.544 382.765 116.966C382.809 117.388 383.016 117.777 383.342 118.048C383.668 118.32 384.087 118.453 384.51 118.42C384.933 118.387 385.326 118.189 385.606 117.87C388.633 114.378 390.393 109.966 390.599 105.348C390.589 101.346 389.536 97.4159 387.543 93.9451C385.74 90.7178 383.504 87.7518 380.899 85.1293C379.607 83.4849 377.862 82.2553 375.88 81.5926C374.709 81.3011 373.485 81.2966 372.313 81.5796C371.14 81.8626 370.053 82.4246 369.144 83.2179C367.029 85.348 365.078 87.6343 363.306 90.0573C363.169 90.2212 363.065 90.4106 363.001 90.6147C362.936 90.8187 362.913 91.0334 362.932 91.2465C362.95 91.4596 363.011 91.667 363.11 91.8567C363.208 92.0464 363.344 92.2148 363.508 92.3523C363.672 92.4897 363.861 92.5936 364.065 92.6578C364.269 92.7221 364.484 92.7455 364.697 92.7268C364.91 92.7081 365.117 92.6476 365.307 92.5487C365.497 92.4499 365.665 92.3147 365.803 92.1507V92.1637Z" fill="#5089FF"/>
<path d="M389.142 137.907L385.722 140.508V140.612H385.631L383.707 144.513C383.707 144.513 389.701 150.247 392.25 156.475L397.321 150.403L397.451 150.234L402.522 144.161C395.864 142.783 389.142 137.907 389.142 137.907Z" fill="#5089FF"/>
<path d="M390.612 137.14L383.174 146.06C382.946 146.335 382.665 146.563 382.349 146.73C382.032 146.897 381.686 147 381.329 147.032C380.973 147.065 380.613 147.027 380.272 146.92C379.93 146.813 379.613 146.64 379.338 146.411V146.411C379.053 146.182 378.817 145.898 378.644 145.575C378.471 145.253 378.365 144.899 378.333 144.535C378.3 144.171 378.341 143.804 378.453 143.456C378.566 143.108 378.747 142.786 378.987 142.51L386.425 133.59C386.653 133.315 386.934 133.087 387.25 132.92C387.567 132.753 387.913 132.65 388.27 132.618C388.626 132.585 388.985 132.623 389.327 132.73C389.669 132.837 389.986 133.01 390.26 133.239V133.239C390.546 133.468 390.782 133.752 390.954 134.074C391.127 134.397 391.233 134.751 391.266 135.115C391.299 135.479 391.258 135.846 391.145 136.194C391.033 136.542 390.851 136.864 390.612 137.14V137.14Z" fill="#5089FF"/>
<path d="M359.704 83.166L342.151 104.256L341.214 105.374L324.597 125.281C324.896 125.776 364.619 162.391 383.278 138.544C403.432 115.829 360.263 83.3871 359.704 83.166Z" fill="#5089FF"/>
<path d="M359.704 83.166C359.854 83.2338 359.994 83.3213 360.12 83.4261C360.393 83.6081 360.784 83.8812 361.278 84.2712C362.292 85.0254 363.748 86.1826 365.569 87.7559C370.714 92.1698 375.406 97.0877 379.572 102.436C382.467 106.139 384.867 110.204 386.711 114.528C388.976 119.512 389.498 125.114 388.193 130.43C387.384 133.269 385.964 135.896 384.032 138.128C382.202 140.593 379.905 142.674 377.271 144.252C374.481 145.817 371.364 146.707 368.169 146.853C364.905 147 361.638 146.645 358.482 145.8C351.78 143.894 345.408 140.973 339.589 137.14C336.768 135.345 334.089 133.46 331.541 131.523C330.24 130.548 329.044 129.559 327.861 128.571L326.093 127.063C325.507 126.53 324.987 126.114 324.363 125.463L324.22 125.307L324.389 125.099C334.791 112.682 343.62 102.176 349.848 94.7383L357.104 86.1566L359.028 83.9072L359.535 83.3481C359.586 83.2821 359.642 83.2212 359.704 83.166C359.661 83.2456 359.609 83.3198 359.548 83.3871L359.054 83.9982L357.169 86.3386L350.043 95.0374L324.87 125.437L324.662 125.229L324.896 125.086L324.974 125.164L325.182 125.346L325.598 125.737L326.444 126.478L328.251 128.038C329.447 129.026 330.67 129.988 331.931 130.951C334.466 132.875 337.132 134.747 339.94 136.529C345.709 140.328 352.023 143.226 358.664 145.123C361.753 145.95 364.949 146.301 368.143 146.164C371.233 146.014 374.246 145.151 376.946 143.641C379.511 142.101 381.754 140.078 383.551 137.686C385.429 135.522 386.814 132.975 387.608 130.222C388.887 125.036 388.393 119.57 386.204 114.697C384.396 110.426 382.044 106.405 379.208 102.735C375.086 97.3793 370.462 92.4289 365.399 87.951C363.605 86.4297 362.188 85.1294 361.213 84.3753L360.094 83.4781L359.704 83.166Z" fill="#263238"/>
<g opacity="0.3">
<path opacity="0.3" d="M359.704 83.1665C362.305 85.2989 364.762 87.2103 367.064 89.3037C382.602 103.412 392.614 119.379 387.01 132.927L382.719 139.429C382.719 139.429 387.244 122.811 378.818 110.823C370.392 98.8346 358.794 85.1949 358.794 85.1949L359.704 83.1665Z" fill="black"/>
</g>
<path d="M413.197 140.807L391.288 167.046C390.434 166.335 389.729 165.463 389.213 164.48C388.697 163.496 388.38 162.421 388.28 161.315C388.179 160.208 388.298 159.093 388.629 158.033C388.96 156.973 389.497 155.988 390.209 155.136L401.313 141.886C402.024 141.033 402.896 140.328 403.879 139.811C404.863 139.295 405.938 138.978 407.044 138.878C408.151 138.778 409.266 138.896 410.326 139.227C411.386 139.558 412.371 140.095 413.223 140.807H413.197Z" fill="#5089FF"/>
<path d="M416.464 136.218L387.058 171.512L404.041 185.661L433.446 150.367L416.464 136.218Z" fill="#263238"/>
<path d="M416.476 145.139L395.676 170.103L403.998 177.036L424.797 152.072L416.476 145.139Z" fill="#455A64"/>
<path d="M352.956 112.643L361.148 114.619L367.428 108.989L368.078 117.389L375.385 121.615L367.584 124.839L365.829 133.096L360.354 126.673L351.968 127.544L356.376 120.354L352.956 112.643Z" fill="white"/>
<path d="M374.345 142.497L374.241 142.588L373.942 142.822C373.532 143.112 373.097 143.365 372.642 143.576C371.942 143.908 371.204 144.153 370.444 144.304C369.444 144.51 368.423 144.601 367.402 144.577C366.162 144.559 364.926 144.433 363.709 144.2L361.667 143.81C360.978 143.654 360.276 143.459 359.548 143.29C356.421 142.422 353.375 141.282 350.446 139.883C347.507 138.492 344.654 136.924 341.904 135.19C339.303 133.603 337.119 132.069 335.259 130.782C333.4 129.494 331.918 128.389 330.903 127.635L329.798 126.738L329.486 126.517L329.395 126.426L329.499 126.504L329.798 126.738L330.981 127.583C332.022 128.324 333.517 129.39 335.376 130.678C337.236 131.965 339.472 133.486 342.021 135.06C344.756 136.785 347.592 138.348 350.511 139.74C353.442 141.131 356.487 142.267 359.613 143.134C360.341 143.316 361.043 143.511 361.732 143.667L363.761 144.07C364.975 144.296 366.206 144.422 367.441 144.447C368.457 144.48 369.473 144.397 370.47 144.2C371.224 144.055 371.957 143.819 372.655 143.498C373.109 143.294 373.544 143.051 373.955 142.77L374.267 142.549L374.345 142.497Z" fill="white"/>
<path d="M379.755 143.42C379.681 143.604 379.633 143.796 379.612 143.993C379.597 144.235 379.638 144.478 379.73 144.703C379.823 144.928 379.964 145.13 380.145 145.293C380.506 145.6 380.926 145.831 381.38 145.969C381.718 146.086 381.939 146.151 381.939 146.164C381.735 146.163 381.533 146.128 381.341 146.06C380.862 145.943 380.416 145.716 380.041 145.397C379.866 145.229 379.728 145.027 379.636 144.803C379.544 144.579 379.5 144.339 379.508 144.097C379.527 143.946 379.575 143.8 379.651 143.667L379.755 143.42Z" fill="white"/>
<path d="M391.496 155.058C391.496 155.058 391.405 155.175 391.249 155.396C391.014 155.696 390.801 156.013 390.612 156.345C389.974 157.438 389.587 158.659 389.48 159.921C389.389 161.184 389.571 162.452 390.014 163.639C390.153 163.996 390.313 164.343 390.495 164.68C390.568 164.799 390.629 164.925 390.677 165.057L390.612 164.979L390.443 164.706C390.248 164.374 390.074 164.031 389.923 163.678C389.441 162.487 389.241 161.201 389.337 159.921C389.479 158.246 390.128 156.654 391.197 155.357L391.418 155.123C391.418 155.123 391.496 155.045 391.496 155.058Z" fill="white"/>
<path d="M384.331 146.073C385.842 144.595 387.036 142.825 387.842 140.872C388.235 139.899 388.335 138.834 388.129 137.805C387.924 136.777 387.422 135.832 386.685 135.085L377.583 145.488L387.777 158.789C390.729 153.718 388.31 147.698 384.331 146.073Z" fill="#FFBE9D"/>
<path d="M389.611 156.644C389.611 156.644 389.611 156.566 389.611 156.41C389.611 156.254 389.715 156.033 389.754 155.721C389.897 154.838 389.897 153.938 389.754 153.055C389.533 151.701 389.023 150.411 388.258 149.271C387.302 147.816 385.948 146.665 384.358 145.956V146.151C385.106 145.35 385.809 144.507 386.464 143.628C387.181 142.685 387.718 141.619 388.05 140.482C388.29 139.495 388.29 138.465 388.05 137.478C387.848 136.534 387.352 135.678 386.633 135.034L386.542 134.956L386.464 135.047L379.963 142.588L378.103 144.773L377.609 145.371C377.492 145.514 377.44 145.579 377.453 145.592L377.635 145.397L378.155 144.838L380.08 142.679L386.646 135.216H386.477C387.141 135.833 387.595 136.642 387.777 137.53C387.985 138.48 387.958 139.466 387.699 140.404C387.382 141.513 386.862 142.553 386.165 143.472C385.52 144.344 384.83 145.182 384.097 145.982L383.98 146.099H384.136C385.717 146.775 387.07 147.889 388.037 149.31C388.794 150.423 389.312 151.68 389.559 153.003C389.717 153.861 389.747 154.737 389.65 155.604C389.715 156.319 389.611 156.644 389.611 156.644Z" fill="#EB996E"/>
<path d="M390.091 155.903C393.797 151.027 398.361 145.956 402.067 141.067Z" fill="#5089FF"/>
<path d="M402.067 141.041C400.403 143.762 398.483 146.318 396.333 148.673C394.733 150.584 393.277 152.301 391.99 153.874C391.439 154.63 390.802 155.32 390.091 155.929C391.751 153.208 393.667 150.652 395.812 148.296L400.168 143.095C400.728 142.346 401.364 141.658 402.067 141.041V141.041Z" fill="#263238"/>
<path d="M235.62 495.401L233.995 494.998C233.995 494.998 216.012 519.924 210.681 518.923L224.594 464.013L242.668 469.396C236.816 476.599 234.229 485.038 235.62 495.401Z" fill="#455A64"/>
<path d="M235.426 473.466C235.398 472.896 235.161 472.357 234.76 471.951C234.359 471.546 233.823 471.303 233.254 471.268C232.685 471.277 232.141 471.503 231.733 471.899C231.325 472.295 231.083 472.832 231.057 473.4C231.085 474.003 231.336 474.574 231.761 475.001C232.187 475.429 232.756 475.683 233.358 475.715C233.951 475.646 234.495 475.351 234.876 474.89C235.256 474.43 235.444 473.84 235.4 473.244" fill="white"/>
<path d="M224.594 464.013L228.937 465.313L214.075 517.453C214.075 517.453 212.385 519.625 210.733 518.923L224.594 464.013Z" fill="#263238"/>
<path d="M233.787 495.154C233.527 495.076 233.787 493.698 233.215 492.163C232.643 490.629 231.733 489.641 231.915 489.42C232.097 489.199 233.54 489.992 234.138 491.864C234.736 493.737 234.021 495.271 233.787 495.154Z" fill="#263238"/>
<path d="M229.951 500.303C229.678 500.303 229.509 499.002 228.651 497.832C227.793 496.662 226.61 496.064 226.688 495.804C226.766 495.544 228.326 495.804 229.418 497.26C230.511 498.716 230.211 500.368 229.951 500.303Z" fill="#263238"/>
<path d="M222.228 501.824C222.228 501.577 223.671 501.538 224.958 502.604C226.245 503.671 226.518 505.062 226.258 505.114C225.998 505.166 225.413 504.204 224.334 503.346C223.255 502.487 222.189 502.097 222.228 501.824Z" fill="#263238"/>
<path d="M292.533 612.853L291.909 614.297C291.909 614.297 312.05 634.659 310.307 639.405L261.99 618.236L269.713 602.451C272.55 605.718 276.055 608.338 279.992 610.132C283.929 611.927 288.206 612.855 292.533 612.853V612.853Z" fill="#455A64"/>
<path d="M272.353 609.667C271.826 609.603 271.293 609.736 270.859 610.041C270.424 610.346 270.118 610.801 270 611.319C269.918 611.843 270.039 612.378 270.339 612.815C270.638 613.253 271.094 613.559 271.612 613.672C272.171 613.734 272.733 613.588 273.191 613.262C273.649 612.936 273.971 612.452 274.095 611.904C274.124 611.349 273.938 610.805 273.574 610.386C273.21 609.966 272.698 609.704 272.145 609.654" fill="white"/>
<path d="M261.99 618.236L263.849 614.439L309.475 636.18C309.475 636.18 311.218 638.052 310.307 639.469L261.99 618.236Z" fill="#263238"/>
<path d="M292.091 614.505C291.974 614.739 290.791 614.336 289.256 614.583C287.722 614.83 286.656 615.545 286.526 615.363C286.396 615.181 287.306 613.958 289.126 613.685C290.947 613.412 292.169 614.336 292.091 614.505Z" fill="#263238"/>
<path d="M296.161 618.834C296.161 619.081 294.925 619.029 293.677 619.68C292.429 620.33 291.753 621.279 291.519 621.162C291.285 621.045 291.727 619.654 293.274 618.886C294.821 618.119 296.265 618.6 296.161 618.834Z" fill="#263238"/>
<path d="M296.381 626.155C296.147 626.155 296.381 624.854 297.5 623.762C298.618 622.67 300.009 622.709 300.022 622.956C300.035 623.203 299.047 623.58 298.098 624.438C297.149 625.297 296.629 626.246 296.381 626.155Z" fill="#263238"/>
<path d="M268.686 226.052C268.597 225.57 268.333 225.138 267.943 224.84C267.554 224.542 267.068 224.399 266.58 224.439H266.45C266.088 224.511 265.756 224.688 265.494 224.947C265.232 225.205 265.052 225.535 264.975 225.895C264.898 226.256 264.929 226.63 265.063 226.973C265.196 227.317 265.428 227.613 265.728 227.826C266.029 228.039 266.385 228.159 266.753 228.172C267.121 228.185 267.485 228.09 267.799 227.899C268.114 227.707 268.365 227.428 268.523 227.095C268.681 226.762 268.737 226.39 268.686 226.026V226.052Z" fill="#455A64"/>
<path d="M270.52 253.734L281.962 285.331L309.41 329.93L310.229 282.613L302.337 246.05H301.7L296.031 270.222L288.502 261.12L271.378 249.196L270.52 253.734Z" fill="#FAFAFA"/>
<path d="M306.719 266.373C306.067 265.728 305.483 265.018 304.977 264.254C304.457 263.59 303.832 262.797 303.104 261.939C302.351 260.996 301.477 260.156 300.504 259.443L301.011 259.222C300.904 259.663 300.769 260.097 300.608 260.522C299.489 263.317 298.202 265.658 297.37 267.413C296.538 269.169 296.135 270.274 296.07 270.261C296.164 269.197 296.469 268.163 296.967 267.218C297.682 265.411 298.917 263.005 299.997 260.288C300.148 259.906 300.274 259.515 300.374 259.118L300.491 258.649L300.881 258.909C301.917 259.66 302.833 260.563 303.598 261.588C304.313 262.485 304.899 263.33 305.38 264.032C305.927 264.751 306.377 265.538 306.719 266.373V266.373Z" fill="#263238"/>
<path d="M309.41 329.93C309.173 329.197 309.003 328.444 308.903 327.68C308.591 326.12 308.175 324.04 307.681 321.53C306.628 316.329 305.08 309.191 303.325 301.298C301.57 293.406 299.957 286.371 298.774 281.092C298.215 278.596 297.76 276.528 297.474 274.968C297.272 274.222 297.133 273.461 297.058 272.692C297.332 273.412 297.554 274.151 297.721 274.903C298.111 276.333 298.644 278.414 299.294 280.988C300.594 286.189 302.272 293.25 304.027 301.142C305.782 309.035 307.265 316.225 308.201 321.439C308.656 324.04 309.02 326.172 309.215 327.641C309.329 328.399 309.394 329.164 309.41 329.93V329.93Z" fill="#263238"/>
<path d="M304.079 243.514C296.473 249.066 279.842 250.08 272.808 249.625C263.329 248.962 253.083 245.061 243.981 242.617C234.502 240.133 225.777 240.289 216.324 241.642C206.872 242.994 195.598 249.443 190.033 257.089L193.934 261.263C193.934 261.263 206.937 250.458 218.795 248.871C230.159 247.376 237.181 249.794 250.521 253.318C265.708 257.336 284.068 256.452 289.854 254.891C295.421 253.328 300.743 250.995 305.665 247.961L304.079 243.514Z" fill="#455A64"/>
<path d="M273.25 261.263C273.658 261.48 274.038 261.746 274.381 262.056C275.07 262.589 276.059 263.356 277.281 264.383C279.712 266.373 283.041 269.168 286.682 272.276L286.877 272.445L286.331 272.627C286.955 269.727 287.553 267.01 288.073 264.63L288.177 264.149L288.541 264.448C290.621 266.139 292.338 267.556 293.534 268.557C294.188 269.054 294.793 269.611 295.341 270.221C294.623 269.823 293.944 269.357 293.313 268.83C292.013 267.907 290.283 266.555 288.177 264.929L288.645 264.76L286.994 272.783L286.877 273.342L286.435 272.965L286.24 272.796C282.599 269.688 279.322 266.841 276.969 264.76C275.786 263.72 274.849 262.862 274.199 262.264C273.841 261.972 273.522 261.636 273.25 261.263V261.263Z" fill="#263238"/>
<path d="M179.93 292.43C180.008 291.923 177.33 281.69 177.33 281.69L164.327 275.748L166.616 287.606C168.095 289.072 169.649 290.461 171.271 291.767C171.492 291.689 179.93 292.43 179.93 292.43Z" fill="#EB996E"/>
<path d="M199.473 270.625C199.764 274.043 199.035 277.471 197.378 280.475C195.721 283.479 193.21 285.925 190.163 287.502C187.116 289.078 183.67 289.716 180.26 289.335C176.851 288.953 173.631 287.569 171.008 285.357C168.386 283.145 166.478 280.206 165.526 276.909C164.574 273.613 164.621 270.109 165.661 266.839C166.701 263.57 168.687 260.682 171.368 258.542C174.049 256.401 177.305 255.104 180.723 254.814C185.306 254.425 189.856 255.872 193.372 258.837C196.888 261.802 199.083 266.042 199.473 270.625V270.625Z" fill="#5089FF"/>
<g opacity="0.3">
<path opacity="0.3" d="M199.473 270.625C199.764 274.043 199.035 277.471 197.378 280.475C195.721 283.479 193.21 285.925 190.163 287.502C187.116 289.078 183.67 289.716 180.26 289.335C176.851 288.953 173.631 287.569 171.008 285.357C168.386 283.145 166.478 280.206 165.526 276.909C164.574 273.613 164.621 270.109 165.661 266.839C166.701 263.57 168.687 260.682 171.368 258.542C174.049 256.401 177.305 255.104 180.723 254.814C185.306 254.425 189.856 255.872 193.372 258.837C196.888 261.802 199.083 266.042 199.473 270.625V270.625Z" fill="black"/>
</g>
<path d="M199.473 268.375C199.764 271.794 199.035 275.222 197.378 278.226C195.721 281.23 193.21 283.675 190.163 285.252C187.116 286.829 183.67 287.467 180.26 287.085C176.851 286.704 173.631 285.319 171.008 283.108C168.386 280.896 166.478 277.956 165.526 274.66C164.574 271.364 164.621 267.859 165.661 264.59C166.701 261.32 168.687 258.433 171.368 256.292C174.049 254.152 177.305 252.854 180.723 252.564C185.306 252.175 189.856 253.622 193.372 256.587C196.888 259.552 199.083 263.792 199.473 268.375V268.375Z" fill="#5089FF"/>
<g opacity="0.3">
<path opacity="0.3" d="M170.075 271.6C169.776 268.066 170.892 264.557 173.179 261.846C175.467 259.135 178.737 257.442 182.271 257.141H182.83C181.017 257.038 179.202 257.305 177.495 257.927C175.789 258.548 174.227 259.511 172.905 260.756C171.583 262.002 170.529 263.503 169.807 265.169C169.084 266.835 168.709 268.631 168.704 270.447C168.698 272.263 169.063 274.061 169.776 275.732C170.488 277.402 171.534 278.91 172.849 280.163C174.163 281.415 175.719 282.387 177.422 283.019C179.125 283.65 180.938 283.928 182.752 283.836C179.515 283.68 176.444 282.353 174.112 280.102C171.78 277.851 170.345 274.83 170.075 271.6V271.6Z" fill="black"/>
</g>
<g opacity="0.3">
<path opacity="0.3" d="M189.422 259.209L192.27 255.737L194.441 257.583L191.386 260.756L189.422 259.209Z" fill="white"/>
</g>
<path d="M195.507 269.325C195.301 268.252 195.032 267.193 194.701 266.152C193.676 263.35 191.751 260.968 189.227 259.378C187.371 258.217 185.255 257.54 183.07 257.406C180.886 257.272 178.702 257.686 176.718 258.61C175.577 259.134 174.521 259.827 173.585 260.665C172.592 261.524 171.745 262.539 171.075 263.668C169.627 266.032 168.971 268.797 169.205 271.56C169.439 274.322 170.55 276.938 172.376 279.024C173.229 280.021 174.234 280.876 175.353 281.56C176.418 282.233 177.58 282.738 178.799 283.055C180.57 283.53 182.42 283.632 184.232 283.354C186.044 283.076 187.779 282.424 189.325 281.44C190.872 280.455 192.197 279.16 193.217 277.636C194.236 276.113 194.928 274.393 195.247 272.588C195.403 271.507 195.49 270.417 195.507 269.325C195.685 270.423 195.685 271.542 195.507 272.64C195.22 274.523 194.538 276.324 193.507 277.925C192.475 279.526 191.117 280.891 189.521 281.931C187.925 282.971 186.128 283.662 184.246 283.958C182.365 284.255 180.442 284.151 178.604 283.653C175.989 282.959 173.639 281.501 171.856 279.467C169.917 277.271 168.739 274.509 168.495 271.59C168.252 268.671 168.956 265.752 170.503 263.265C171.202 262.092 172.079 261.035 173.104 260.132C174.088 259.255 175.202 258.536 176.406 257.999C178.626 256.983 181.077 256.579 183.506 256.829C186.086 257.102 188.532 258.114 190.553 259.742C192.573 261.37 194.081 263.546 194.896 266.009C195.285 267.072 195.492 268.193 195.507 269.325V269.325Z" fill="#263238"/>
<path d="M175.821 255.178C175.821 255.295 174.859 255.555 173.533 256.478C171.852 257.747 170.382 259.275 169.177 261.003C167.924 262.69 167.038 264.622 166.577 266.672C166.213 268.245 166.2 269.273 166.096 269.273C165.895 268.387 165.895 267.467 166.096 266.581C166.458 264.404 167.351 262.35 168.696 260.6C169.941 258.805 171.522 257.268 173.351 256.075C174.077 255.556 174.931 255.246 175.821 255.178V255.178Z" fill="white"/>
<path d="M179.124 254.007C179.124 254.189 178.864 254.423 178.422 254.553C177.98 254.683 177.577 254.553 177.525 254.436C177.473 254.319 177.798 254.007 178.24 253.89C178.682 253.773 179.085 253.825 179.124 254.007Z" fill="white"/>
<path d="M187.836 280.351C186.513 281.238 185.005 281.809 183.427 282.021C181.849 282.233 180.243 282.08 178.734 281.573C178.734 281.378 180.853 281.703 183.363 281.352C185.872 281.001 187.758 280.169 187.836 280.351Z" fill="white"/>
<path d="M195.546 275.969C195.39 275.865 195.676 275.111 195.923 274.162C196.17 273.212 196.275 272.406 196.47 272.393C196.665 272.38 196.86 273.264 196.574 274.331C196.288 275.397 195.702 276.073 195.546 275.969Z" fill="white"/>
<g opacity="0.3">
<path opacity="0.3" d="M183.974 265.41V277.399H181.191V267.634H178.799V265.41H183.974Z" fill="black"/>
</g>
<path d="M180.736 290.909C178.253 289.882 169.398 288.802 169.398 288.802L170.1 284.72C170.1 284.72 175.067 283.237 176.407 281.079C176.786 280.396 176.994 279.63 177.012 278.849C177.03 278.067 176.858 277.293 176.511 276.593L173.767 277.373C175.145 275.969 174.352 273.225 174.352 273.225L171.297 273.875C171.565 273.675 171.789 273.42 171.952 273.128C172.115 272.835 172.215 272.511 172.245 272.177C172.274 271.843 172.233 271.507 172.123 271.19C172.013 270.873 171.838 270.583 171.609 270.339L169.242 271.106C170.672 269.546 168.124 267.842 168.124 267.842C168.124 267.842 157.358 276.242 156.656 277.399C155.953 278.556 157.501 281.638 157.501 281.638C156.642 282.634 156.091 283.858 155.914 285.162C155.849 286.956 158.125 287.619 158.125 287.619C157.988 288.571 158.05 289.54 158.307 290.467C158.749 291.949 165.9 296.084 165.9 296.084L175.301 305.563L184.754 292.638C184.754 292.638 183.22 291.936 180.736 290.909Z" fill="#FFBE9D"/>
<path d="M176.368 276.723C175.654 277.184 174.86 277.506 174.027 277.672C172.091 278.156 170.189 278.764 168.332 279.493C167.345 279.918 166.432 280.497 165.627 281.209C164.886 281.885 164.327 282.509 163.742 283.133C162.676 284.278 161.831 284.798 161.779 284.72C161.727 284.642 162.429 284.031 163.391 282.821C163.951 282.096 164.554 281.406 165.198 280.754C166.03 279.964 166.994 279.325 168.046 278.869C169.942 278.126 171.906 277.568 173.91 277.204C174.714 276.974 175.536 276.813 176.368 276.723V276.723Z" fill="#EB996E"/>
<path d="M174.547 289.726C174.547 289.895 172.311 289.401 169.346 289.531H168.891L169.021 289.088C169.19 288.49 169.359 287.788 169.489 287.164C169.674 286.268 169.796 285.36 169.853 284.447V284.173H170.139C171.176 284.058 172.186 283.773 173.13 283.328C173.858 283.029 174.274 282.808 174.313 282.873C174.352 282.938 174.001 283.25 173.312 283.666C172.349 284.262 171.273 284.652 170.152 284.811L170.451 284.512C170.42 285.459 170.311 286.403 170.126 287.333C169.997 288.002 169.828 288.662 169.619 289.31L169.294 288.88C171.087 288.748 172.886 289.038 174.547 289.726V289.726Z" fill="#EB996E"/>
<path d="M160.517 280.571C160.95 279.934 161.471 279.36 162.064 278.868L163.885 277.074C164.238 276.691 164.635 276.35 165.068 276.06C165.54 275.763 166.036 275.506 166.55 275.292C168.327 274.602 170.158 274.063 172.024 273.68C172.781 273.455 173.563 273.324 174.352 273.29C173.67 273.692 172.928 273.982 172.154 274.148C170.776 274.59 168.826 275.097 166.823 275.917C166.341 276.111 165.875 276.346 165.432 276.619C165.028 276.881 164.653 277.186 164.314 277.529L162.402 279.206C161.841 279.748 161.207 280.207 160.517 280.571V280.571Z" fill="#EB996E"/>
<path d="M158.723 277.815C158.658 277.737 159.256 277.126 160.27 276.203L162.065 274.617L163.144 273.681L163.716 273.199L164.015 272.952C164.134 272.863 164.26 272.785 164.392 272.718C166.029 271.98 167.715 271.355 169.437 270.846C170.129 270.562 170.862 270.391 171.609 270.339C170.985 270.741 170.312 271.06 169.606 271.288C168.306 271.821 166.538 272.458 164.717 273.316L164.431 273.485L164.132 273.72L163.56 274.201L162.455 275.098L160.569 276.58C160.017 277.079 159.395 277.495 158.723 277.815Z" fill="#EB996E"/>
<path d="M198.615 202.894L199.096 201.698L199.837 202.751C200.432 203.599 201.258 204.257 202.217 204.649L203.413 205.143L202.36 205.885C201.509 206.471 200.849 207.293 200.461 208.251L199.967 209.447L199.226 208.394C198.631 207.547 197.805 206.888 196.847 206.496L195.65 206.002L196.717 205.26C197.56 204.667 198.218 203.846 198.615 202.894V202.894Z" fill="#5089FF"/>
<path d="M360.705 340.318L361.186 339.122L361.928 340.175C362.523 341.023 363.349 341.682 364.307 342.074L365.503 342.568L364.437 343.309C363.593 343.908 362.935 344.732 362.539 345.688L362.058 346.872L361.316 345.818C360.721 344.971 359.896 344.312 358.937 343.92L357.741 343.426L358.807 342.685C359.651 342.091 360.309 341.271 360.705 340.318Z" fill="#5089FF"/>
<path d="M388.674 284.849L389.155 283.666L389.896 284.719C390.495 285.564 391.319 286.222 392.276 286.618L393.472 287.112L392.419 287.853C391.572 288.443 390.913 289.264 390.52 290.219L390.026 291.416L389.285 290.362C388.69 289.515 387.864 288.856 386.906 288.464L385.709 287.97L386.776 287.229C387.623 286.634 388.282 285.808 388.674 284.849V284.849Z" fill="#5089FF"/>
<path d="M152.001 196.354L152.287 195.665L152.716 196.276C153.058 196.77 153.537 197.154 154.094 197.381L154.783 197.667L154.172 198.096C153.678 198.439 153.294 198.918 153.067 199.474L152.781 200.163L152.352 199.552C152.009 199.058 151.53 198.674 150.973 198.447L150.284 198.161L150.895 197.732C151.389 197.389 151.773 196.91 152.001 196.354V196.354Z" fill="#5089FF"/>
<path d="M362.383 299.75L362.669 299.061L363.098 299.672C363.44 300.167 363.919 300.551 364.476 300.777L365.178 301.063L364.554 301.493C364.067 301.839 363.688 302.317 363.462 302.871L363.176 303.56L362.747 302.949C362.398 302.461 361.921 302.078 361.369 301.844L360.667 301.571L361.278 301.128C361.775 300.789 362.16 300.309 362.383 299.75Z" fill="#5089FF"/>
<path d="M173.91 159.751L175.067 157.944L176.055 159.881C176.848 161.426 178.066 162.712 179.566 163.587L181.438 164.679L179.514 165.667C177.967 166.463 176.678 167.68 175.795 169.178L174.703 171.05L173.715 169.126C172.924 167.576 171.705 166.286 170.204 165.407L168.332 164.315L170.269 163.327C171.802 162.511 173.066 161.269 173.91 159.751V159.751Z" fill="#5089FF"/>
</svg>
