<svg width="1518" height="1133" viewBox="0 0 1518 1133" fill="none" xmlns="http://www.w3.org/2000/svg">
<path d="M1518 994.981H0V995.74H1518V994.981Z" fill="#EBEBEB"/>
<path d="M1365.9 1043.83H1265.34V1044.59H1365.9V1043.83Z" fill="#EBEBEB"/>
<path d="M1005.58 1052.09H979.201V1052.85H1005.58V1052.09Z" fill="#EBEBEB"/>
<path d="M1262.31 1015.66H1204.05V1016.41H1262.31V1015.66Z" fill="#EBEBEB"/>
<path d="M290.393 1020.76H159.269V1021.52H290.393V1020.76Z" fill="#EBEBEB"/>
<path d="M336.662 1020.76H317.444V1021.52H336.662V1020.76Z" fill="#EBEBEB"/>
<path d="M683.555 1033.57H399.143V1034.33H683.555V1033.57Z" fill="#EBEBEB"/>
<path d="M719.532 859.575H133.311C128.718 859.567 124.317 857.737 121.072 854.487C117.828 851.237 116.005 846.832 116.005 842.24V18.1782C116.045 13.6121 117.885 9.2462 121.126 6.02877C124.366 2.81133 128.744 1.00224 133.311 0.994415H719.532C724.13 0.994415 728.539 2.82084 731.79 6.07188C735.041 9.32293 736.867 13.7323 736.867 18.33V842.24C736.867 846.837 735.041 851.247 731.79 854.498C728.539 857.749 724.13 859.575 719.532 859.575V859.575ZM133.311 1.60162C128.92 1.60966 124.711 3.35966 121.609 6.46749C118.507 9.57533 116.764 13.7871 116.764 18.1782V842.24C116.764 846.631 118.507 850.842 121.609 853.95C124.711 857.058 128.92 858.808 133.311 858.816H719.532C723.926 858.808 728.137 857.059 731.244 853.952C734.351 850.845 736.1 846.634 736.108 842.24V18.1782C736.1 13.7843 734.351 9.57261 731.244 6.46564C728.137 3.35867 723.926 1.60964 719.532 1.60162H133.311Z" fill="#EBEBEB"/>
<path d="M1376.25 859.575H789.997C785.402 859.567 780.998 857.738 777.748 854.489C774.499 851.24 772.67 846.835 772.662 842.24V18.1782C772.71 13.6093 774.556 9.24346 777.801 6.02687C781.046 2.81027 785.428 1.00215 789.997 0.994415H1376.25C1380.81 1.01022 1385.18 2.82284 1388.41 6.03942C1391.65 9.256 1393.48 13.6174 1393.52 18.1782V842.24C1393.52 846.827 1391.71 851.227 1388.47 854.476C1385.23 857.726 1380.84 859.559 1376.25 859.575V859.575ZM789.997 1.60162C785.604 1.60964 781.392 3.35867 778.285 6.46564C775.178 9.57261 773.429 13.7843 773.421 18.1782V842.24C773.429 846.634 775.178 850.845 778.285 853.952C781.392 857.059 785.604 858.808 789.997 858.816H1376.25C1380.64 858.808 1384.85 857.059 1387.96 853.952C1391.07 850.845 1392.82 846.634 1392.83 842.24V18.1782C1392.82 13.7843 1391.07 9.57261 1387.96 6.46564C1384.85 3.35867 1380.64 1.60964 1376.25 1.60162H789.997Z" fill="#EBEBEB"/>
<path d="M1193.39 65.2362H307.516V479.711H1193.39V65.2362Z" fill="#E6E6E6"/>
<path d="M1206.72 65.2362H313.74V479.711H1206.72V65.2362Z" fill="#F0F0F0"/>
<path d="M1193.39 479.711H307.516V500.841H1193.39V479.711Z" fill="#E6E6E6"/>
<path d="M1228.94 479.711H335.964V500.841H1228.94V479.711Z" fill="#F0F0F0"/>
<path d="M1188.05 461.04V83.9379L332.442 83.9379V461.04L1188.05 461.04Z" fill="#FAFAFA"/>
<path d="M424.22 461.039L476.227 83.9379H557.379L505.373 461.039H424.22Z" fill="white"/>
<path d="M341.064 442.429C340.71 442.429 340.37 442.288 340.12 442.038C339.869 441.787 339.728 441.447 339.728 441.093V96.0819C339.728 95.7276 339.869 95.3878 340.12 95.1373C340.37 94.8868 340.71 94.7461 341.064 94.7461C341.24 94.7461 341.413 94.7806 341.575 94.8477C341.737 94.9149 341.885 95.0133 342.009 95.1373C342.133 95.2614 342.231 95.4086 342.298 95.5707C342.366 95.7328 342.4 95.9065 342.4 96.0819V441.214C342.377 441.55 342.225 441.863 341.976 442.09C341.727 442.316 341.4 442.437 341.064 442.429V442.429Z" fill="#F0F0F0"/>
<path d="M522.799 461.039L574.806 83.9379H606.441L554.434 461.039H522.799Z" fill="white"/>
<path d="M1188.05 461.039V83.9379H1185.68V461.039H1188.05Z" fill="#E6E6E6"/>
<path opacity="0.6" d="M1211.12 112.112H325.277L323.547 91.1939H1209.42L1211.12 112.112Z" fill="#EBEBEB"/>
<path opacity="0.6" d="M1211.12 146.388H325.277L323.547 125.47H1209.42L1211.12 146.388Z" fill="#EBEBEB"/>
<path opacity="0.6" d="M1211.12 180.695H325.277L323.547 159.777H1209.42L1211.12 180.695Z" fill="#EBEBEB"/>
<path opacity="0.6" d="M1211.12 214.972H325.277L323.547 194.054H1209.42L1211.12 214.972Z" fill="#EBEBEB"/>
<path opacity="0.6" d="M1211.12 249.278H325.277L323.547 228.36H1209.42L1211.12 249.278Z" fill="#EBEBEB"/>
<path opacity="0.6" d="M1211.12 283.555H325.277L323.547 262.637H1209.42L1211.12 283.555Z" fill="#EBEBEB"/>
<path d="M1332.8 583.906H1197.61V994.981H1332.8V583.906Z" fill="#E6E6E6"/>
<path d="M1296.71 994.981H1332.8V938.238H1258.85L1296.71 994.981Z" fill="#FAFAFA"/>
<path d="M964.203 583.906H829.01V994.981H964.203V583.906Z" fill="#E6E6E6"/>
<path d="M1332.8 583.906H932.69V975.459H1332.8V583.906Z" fill="#FAFAFA"/>
<path d="M968.788 994.981H932.69V938.238H1006.65L968.788 994.981Z" fill="#FAFAFA"/>
<path d="M1304.78 729.817H960.681V827.788H1304.78V729.817Z" fill="#F0F0F0"/>
<path d="M1304.78 848.737H960.681V946.708H1304.78V848.737Z" fill="#F0F0F0"/>
<path d="M1014.75 721.316H1250.83V726.082C1250.83 729.842 1249.34 733.449 1246.68 736.108C1244.02 738.767 1240.41 740.26 1236.65 740.26H1028.96C1025.2 740.26 1021.59 738.767 1018.94 736.108C1016.28 733.449 1014.78 729.842 1014.78 726.082V721.316H1014.75Z" fill="#FAFAFA"/>
<path d="M1304.78 610.866H960.681V708.838H1304.78V610.866Z" fill="#F0F0F0"/>
<path d="M1014.75 602.396H1250.83V607.162C1250.83 610.922 1249.34 614.529 1246.68 617.187C1244.02 619.846 1240.41 621.34 1236.65 621.34H1028.96C1025.2 621.34 1021.59 619.846 1018.94 617.187C1016.28 614.529 1014.78 610.922 1014.78 607.162V602.396H1014.75Z" fill="#FAFAFA"/>
<path d="M1014.75 840.236H1250.83V845.003C1250.83 848.763 1249.34 852.369 1246.68 855.028C1244.02 857.687 1240.41 859.181 1236.65 859.181H1028.96C1025.2 859.181 1021.59 857.687 1018.94 855.028C1016.28 852.369 1014.78 848.763 1014.78 845.003V840.236H1014.75Z" fill="#FAFAFA"/>
<path d="M162.183 671.556C169.712 649.909 228.975 679.328 253.263 715.153C269.324 739.016 279.13 764.488 283.623 798.703C283.077 759.66 282.469 717.733 281.862 678.144C276.974 668.277 265.832 645.507 257.847 627.473C231.131 567.299 167.618 544.894 145.515 506.913C116.765 457.123 116.947 382.437 141.417 355.538C162.669 332.1 233.104 490.428 241.058 508.128C268.382 568.848 276.276 614.115 281.376 657.863C280.8 620.672 280.253 586.548 279.798 560.195C278.31 474.276 276.428 446.649 275.578 438.148C272.542 433.989 269.172 429.04 267.138 426.55C250.106 404.6 212.277 378.491 193.393 346.582C165.796 300.01 170.259 244.269 189.598 223.503C210 201.795 245.916 252.982 264.77 303.926C283.623 354.87 275.638 403.386 280.982 445.617C282.105 453.874 283.228 485.327 284.321 528.955C290.09 482.018 301.566 450.565 322.818 421.268C348.988 385.23 371.576 341.36 393.132 347.038C414.687 352.715 403.09 410.794 386.027 451.537C370.847 487.817 295.919 524.036 284.868 553.212C286.173 612.354 287.327 687.252 288.177 756.989C294.067 720.951 289.999 717.946 314.226 662.873C328.617 630.084 387.606 589.675 394.65 612.202C401.693 634.729 390.976 677.294 368.722 707.107C350.749 731.183 311.038 731.152 301.657 746.059C299.501 749.551 292.549 762.909 288.329 770.56C289.27 855.719 289.725 930.86 289.24 956.484L285.354 956.758C285.566 950.139 285.08 906.815 284.321 849.496C274.637 819.136 209.484 801.223 189.355 769.497C168.285 736.222 153.136 697.483 162.183 671.556Z" fill="#E6E6E6"/>
<path d="M223.45 994.981H348.533C351.847 994.978 355.058 993.832 357.625 991.735C360.191 989.639 361.956 986.721 362.62 983.474L371.485 939.695H200.376L209.484 983.474C210.144 986.701 211.89 989.603 214.432 991.697C216.974 993.791 220.157 994.95 223.45 994.981V994.981Z" fill="#F0F0F0"/>
<path d="M196.915 956.666H375.067C377.134 956.664 379.127 955.902 380.666 954.525C382.206 953.147 383.185 951.251 383.416 949.198L387.06 916.834C387.187 915.661 387.067 914.474 386.706 913.35C386.345 912.226 385.751 911.191 384.963 910.312C384.176 909.433 383.212 908.73 382.135 908.247C381.058 907.765 379.891 907.515 378.711 907.514H193.272C192.091 907.515 190.925 907.765 189.847 908.247C188.77 908.73 187.806 909.433 187.019 910.312C186.231 911.191 185.638 912.226 185.277 913.35C184.916 914.474 184.795 915.661 184.923 916.834L188.566 949.198C188.797 951.251 189.776 953.147 191.316 954.525C192.856 955.902 194.849 956.664 196.915 956.666Z" fill="#F0F0F0"/>
<path d="M539.922 798.309H433.025V994.981H539.922V798.309Z" fill="#E0E0E0"/>
<path d="M812.373 994.981H454.459L416.843 728.116H774.757L812.373 994.981Z" fill="#E6E6E6"/>
<path d="M864.592 994.981H468.667L431.082 728.116H826.976L864.592 994.981Z" fill="#F0F0F0"/>
<path d="M507.407 953.266L475.741 769.831H788.237L819.902 953.266H507.407Z" fill="white"/>
<path d="M641.689 953.266L535.49 769.831H568.795L675.024 953.266H641.689Z" fill="#FAFAFA"/>
<path d="M689.142 953.266L582.912 769.831H639.746L745.945 953.266H689.142Z" fill="#FAFAFA"/>
<path d="M759 1132.09C1084.1 1132.09 1347.65 1116.7 1347.65 1097.72C1347.65 1078.74 1084.1 1063.35 759 1063.35C433.898 1063.35 170.35 1078.74 170.35 1097.72C170.35 1116.7 433.898 1132.09 759 1132.09Z" fill="#F5F5F5"/>
<path d="M234.592 506.58C234.265 506.581 233.951 506.46 233.709 506.241C233.467 506.022 233.317 505.72 233.286 505.395L226.546 424.334C226.529 424.006 226.64 423.683 226.855 423.435C227.07 423.186 227.372 423.029 227.7 422.998C228.042 422.973 228.379 423.083 228.641 423.305C228.902 423.526 229.066 423.841 229.097 424.182L235.836 505.244C235.862 505.585 235.752 505.923 235.53 506.184C235.309 506.446 234.994 506.609 234.652 506.64L234.592 506.58Z" fill="#407BFF"/>
<path d="M238.599 554.731C238.273 554.732 237.958 554.611 237.717 554.392C237.475 554.173 237.324 553.871 237.294 553.546L235.26 529.016C235.243 528.846 235.261 528.674 235.312 528.511C235.363 528.348 235.446 528.197 235.556 528.067C235.667 527.936 235.802 527.83 235.955 527.753C236.107 527.676 236.273 527.63 236.444 527.619C236.614 527.602 236.785 527.62 236.948 527.671C237.111 527.722 237.262 527.805 237.393 527.915C237.523 528.026 237.63 528.161 237.707 528.314C237.783 528.466 237.829 528.633 237.84 528.803L239.874 553.334C239.9 553.675 239.79 554.013 239.568 554.275C239.347 554.536 239.032 554.7 238.69 554.731H238.599Z" fill="#407BFF"/>
<path d="M921.608 785.406H294.735C286.837 785.251 279.27 782.205 273.468 776.845C267.665 771.484 264.03 764.182 263.252 756.321L227.943 331.918C227.566 328.212 227.977 324.467 229.15 320.93C230.323 317.393 232.231 314.145 234.748 311.398C237.266 308.651 240.336 306.468 243.757 304.992C247.179 303.516 250.873 302.78 254.599 302.834H881.442C889.343 302.988 896.914 306.033 902.721 311.392C908.529 316.752 912.17 324.055 912.956 331.918L948.264 756.26C948.646 759.971 948.238 763.72 947.067 767.262C945.897 770.804 943.99 774.058 941.473 776.811C938.955 779.564 935.884 781.753 932.46 783.234C929.037 784.715 925.338 785.455 921.608 785.406V785.406Z" fill="white"/>
<path d="M921.608 786.62H294.735C286.529 786.487 278.659 783.336 272.628 777.77C266.597 772.204 262.827 764.611 262.037 756.442L226.728 332.07C226.372 328.198 226.828 324.295 228.067 320.609C229.306 316.923 231.3 313.537 233.924 310.666C236.533 307.777 239.725 305.472 243.288 303.902C246.851 302.333 250.705 301.534 254.599 301.558H881.442C889.682 301.689 897.582 304.862 903.624 310.467C909.666 316.071 913.422 323.712 914.17 331.918L949.448 756.26C949.838 760.13 949.405 764.039 948.178 767.73C946.952 771.421 944.959 774.811 942.33 777.677C939.701 780.544 936.496 782.823 932.925 784.364C929.354 785.905 925.497 786.674 921.608 786.62V786.62ZM254.599 304.109C251.035 304.051 247.5 304.75 244.226 306.159C240.952 307.568 238.015 309.656 235.607 312.284C233.2 314.912 231.378 318.021 230.261 321.406C229.143 324.791 228.757 328.374 229.127 331.918L264.435 756.23C265.186 763.803 268.694 770.835 274.292 775.991C279.889 781.146 287.186 784.065 294.795 784.191H921.608C925.163 784.244 928.69 783.543 931.955 782.136C935.221 780.728 938.151 778.646 940.554 776.025C942.957 773.404 944.778 770.304 945.898 766.929C947.017 763.554 947.41 759.98 947.05 756.442L911.741 332.07C910.996 324.495 907.491 317.458 901.892 312.302C896.293 307.145 888.992 304.229 881.381 304.109H254.599Z" fill="#407BFF"/>
<path d="M881.442 302.894H254.599C250.879 302.842 247.19 303.576 243.773 305.048C240.356 306.521 237.289 308.698 234.773 311.438C232.256 314.179 230.347 317.419 229.17 320.949C227.993 324.478 227.575 328.216 227.943 331.918H912.956C912.156 324.066 908.509 316.778 902.703 311.43C896.897 306.083 889.334 303.047 881.442 302.894V302.894Z" fill="#407BFF"/>
<path d="M269.263 317.437C269.349 318.237 269.264 319.046 269.014 319.811C268.763 320.576 268.353 321.278 267.811 321.873C267.268 322.467 266.606 322.939 265.867 323.258C265.128 323.577 264.329 323.734 263.525 323.721C261.819 323.685 260.186 323.026 258.933 321.868C257.68 320.711 256.894 319.134 256.724 317.437C256.643 316.638 256.731 315.83 256.984 315.068C257.236 314.305 257.646 313.604 258.188 313.011C258.729 312.418 259.39 311.946 260.127 311.625C260.863 311.305 261.659 311.144 262.462 311.152C264.172 311.175 265.812 311.83 267.068 312.99C268.324 314.15 269.106 315.734 269.263 317.437Z" fill="white"/>
<path d="M294.765 317.437C294.851 318.237 294.767 319.046 294.516 319.811C294.266 320.576 293.856 321.278 293.313 321.873C292.771 322.467 292.108 322.939 291.369 323.258C290.63 323.577 289.832 323.734 289.027 323.721C287.343 323.656 285.739 322.984 284.511 321.829C283.284 320.674 282.515 319.114 282.348 317.437C282.267 316.638 282.355 315.83 282.607 315.068C282.859 314.305 283.27 313.604 283.811 313.011C284.353 312.418 285.014 311.946 285.75 311.625C286.487 311.305 287.283 311.144 288.086 311.152C289.774 311.204 291.385 311.872 292.616 313.03C293.846 314.187 294.61 315.755 294.765 317.437V317.437Z" fill="white"/>
<path d="M320.268 317.437C320.354 318.237 320.269 319.046 320.019 319.811C319.768 320.576 319.358 321.278 318.816 321.873C318.273 322.467 317.61 322.939 316.871 323.258C316.132 323.577 315.334 323.734 314.53 323.721C312.824 323.685 311.191 323.026 309.938 321.868C308.685 320.711 307.899 319.134 307.729 317.437C307.648 316.638 307.736 315.83 307.988 315.068C308.24 314.305 308.651 313.604 309.192 313.011C309.734 312.418 310.395 311.946 311.131 311.625C311.868 311.305 312.664 311.144 313.467 311.152C315.177 311.175 316.817 311.83 318.073 312.99C319.329 314.15 320.11 315.734 320.268 317.437V317.437Z" fill="white"/>
<path d="M867.203 729.786H340.032C333.753 729.669 327.735 727.252 323.118 722.993C318.502 718.735 315.608 712.932 314.985 706.682L290.211 410.854C289.915 407.904 290.247 404.925 291.185 402.112C292.123 399.299 293.645 396.716 295.653 394.534C297.66 392.351 300.107 390.619 302.832 389.45C305.557 388.28 308.498 387.701 311.463 387.751H838.725C845.005 387.868 851.023 390.285 855.639 394.543C860.255 398.801 863.149 404.605 863.772 410.854L888.394 706.834C888.667 709.767 888.32 712.725 887.375 715.515C886.431 718.306 884.91 720.866 882.911 723.031C880.913 725.195 878.482 726.915 875.776 728.079C873.069 729.243 870.149 729.824 867.203 729.786Z" fill="#F0F0F0"/>
<path opacity="0.1" d="M704.109 439.423L540.772 636.095C535.638 642.271 532.183 649.666 530.74 657.566C529.296 665.466 529.913 673.605 532.532 681.197C535.15 688.789 539.681 695.578 545.687 700.909C551.693 706.24 558.972 709.933 566.821 711.631L831.864 768.92C840.154 770.718 848.776 770.226 856.807 767.496C864.838 764.766 871.974 759.901 877.451 753.423C882.927 746.945 886.536 739.099 887.892 730.726C889.248 722.352 888.298 713.768 885.146 705.893L783.531 451.901C780.529 444.365 775.617 437.74 769.277 432.678C762.937 427.616 755.389 424.292 747.375 423.033C739.361 421.774 731.157 422.623 723.571 425.497C715.985 428.371 709.277 433.17 704.109 439.423V439.423Z" fill="#263238"/>
<path opacity="0.1" d="M340.518 466.99L283.623 620.338C281.919 625.02 281.428 630.057 282.197 634.98C282.965 639.903 284.966 644.551 288.016 648.491C291.065 652.431 295.062 655.535 299.634 657.514C304.207 659.492 309.206 660.281 314.165 659.806L480.326 643.503C485.613 642.987 490.663 641.052 494.943 637.904C499.222 634.756 502.573 630.512 504.64 625.618C506.708 620.724 507.416 615.363 506.69 610.1C505.964 604.837 503.831 599.868 500.515 595.716L391.219 458.793C387.954 454.717 383.665 451.581 378.792 449.705C373.918 447.829 368.634 447.279 363.479 448.112C358.324 448.946 353.482 451.133 349.448 454.449C345.414 457.766 342.332 462.093 340.518 466.99V466.99Z" fill="#263238"/>
<path d="M760.457 389.906L607.746 611.534C602.977 618.457 600.064 626.487 599.286 634.858C598.508 643.229 599.891 651.659 603.303 659.342C606.715 667.025 612.041 673.704 618.773 678.739C625.505 683.775 633.416 686.999 641.75 688.102L922.458 725.475C931.287 726.651 940.268 725.405 948.443 721.869C956.618 718.334 963.677 712.643 968.866 705.405C974.056 698.166 977.18 689.653 977.904 680.777C978.628 671.9 976.925 662.993 972.977 655.01L844.98 395.917C841.18 388.242 835.44 381.693 828.329 376.92C821.218 372.148 812.982 369.317 804.44 368.71C795.897 368.102 787.344 369.739 779.629 373.457C771.914 377.175 765.305 382.845 760.457 389.906V389.906Z" fill="#407BFF"/>
<path d="M648.399 668.307C643.329 667.618 638.508 665.685 634.366 662.682C630.224 659.679 626.888 655.698 624.657 651.093C622.357 646.741 621.275 641.848 621.526 636.931C621.777 632.015 623.352 627.257 626.084 623.162L779.189 400.866C781.958 396.901 785.786 393.795 790.238 391.905C794.689 390.015 799.582 389.417 804.358 390.179C809.429 390.864 814.252 392.794 818.396 395.798C822.539 398.802 825.873 402.786 828.099 407.393L956.34 667.123C958.64 671.476 959.722 676.369 959.471 681.285C959.22 686.202 957.645 690.959 954.913 695.054C952.151 699.028 948.324 702.141 943.872 704.037C939.42 705.933 934.523 706.534 929.745 705.772L648.399 668.307Z" fill="white"/>
<path d="M791.333 468.751L809.215 471.119C814.806 471.908 819.911 474.726 823.556 479.038C827.201 483.35 829.132 488.852 828.98 494.496L827.765 517.813C827.736 518.658 827.645 519.5 827.492 520.333L814.771 590.616C813.86 595.46 811.095 599.757 807.063 602.592C803.031 605.428 798.052 606.577 793.185 605.796C788.02 605.062 783.255 602.601 779.666 598.814C776.078 595.026 773.876 590.136 773.421 584.939L768.29 512.318C768.23 511.479 768.23 510.637 768.29 509.798L769.474 486.451C769.602 483.799 770.289 481.203 771.49 478.835C772.69 476.466 774.378 474.378 776.441 472.707C778.505 471.036 780.898 469.82 783.465 469.138C786.031 468.457 788.712 468.325 791.333 468.751V468.751ZM789.906 625.287L794.764 625.925C799.768 626.631 804.336 629.153 807.6 633.011C810.864 636.868 812.595 641.791 812.464 646.843C812.357 649.225 811.748 651.557 810.676 653.687C809.605 655.817 808.095 657.696 806.245 659.201C804.396 660.707 802.25 661.804 799.946 662.421C797.643 663.038 795.236 663.161 792.882 662.782L788.024 662.114C783.023 661.414 778.455 658.898 775.19 655.046C771.926 651.193 770.194 646.274 770.324 641.226V641.226C770.426 638.842 771.032 636.508 772.102 634.375C773.173 632.243 774.683 630.362 776.533 628.855C778.383 627.349 780.532 626.253 782.837 625.638C785.142 625.022 787.552 624.903 789.906 625.287V625.287Z" fill="#407BFF"/>
<path d="M399.234 423.788L357.307 582.783C356.042 587.615 356.025 592.688 357.256 597.528C358.487 602.368 360.926 606.816 364.345 610.457C367.763 614.097 372.05 616.81 376.804 618.342C381.557 619.874 386.621 620.174 391.523 619.215L554.161 587.489C559.321 586.46 564.112 584.07 568.038 580.566C571.964 577.062 574.881 572.573 576.489 567.563C578.096 562.552 578.334 557.203 577.179 552.07C576.023 546.936 573.517 542.205 569.918 538.366L449.328 411.006C445.711 407.163 441.131 404.359 436.063 402.886C430.996 401.412 425.626 401.323 420.513 402.628C415.399 403.933 410.728 406.584 406.986 410.305C403.244 414.026 400.567 418.682 399.234 423.788V423.788Z" fill="#407BFF"/>
<path d="M391.189 606.403C388.202 606.944 385.128 606.721 382.251 605.755C379.374 604.788 376.788 603.111 374.733 600.878C372.613 598.726 371.081 596.067 370.284 593.154C369.487 590.241 369.451 587.171 370.179 584.24L412.198 424.82C412.926 422.034 414.432 419.513 416.539 417.551C418.647 415.589 421.268 414.267 424.099 413.739C427.088 413.205 430.163 413.434 433.039 414.405C435.916 415.376 438.501 417.058 440.554 419.295L561.569 546.807C563.692 548.956 565.228 551.615 566.03 554.527C566.833 557.44 566.875 560.51 566.153 563.444C565.42 566.224 563.912 568.738 561.805 570.695C559.698 572.651 557.079 573.969 554.252 574.495L391.189 606.403Z" fill="white"/>
<path d="M431.992 462.254L442.345 460.22C445.688 459.68 449.112 460.396 451.959 462.228C454.806 464.061 456.875 466.882 457.768 470.148L461.472 484.022C461.612 484.532 461.724 485.048 461.806 485.57L468.394 529.258C468.908 532.2 468.239 535.225 466.533 537.675C464.827 540.126 462.223 541.804 459.286 542.344V542.344C456.207 542.855 453.045 542.296 450.327 540.761C447.61 539.225 445.5 536.805 444.349 533.904L427.529 492.371C427.325 491.887 427.153 491.39 427.013 490.883L423.188 476.979C422.691 475.433 422.529 473.799 422.713 472.185C422.897 470.572 423.424 469.017 424.257 467.623C425.09 466.23 426.211 465.03 427.545 464.104C428.879 463.178 430.395 462.547 431.992 462.254V462.254ZM461.29 554.184L464.113 553.638C467.107 553.119 470.187 553.742 472.745 555.383C475.302 557.024 477.151 559.565 477.927 562.503C478.355 563.871 478.49 565.314 478.322 566.738C478.155 568.161 477.69 569.534 476.956 570.766C476.223 571.997 475.238 573.061 474.066 573.886C472.894 574.712 471.562 575.281 470.155 575.557L467.331 576.104C464.341 576.624 461.265 576.005 458.708 574.37C456.152 572.735 454.3 570.202 453.518 567.269V567.269C453.09 565.899 452.955 564.454 453.122 563.029C453.289 561.603 453.754 560.228 454.487 558.994C455.22 557.76 456.205 556.694 457.377 555.865C458.549 555.037 459.882 554.464 461.29 554.184V554.184Z" fill="#407BFF"/>
<path d="M1179.06 459.43L1155.5 467.081L1174.45 489.487C1179.82 484.828 1184.48 479.394 1188.26 473.366C1189.24 471.659 1189.51 469.636 1189.01 467.734C1188.51 465.831 1187.28 464.201 1185.59 463.195L1179.06 459.43Z" fill="#7F3E3B"/>
<path d="M1144.66 485.601L1158.78 502.754L1174.48 489.608L1155.5 467.203L1144.66 485.601Z" fill="#7F3E3B"/>
<path d="M1186.68 276.299C1192.42 292.086 1197.7 307.873 1202.71 323.873C1207.72 339.873 1212.34 355.933 1216.37 372.753L1217.8 379.219L1218.47 382.589L1218.8 384.289V384.714V385.352L1218.98 386.627C1219.65 392.403 1219.36 398.249 1218.13 403.932C1216.2 413.051 1213.27 421.929 1209.39 430.406C1202.32 446.248 1193.61 461.307 1183.4 475.339L1167.65 466.626C1173.23 451.446 1178.76 435.932 1182.83 420.904C1184.83 413.861 1186.24 406.66 1187.02 399.378C1187.27 396.864 1187.15 394.327 1186.65 391.849L1185.35 387.113L1183.65 381.496C1178.88 366.316 1173.44 350.681 1168.07 335.137C1162.7 319.592 1157.32 303.896 1152.16 288.321L1186.68 276.299Z" fill="#7F3E3B"/>
<path d="M1055.56 182.365C1055.95 184.278 1055.28 186.039 1054.07 186.373C1052.85 186.707 1051.52 185.371 1051.03 183.337C1050.55 181.302 1051.28 179.663 1052.52 179.359C1053.77 179.056 1055.16 180.483 1055.56 182.365Z" fill="#263238"/>
<path d="M1055.47 186.008C1054.44 192.367 1052.58 198.563 1049.94 204.437C1051.43 205.039 1053.04 205.303 1054.65 205.208C1056.25 205.114 1057.82 204.663 1059.23 203.89L1055.47 186.008Z" fill="#630F0F"/>
<path d="M1050.46 171.01C1050.27 171.01 1050.09 170.966 1049.93 170.882C1049.76 170.797 1049.62 170.675 1049.51 170.525C1049.43 170.403 1049.37 170.266 1049.33 170.121C1049.3 169.976 1049.3 169.825 1049.32 169.678C1049.35 169.531 1049.4 169.391 1049.48 169.265C1049.56 169.139 1049.67 169.031 1049.79 168.946C1051.32 168.001 1053.05 167.436 1054.84 167.299C1056.63 167.162 1058.43 167.456 1060.08 168.157C1060.22 168.213 1060.34 168.297 1060.45 168.402C1060.56 168.508 1060.64 168.634 1060.7 168.773C1060.75 168.911 1060.78 169.06 1060.78 169.209C1060.78 169.359 1060.75 169.507 1060.69 169.644C1060.57 169.924 1060.35 170.148 1060.07 170.268C1059.8 170.387 1059.48 170.392 1059.2 170.282C1057.91 169.711 1056.49 169.459 1055.08 169.549C1053.67 169.639 1052.3 170.067 1051.09 170.798C1050.91 170.94 1050.69 171.015 1050.46 171.01V171.01Z" fill="#263238"/>
<path d="M1120.62 188.376C1122.74 210.418 1119.62 231.761 1124.53 250.918C1124.53 250.918 1119.07 268.709 1086.49 268.709C1050.67 268.709 1070.07 250.918 1070.07 250.918C1089.8 246.273 1089.83 231.761 1086.98 218.129L1120.62 188.376Z" fill="#7F3E3B"/>
<path d="M1131.49 257.02C1134.28 251.404 1136.13 243.419 1130.36 241.415C1124.02 239.199 1090.11 238.379 1077.81 242.63C1074.53 243.496 1071.72 245.61 1069.98 248.52C1068.24 251.43 1067.7 254.905 1068.49 258.204L1131.49 257.02Z" fill="#263238"/>
<path d="M1204.68 1056.58C1206.92 1056 1209.08 1055.17 1211.12 1054.09C1211.23 1054.04 1211.32 1053.96 1211.39 1053.86C1211.45 1053.75 1211.49 1053.64 1211.49 1053.51C1211.48 1053.39 1211.44 1053.27 1211.36 1053.17C1211.29 1053.07 1211.18 1053 1211.06 1052.97C1210 1052.6 1200.59 1049.48 1198.1 1051.6C1197.83 1051.84 1197.62 1052.14 1197.51 1052.49C1197.4 1052.83 1197.38 1053.19 1197.46 1053.55C1197.51 1054.18 1197.72 1054.79 1198.07 1055.32C1198.42 1055.86 1198.9 1056.29 1199.46 1056.58C1201.15 1057.17 1202.99 1057.17 1204.68 1056.58V1056.58ZM1209.18 1053.55C1205.05 1055.43 1201.71 1056.07 1200.07 1055.21C1199.69 1055.03 1199.37 1054.74 1199.13 1054.39C1198.9 1054.04 1198.76 1053.63 1198.73 1053.21C1198.69 1053.07 1198.68 1052.92 1198.72 1052.78C1198.76 1052.64 1198.84 1052.52 1198.95 1052.42C1200.19 1051.45 1205.29 1052.51 1209.18 1053.67V1053.55Z" fill="#407BFF"/>
<path d="M1211 1054.15C1211.08 1054.13 1211.16 1054.09 1211.23 1054.04C1211.29 1053.99 1211.35 1053.93 1211.39 1053.85C1211.44 1053.78 1211.46 1053.7 1211.47 1053.61C1211.48 1053.53 1211.48 1053.44 1211.46 1053.36C1211.46 1053.06 1209 1045.83 1205.38 1044.26C1204.96 1044.03 1204.5 1043.9 1204.02 1043.87C1203.55 1043.84 1203.07 1043.91 1202.62 1044.07C1202.17 1044.18 1201.76 1044.44 1201.48 1044.81C1201.2 1045.18 1201.05 1045.64 1201.07 1046.11C1201.07 1049.14 1207.63 1053.45 1210.61 1054.27L1211 1054.15ZM1203.41 1045.04C1203.92 1044.93 1204.46 1044.99 1204.93 1045.23C1207.25 1047.11 1208.95 1049.65 1209.82 1052.51C1206.78 1051.15 1202.47 1047.69 1202.41 1045.92C1202.41 1045.77 1202.41 1045.41 1203.14 1045.11L1203.41 1045.04Z" fill="#407BFF"/>
<path d="M1038.86 1075.13C1041.16 1075.07 1043.45 1074.75 1045.69 1074.19C1045.81 1074.16 1045.92 1074.09 1046 1074C1046.09 1073.91 1046.15 1073.8 1046.18 1073.67C1046.19 1073.55 1046.16 1073.43 1046.11 1073.31C1046.06 1073.2 1045.97 1073.11 1045.87 1073.04C1044.93 1072.46 1036.49 1067.27 1033.58 1068.76C1033.25 1068.92 1032.98 1069.17 1032.79 1069.48C1032.6 1069.8 1032.51 1070.15 1032.51 1070.52C1032.45 1071.13 1032.53 1071.74 1032.75 1072.31C1032.97 1072.88 1033.33 1073.39 1033.79 1073.8C1035.29 1074.78 1037.07 1075.25 1038.86 1075.13V1075.13ZM1043.9 1073.31C1039.47 1074.19 1036.03 1074.04 1034.61 1072.82C1034.29 1072.55 1034.04 1072.2 1033.89 1071.81C1033.75 1071.42 1033.7 1070.99 1033.76 1070.58C1033.76 1070.09 1033.97 1069.94 1034.15 1069.85C1035.64 1069.09 1040.47 1071.31 1043.9 1073.31V1073.31Z" fill="#407BFF"/>
<path d="M1045.54 1074.19C1045.66 1074.22 1045.78 1074.22 1045.9 1074.19C1045.99 1074.12 1046.06 1074.04 1046.11 1073.94C1046.16 1073.84 1046.18 1073.72 1046.18 1073.61C1046.18 1073.31 1045.51 1065.75 1042.47 1063.26C1042.11 1062.95 1041.69 1062.71 1041.24 1062.57C1040.78 1062.44 1040.3 1062.4 1039.83 1062.47V1062.47C1039.37 1062.47 1038.91 1062.63 1038.55 1062.92C1038.19 1063.22 1037.95 1063.62 1037.86 1064.08C1037.31 1067.12 1042.53 1072.73 1045.26 1074.22L1045.54 1074.19ZM1040.26 1063.59C1040.78 1063.58 1041.29 1063.77 1041.68 1064.11C1043.5 1066.48 1044.56 1069.35 1044.72 1072.34C1042.02 1070.27 1038.65 1065.96 1039.01 1064.23C1039.01 1064.23 1039.01 1063.69 1039.92 1063.59H1040.19H1040.26Z" fill="#407BFF"/>
<path d="M1073.74 1073.25H1049.76L1049.51 1017.75H1073.5L1073.74 1073.25Z" fill="#7F3E3B"/>
<path d="M1240.69 1052.73L1217.62 1056.95L1201.07 1002.33L1224.15 998.108L1240.69 1052.73Z" fill="#7F3E3B"/>
<path d="M1213.25 1050.81L1239.45 1044.74C1239.9 1044.63 1240.38 1044.68 1240.8 1044.88C1241.23 1045.09 1241.56 1045.44 1241.75 1045.86L1250.44 1065.69C1250.65 1066.18 1250.74 1066.72 1250.72 1067.26C1250.7 1067.79 1250.56 1068.32 1250.32 1068.8C1250.07 1069.27 1249.72 1069.69 1249.3 1070.02C1248.87 1070.35 1248.38 1070.58 1247.86 1070.7C1238.75 1072.7 1234.13 1073.19 1222.6 1075.92C1215.52 1077.59 1201.07 1081.81 1191.27 1084.12C1181.46 1086.43 1178.3 1076.95 1182.16 1075.01C1199.34 1066.78 1205.05 1059.83 1209.75 1053.15C1210.6 1051.98 1211.84 1051.15 1213.25 1050.81V1050.81Z" fill="#263238"/>
<path d="M1050.03 1070.46H1076.2C1076.67 1070.46 1077.12 1070.62 1077.48 1070.92C1077.85 1071.22 1078.09 1071.63 1078.17 1072.1L1082.09 1093.35C1082.19 1093.87 1082.16 1094.41 1082.02 1094.93C1081.88 1095.44 1081.63 1095.92 1081.29 1096.33C1080.94 1096.73 1080.51 1097.06 1080.03 1097.28C1079.54 1097.5 1079.01 1097.61 1078.48 1097.6C1069.04 1097.45 1055.44 1096.9 1043.56 1096.9C1029.69 1096.9 1024.74 1097.66 1008.47 1097.66C998.632 1097.66 996.324 1087.7 1000.45 1086.82C1019.34 1082.69 1027.59 1082.27 1044.2 1072.28C1045.94 1071.15 1047.96 1070.52 1050.03 1070.46V1070.46Z" fill="#263238"/>
<path d="M1177.97 257.111C1200.34 272.868 1207.08 313.429 1207.08 313.429L1156.38 339.114C1148.36 323.083 1142.15 306.21 1137.86 288.807C1132.43 264.823 1162.06 245.939 1177.97 257.111Z" fill="#407BFF"/>
<path opacity="0.2" d="M1152.62 282.978L1172.59 330.825L1156.38 339.114C1151.36 328.956 1146.98 318.491 1143.27 307.782L1152.62 282.978Z" fill="black"/>
<path d="M1028.87 362.278C1029.05 389.026 1030.66 422.3 1034.64 463.59H1162.79C1164.34 444.767 1156.47 356.024 1175.57 267.161C1175.91 265.596 1175.92 263.978 1175.61 262.408C1175.3 260.837 1174.67 259.347 1173.77 258.028C1172.86 256.709 1171.69 255.589 1170.34 254.737C1168.98 253.885 1167.47 253.319 1165.88 253.074C1155.83 251.464 1145.69 250.38 1135.52 249.825C1117.37 248.777 1099.18 248.777 1081.03 249.825C1073.7 250.46 1066.42 251.473 1059.2 252.861C1053.83 253.952 1048.88 256.537 1044.92 260.318C1040.95 264.099 1038.14 268.923 1036.79 274.234C1032.81 290.608 1030.46 307.338 1029.78 324.177C1029.2 335.106 1028.78 347.766 1028.87 362.278Z" fill="#407BFF"/>
<path opacity="0.2" d="M1069.31 312.063C1060.84 318.135 1044.63 321.171 1029.84 322.416C1030.08 318.499 1030.39 314.795 1030.72 311.304C1034.7 309.209 1038.52 307.296 1042.14 305.536L1069.31 312.063Z" fill="black"/>
<g opacity="0.2">
<path d="M1049.51 1017.75L1049.67 1048.6H1073.62L1073.5 1017.75H1049.51Z" fill="black"/>
<path d="M1224.15 998.108L1201.07 1002.36L1209.63 1030.5L1232.71 1026.25L1224.15 998.108Z" fill="black"/>
</g>
<path d="M1117.25 162.57C1120.74 186.16 1123.99 199.761 1114.88 214.638C1111.99 219.475 1107.83 223.43 1102.85 226.074C1097.87 228.718 1092.27 229.95 1086.64 229.637C1081.01 229.325 1075.58 227.479 1070.92 224.3C1066.27 221.121 1062.57 216.73 1060.23 211.602C1050.85 191.989 1046.69 156.68 1067.25 141.774C1071.6 138.44 1076.76 136.313 1082.21 135.605C1087.65 134.897 1093.18 135.634 1098.25 137.741C1103.32 139.849 1107.74 143.253 1111.07 147.611C1114.41 151.969 1116.54 157.128 1117.25 162.57Z" fill="#7F3E3B"/>
<path d="M1068.19 179.815C1059.29 175.898 1060.14 161.902 1062.84 156.013C1052.55 159.534 1037.67 161.568 1035 151.094C1032.33 140.62 1041.41 137.28 1035.85 128.324C1030.3 119.368 1048 109.622 1056.25 122.252C1064.51 134.882 1084.91 129.235 1098.09 117.182C1107.68 108.408 1121.71 119.732 1116.16 131.178C1116.16 131.178 1145 129.326 1139.26 148.908C1133.52 168.491 1125.41 169.158 1127.27 183.094C1128.54 192.505 1129.63 211.632 1118.34 214.334C1104.68 217.461 1070.62 205.348 1068.19 179.815Z" fill="#263238"/>
<path opacity="0.2" d="M1068 205.348C1065.39 207.23 1062.69 209.234 1059.93 211.42L1060.08 211.753C1062.78 217.443 1067.1 222.207 1072.5 225.446C1074.23 223.776 1075.2 218.159 1078.42 218.251C1088.04 218.524 1106.65 214.486 1109.75 203.617L1068 205.348Z" fill="black"/>
<path d="M1075.5 179.481C1076.17 184.726 1075.37 190.053 1073.2 194.873C1070.46 200.429 1066.15 196.877 1064.48 190.046C1062.96 183.974 1062.57 173.621 1066.52 170.585C1070.46 167.549 1074.74 172.559 1075.5 179.481Z" fill="#7F3E3B"/>
<path d="M1080.12 463.681C1080.12 463.681 1100.25 646.812 1112.51 715.426C1125.96 790.567 1195.61 1026.4 1195.61 1026.4L1238.54 1017.3C1238.54 1017.3 1190.6 796.639 1184.04 722.257C1177.03 641.499 1162.79 463.681 1162.79 463.681H1080.12Z" fill="#407BFF"/>
<path opacity="0.3" d="M1080.12 463.681C1080.12 463.681 1100.25 646.812 1112.51 715.426C1125.96 790.567 1195.61 1026.4 1195.61 1026.4L1238.54 1017.3C1238.54 1017.3 1190.6 796.639 1184.04 722.257C1177.36 645.507 1177.36 645.659 1162.79 463.681H1080.12Z" fill="black"/>
<path d="M1186.01 1011.98C1185.83 1011.98 1193.3 1027.65 1193.3 1027.65L1241.72 1017.3L1238.29 1002.66L1186.01 1011.98Z" fill="#263238"/>
<path opacity="0.2" d="M1094.78 528.955C1125.99 535.027 1118.13 652.368 1112.03 712.694C1104.62 670.19 1094.51 588.005 1087.74 529.805C1089.92 528.721 1092.41 528.42 1094.78 528.955V528.955Z" fill="black"/>
<path d="M1034.64 463.681C1034.64 463.681 1024.44 642.805 1024.22 715.942C1023.98 791.842 1040.92 1040.79 1040.92 1040.79H1081.54C1081.54 1040.79 1092.47 796.366 1097.15 721.71C1102.25 640.315 1118.92 463.65 1118.92 463.65L1034.64 463.681Z" fill="#407BFF"/>
<path opacity="0.3" d="M1034.64 463.681C1034.64 463.681 1024.44 642.805 1024.22 715.942C1023.98 791.842 1040.92 1040.79 1040.92 1040.79H1081.54C1081.54 1040.79 1092.47 796.366 1097.15 721.71C1102.25 640.315 1118.92 463.65 1118.92 463.65L1034.64 463.681Z" fill="black"/>
<path d="M1033.76 1024.67C1033.58 1024.67 1035.4 1041.52 1035.4 1041.52H1084.76L1086.68 1026.34L1033.76 1024.67Z" fill="#263238"/>
<path d="M1085.43 294.697C1080.57 295.152 1076.47 295.426 1072.01 295.547C1067.55 295.669 1063.3 295.76 1058.96 295.729C1050.21 295.729 1041.47 295.183 1032.67 294.211C1023.73 293.29 1014.86 291.768 1006.13 289.657C996.882 287.484 987.902 284.297 979.353 280.155L978.351 279.638C976.476 278.723 974.801 277.446 973.422 275.88C972.042 274.315 970.987 272.492 970.315 270.516C969.643 268.541 969.369 266.452 969.508 264.37C969.647 262.289 970.197 260.255 971.125 258.386C971.549 257.525 972.047 256.702 972.613 255.927C976.237 251.125 980.359 246.719 984.909 242.781C989.007 239.138 993.106 235.89 997.235 232.793C1005.49 226.569 1013.93 221.074 1022.4 215.731C1030.87 210.387 1039.53 205.439 1048.24 200.551C1056.95 195.663 1065.73 191.26 1074.84 187.04C1076.84 186.24 1079.06 186.176 1081.1 186.859C1083.15 187.543 1084.88 188.93 1086 190.773C1087.12 192.617 1087.55 194.797 1087.21 196.927C1086.87 199.056 1085.79 200.997 1084.16 202.403V202.403C1076.54 208.262 1068.67 214.061 1061.05 220.011C1053.43 225.962 1045.87 231.821 1038.31 237.833C1030.75 243.844 1023.56 249.977 1016.67 256.049C1013.23 259.085 1009.93 262.121 1006.98 265.43C1004.33 268.121 1001.93 271.048 999.815 274.174L993.106 249.886C999.719 252.34 1006.55 254.159 1013.51 255.32C1020.96 256.585 1028.46 257.457 1036 257.931C1043.69 258.417 1051.46 258.69 1059.26 258.69C1063.18 258.69 1067.09 258.69 1070.98 258.69C1074.87 258.69 1078.96 258.386 1082.36 258.204H1082.76C1087.35 258.2 1091.78 259.929 1095.15 263.047C1098.52 266.165 1100.59 270.441 1100.94 275.02C1101.29 279.598 1099.9 284.141 1097.05 287.739C1094.2 291.337 1090.09 293.724 1085.55 294.424L1085.43 294.697Z" fill="#7F3E3B"/>
<path d="M1102.43 182.304L1087.25 185.674C1087.25 185.674 1066.94 183.154 1062.3 198.456L1074.44 208.718L1093.02 211.754C1095.96 212.211 1098.97 211.722 1101.61 210.357L1106.35 207.898C1107.43 207.344 1108.35 206.528 1109.02 205.525C1109.7 204.522 1110.12 203.365 1110.23 202.16L1111.36 190.016C1111.47 188.866 1111.3 187.706 1110.87 186.633C1110.44 185.561 1109.76 184.607 1108.89 183.851C1108.02 183.096 1106.97 182.561 1105.85 182.292C1104.73 182.023 1103.55 182.027 1102.43 182.304V182.304Z" fill="#7F3E3B"/>
<path d="M1072.8 312.427C1047.27 319.532 1018.15 310.666 1018.15 310.666L1028.87 253.499C1028.87 253.499 1054.22 251.252 1070.07 250.918C1110.84 249.946 1118.83 299.676 1072.8 312.427Z" fill="#407BFF"/>
</svg>
