<svg width="12" height="12" viewBox="0 0 12 12" fill="none" xmlns="http://www.w3.org/2000/svg">
<path d="M10.0968 8.90325C9.82355 8.64155 9.55764 8.37234 9.29934 8.09592C9.08234 7.87542 8.95167 7.715 8.95167 7.715L7.31834 6.93509C7.97225 6.19346 8.33314 5.23875 8.33334 4.25C8.33334 1.99892 6.50167 0.166672 4.25 0.166672C1.99834 0.166672 0.166672 1.99892 0.166672 4.25C0.166672 6.50109 1.99834 8.33334 4.25 8.33334C5.27842 8.33334 6.21584 7.94834 6.93509 7.31892L7.715 8.95225C7.715 8.95225 7.87542 9.08292 8.09592 9.29992C8.32167 9.51167 8.61859 9.79809 8.90325 10.0973L9.69542 10.9093L10.0478 11.2862L11.285 10.0489L10.9082 9.69659C10.6871 9.47959 10.3919 9.19142 10.0968 8.90325ZM4.25 7.16667C2.64176 7.16667 1.33334 5.85825 1.33334 4.25C1.33334 2.64176 2.64176 1.33334 4.25 1.33334C5.85825 1.33334 7.16667 2.64176 7.16667 4.25C7.16667 5.85825 5.85825 7.16667 4.25 7.16667Z" fill="white"/>
</svg>
