<svg width="104" height="16" viewBox="0 0 104 16" fill="none" xmlns="http://www.w3.org/2000/svg">
<g clip-path="url(#clip0_1079_3507)">
<path d="M3.61212 15.443C3.22612 15.641 2.78812 15.294 2.86612 14.851L3.69612 10.121L0.173118 6.765C-0.155882 6.451 0.0151183 5.877 0.456118 5.815L5.35412 5.119L7.53812 0.792C7.73512 0.402 8.26812 0.402 8.46512 0.792L10.6491 5.119L15.5471 5.815C15.9881 5.877 16.1591 6.451 15.8291 6.765L12.3071 10.121L13.1371 14.851C13.2151 15.294 12.7771 15.641 12.3911 15.443L8.00012 13.187L3.61112 15.443H3.61212Z" fill="#FFD540"/>
</g>
<g clip-path="url(#clip1_1079_3507)">
<path d="M25.6121 15.443C25.2261 15.641 24.7881 15.294 24.8661 14.851L25.6961 10.121L22.1731 6.765C21.8441 6.451 22.0151 5.877 22.4561 5.815L27.3541 5.119L29.5381 0.792C29.7351 0.402 30.2681 0.402 30.4651 0.792L32.6491 5.119L37.5471 5.815C37.9881 5.877 38.1591 6.451 37.8291 6.765L34.3071 10.121L35.1371 14.851C35.2151 15.294 34.7771 15.641 34.3911 15.443L30.0001 13.187L25.6111 15.443H25.6121Z" fill="#FFD540"/>
</g>
<g clip-path="url(#clip2_1079_3507)">
<path d="M47.6121 15.443C47.2261 15.641 46.7881 15.294 46.8661 14.851L47.6961 10.121L44.1731 6.765C43.8441 6.451 44.0151 5.877 44.4561 5.815L49.3541 5.119L51.5381 0.792C51.7351 0.402 52.2681 0.402 52.4651 0.792L54.6491 5.119L59.5471 5.815C59.9881 5.877 60.1591 6.451 59.8291 6.765L56.3071 10.121L57.1371 14.851C57.2151 15.294 56.7771 15.641 56.3911 15.443L52.0001 13.187L47.6111 15.443H47.6121Z" fill="#FFD540"/>
</g>
<g clip-path="url(#clip3_1079_3507)">
<path d="M69.6121 15.443C69.2261 15.641 68.7881 15.294 68.8661 14.851L69.6961 10.121L66.1731 6.765C65.8441 6.451 66.0151 5.877 66.4561 5.815L71.3541 5.119L73.5381 0.792C73.7351 0.402 74.2681 0.402 74.4651 0.792L76.6491 5.119L81.5471 5.815C81.9881 5.877 82.1591 6.451 81.8291 6.765L78.3071 10.121L79.1371 14.851C79.2151 15.294 78.7771 15.641 78.3911 15.443L74.0001 13.187L69.6111 15.443H69.6121Z" fill="#FFD540"/>
</g>
<mask id="mask0_1079_3507" style="mask-type:alpha" maskUnits="userSpaceOnUse" x="88" y="0" width="16" height="16">
<g clip-path="url(#clip4_1079_3507)">
<path d="M91.6121 15.443C91.2261 15.641 90.7881 15.294 90.8661 14.851L91.6961 10.121L88.1731 6.765C87.8441 6.451 88.0151 5.877 88.4561 5.815L93.3541 5.119L95.5381 0.792C95.7351 0.402 96.2681 0.402 96.4651 0.792L98.6491 5.119L103.547 5.815C103.988 5.877 104.159 6.451 103.829 6.765L100.307 10.121L101.137 14.851C101.215 15.294 100.777 15.641 100.391 15.443L96.0001 13.187L91.6111 15.443H91.6121Z" fill="black"/>
</g>
</mask>
<g mask="url(#mask0_1079_3507)">
<rect x="96" y="-2" width="15" height="22" fill="#E0E0E0"/>
</g>
<mask id="mask1_1079_3507" style="mask-type:alpha" maskUnits="userSpaceOnUse" x="88" y="0" width="16" height="16">
<g clip-path="url(#clip5_1079_3507)">
<path d="M100.388 15.443C100.774 15.641 101.212 15.294 101.134 14.851L100.304 10.121L103.827 6.765C104.156 6.451 103.985 5.877 103.544 5.815L98.6459 5.119L96.4619 0.792C96.2649 0.402 95.7319 0.402 95.5349 0.792L93.3509 5.119L88.4529 5.815C88.0119 5.877 87.8409 6.451 88.1709 6.765L91.6929 10.121L90.8629 14.851C90.7849 15.294 91.2229 15.641 91.6089 15.443L95.9999 13.187L100.388 15.443Z" fill="black"/>
</g>
</mask>
<g mask="url(#mask1_1079_3507)">
<rect width="15" height="22" transform="matrix(-1 0 0 1 96 -2)" fill="#FFD540"/>
</g>
<defs>
<clipPath id="clip0_1079_3507">
<rect width="16" height="16" fill="white"/>
</clipPath>
<clipPath id="clip1_1079_3507">
<rect width="16" height="16" fill="white" transform="translate(22)"/>
</clipPath>
<clipPath id="clip2_1079_3507">
<rect width="16" height="16" fill="white" transform="translate(44)"/>
</clipPath>
<clipPath id="clip3_1079_3507">
<rect width="16" height="16" fill="white" transform="translate(66)"/>
</clipPath>
<clipPath id="clip4_1079_3507">
<rect width="16" height="16" fill="white" transform="translate(88)"/>
</clipPath>
<clipPath id="clip5_1079_3507">
<rect width="16" height="16" fill="white" transform="matrix(-1 0 0 1 104 0)"/>
</clipPath>
</defs>
</svg>
