<svg width="11" height="11" viewBox="0 0 11 11" fill="none" xmlns="http://www.w3.org/2000/svg">
    <path d="M5.4955 0.916672C2.9655 0.916672 0.916748 2.97 0.916748 5.5C0.916748 8.03 2.9655 10.0833 5.4955 10.0833C8.03008 10.0833 10.0834 8.03 10.0834 5.5C10.0834 2.97 8.03008 0.916672 5.4955 0.916672ZM5.50008 9.16667C3.47425 9.16667 1.83341 7.52584 1.83341 5.5C1.83341 3.47417 3.47425 1.83334 5.50008 1.83334C7.52591 1.83334 9.16675 3.47417 9.16675 5.5C9.16675 7.52584 7.52591 9.16667 5.50008 9.16667Z"
          fill="#0052CC"/>
    <path d="M5.72925 3.20833H5.04175V5.95833L7.448 7.40208L7.79175 6.83833L5.72925 5.61458V3.20833Z" fill="#0052CC"/>
</svg>
