<svg width="37" height="37" viewBox="0 0 37 37" fill="none" xmlns="http://www.w3.org/2000/svg">
<rect width="37" height="37" rx="3" fill="#00B5EE"/>
<path d="M28.7024 13.1141C28.0066 13.4225 27.2591 13.6308 26.4733 13.725C27.2841 13.2398 27.8907 12.4762 28.1799 11.5766C27.4181 12.0291 26.5844 12.3476 25.7149 12.5183C25.1302 11.894 24.3558 11.4803 23.5119 11.3412C22.6679 11.2022 21.8017 11.3456 21.0476 11.7494C20.2936 12.1531 19.6939 12.7945 19.3417 13.5739C18.9895 14.3534 18.9045 15.2273 19.0999 16.06C17.5563 15.9825 16.0463 15.5813 14.6678 14.8824C13.2893 14.1835 12.0731 13.2026 11.0983 12.0033C10.7649 12.5783 10.5733 13.245 10.5733 13.955C10.5729 14.5941 10.7303 15.2235 11.0315 15.7873C11.3327 16.351 11.7684 16.8317 12.2999 17.1866C11.6835 17.167 11.0807 17.0005 10.5416 16.7008V16.7508C10.5415 17.6473 10.8516 18.5161 11.4192 19.21C11.9869 19.9038 12.7771 20.3799 13.6558 20.5575C13.0839 20.7122 12.4844 20.735 11.9024 20.6241C12.1503 21.3955 12.6333 22.07 13.2836 22.5533C13.9339 23.0365 14.719 23.3043 15.5291 23.3191C14.154 24.3987 12.4557 24.9842 10.7074 24.9816C10.3977 24.9817 10.0883 24.9636 9.78076 24.9275C11.5553 26.0685 13.621 26.674 15.7308 26.6716C22.8724 26.6716 26.7766 20.7566 26.7766 15.6266C26.7766 15.46 26.7724 15.2916 26.7649 15.125C27.5243 14.5758 28.1799 13.8957 28.7008 13.1166L28.7024 13.1141Z" fill="white"/>
</svg>
