<svg width="6" height="3" viewBox="0 0 6 3" fill="none" xmlns="http://www.w3.org/2000/svg">
<path d="M2.99529 0.00101352C2.89533 0.000818014 2.79846 0.035675 2.72149 0.099534L0.154552 2.24128C0.0671834 2.31399 0.0122405 2.41847 0.00181033 2.53174C-0.00861987 2.64501 0.0263169 2.75778 0.0989349 2.84526C0.171553 2.93273 0.275904 2.98774 0.389031 2.99819C0.502159 3.00863 0.614796 2.97365 0.702165 2.90094L2.99529 0.981935L5.28842 2.83241C5.33218 2.86799 5.38254 2.89456 5.43659 2.91059C5.49064 2.92663 5.54732 2.93181 5.60338 2.92584C5.65944 2.91987 5.71376 2.90286 5.76323 2.8758C5.81271 2.84874 5.85635 2.81216 5.89165 2.76815C5.93083 2.72411 5.96051 2.67244 5.97881 2.61638C5.99712 2.56032 6.00367 2.50108 5.99805 2.44237C5.99242 2.38366 5.97475 2.32674 5.94614 2.27519C5.91752 2.22363 5.87858 2.17855 5.83176 2.14276L3.26482 0.0738332C3.18564 0.0200684 3.09074 -0.00557065 2.99529 0.00101352Z" fill="#72767C"/>
</svg>
