<svg width="16" height="16" viewBox="0 0 16 16" fill="none" xmlns="http://www.w3.org/2000/svg">
    <path d="M14.1714 7.30801C14.4874 7.72134 14.4874 8.27934 14.1714 8.69201C13.1761 9.99134 10.7881 12.6667 8.00009 12.6667C5.21209 12.6667 2.82409 9.99134 1.82876 8.69201C1.67501 8.4941 1.59155 8.25062 1.59155 8.00001C1.59155 7.7494 1.67501 7.50592 1.82876 7.30801C2.82409 6.00868 5.21209 3.33334 8.00009 3.33334C10.7881 3.33334 13.1761 6.00868 14.1714 7.30801V7.30801Z"
          stroke="white" stroke-width="1.25" stroke-linecap="round" stroke-linejoin="round"/>
    <path d="M8 10C9.10457 10 10 9.10457 10 8C10 6.89543 9.10457 6 8 6C6.89543 6 6 6.89543 6 8C6 9.10457 6.89543 10 8 10Z"
          stroke="white" stroke-width="1.25" stroke-linecap="round" stroke-linejoin="round"/>
</svg>
