<svg width="12" height="12" viewBox="0 0 12 12" fill="none" xmlns="http://www.w3.org/2000/svg">
<path d="M5.43755 8.4375C5.43755 8.58668 5.49681 8.72976 5.6023 8.83525C5.70779 8.94074 5.85087 9 6.00005 9C6.14924 9 6.29231 8.94074 6.3978 8.83525C6.50329 8.72976 6.56255 8.58668 6.56255 8.4375C6.56255 8.28832 6.50329 8.14524 6.3978 8.03975C6.29231 7.93426 6.14924 7.875 6.00005 7.875C5.85087 7.875 5.70779 7.93426 5.6023 8.03975C5.49681 8.14524 5.43755 8.28832 5.43755 8.4375ZM5.62505 4.875V7.03125C5.62505 7.08281 5.66724 7.125 5.7188 7.125H6.2813C6.33286 7.125 6.37505 7.08281 6.37505 7.03125V4.875C6.37505 4.82344 6.33286 4.78125 6.2813 4.78125H5.7188C5.66724 4.78125 5.62505 4.82344 5.62505 4.875ZM11.1997 10.0312L6.32466 1.59375C6.252 1.46836 6.12661 1.40625 6.00005 1.40625C5.87349 1.40625 5.74693 1.46836 5.67544 1.59375L0.800443 10.0312C0.656303 10.282 0.836772 10.5938 1.12505 10.5938H10.8751C11.1633 10.5938 11.3438 10.282 11.1997 10.0312ZM2.01802 9.7043L6.00005 2.81133L9.98208 9.7043H2.01802Z" fill="white"/>
</svg>
