<svg width="37" height="37" viewBox="0 0 37 37" fill="none" xmlns="http://www.w3.org/2000/svg">
<rect width="37" height="37" rx="3" fill="#2AC43A"/>
<path d="M23.122 20.7871C22.8964 20.6729 21.7979 20.1368 21.5926 20.0603C21.3872 19.9872 21.2382 19.9489 21.0886 20.1745C20.9423 20.3944 20.5114 20.8979 20.3798 21.0447C20.2482 21.1915 20.1188 21.2028 19.8966 21.1032C19.6711 20.989 18.9505 20.7544 18.0949 19.9872C17.4267 19.3926 16.9818 18.6602 16.8496 18.4347C16.7179 18.2119 16.8349 18.0859 16.9463 17.9746C17.0487 17.8722 17.1719 17.7169 17.2861 17.5819C17.3946 17.4469 17.4295 17.3564 17.5088 17.2101C17.5819 17.0521 17.5443 16.9289 17.4886 16.8175C17.4329 16.7061 16.9846 15.6019 16.7972 15.1621C16.6184 14.7256 16.4311 14.7812 16.2933 14.7812C16.1644 14.7694 16.0148 14.7694 15.8658 14.7694C15.7167 14.7694 15.4731 14.8251 15.2678 15.0389C15.0625 15.2644 14.4826 15.8033 14.4826 16.8934C14.4826 17.9864 15.2852 19.0439 15.3966 19.2019C15.5108 19.3482 16.9756 21.5982 19.2227 22.5651C19.7588 22.7907 20.1751 22.9257 20.5002 23.0371C21.0363 23.2069 21.5256 23.1833 21.9121 23.1276C22.3396 23.0573 23.2362 22.5854 23.4241 22.0583C23.6147 21.5279 23.6147 21.0886 23.5591 20.989C23.5034 20.8866 23.3571 20.8309 23.1316 20.7314L23.122 20.7871ZM19.0467 26.3125H19.0349C17.7046 26.3125 16.3894 25.9519 15.2408 25.2781L14.9714 25.1172L12.1589 25.8496L12.9149 23.113L12.7332 22.8317C11.9904 21.6507 11.5963 20.2838 11.5964 18.8886C11.5964 14.8049 14.9393 11.4737 19.0523 11.4737C21.0447 11.4737 22.9139 12.25 24.3201 13.6562C25.0138 14.3417 25.5641 15.1585 25.9388 16.0588C26.3135 16.9592 26.5052 17.9252 26.5026 18.9004C26.497 22.9814 23.1569 26.3125 19.0495 26.3125H19.0467ZM25.3894 12.5869C23.6783 10.9343 21.4283 10 19.0349 10C14.0984 10 10.0787 14.0022 10.0759 18.9207C10.0759 20.4912 10.486 22.0234 11.2713 23.3796L10 28L14.752 26.7608C16.0684 27.4706 17.5399 27.8439 19.0354 27.8476H19.0382C23.9776 27.8476 27.9972 23.8454 28 18.9235C28 16.5419 27.0713 14.3003 25.3782 12.6156L25.3894 12.5869Z" fill="white"/>
</svg>
